  0
SECTION
  2
HEADER
  9
$CLAYER
  8
1
  0
ENDSEC
  0
SECTION
  2
TABLES
  0
TABLE
  2
LTYPE
 70
1
  0
LTYPE
  2
CONTINUOUS
 70
64
  3
SOLIDLINE
 72
65
 73
0
 40
0.0000
  0
ENDTAB
  0
TABLE
  2
LAYER
  2
1
 70
5
  0
LAYER
  2
1
 70
0
 62
7
  6
CONTINUOUS
  0
LAYER
  2
2
 70
0
 62
7
  6
CONTINUOUS
  0
LAYER
  2
3
 70
0
 62
2
  6
CONTINUOUS
  0
LAYER
  2
4
 70
0
 62
3
  6
CONTINUOUS
  0
LAYER
  2
5
 70
0
 62
5
  6
CONTINUOUS
  0
LAYER
  2
6
 70
0
 62
5
  6
CONTINUOUS
  0
LAYER
  2
7
 70
0
 62
5
  6
CONTINUOUS
  0
LAYER
  2
8
 70
0
 62
4
  6
CONTINUOUS
  0
LAYER
  2
9
 70
0
 62
4
  6
CONTINUOUS
  0
LAYER
  2
10
 70
0
 62
4
  6
CONTINUOUS
  0
LAYER
  2
11
 70
0
 62
4
  6
CONTINUOUS
  0
LAYER
  2
12
 70
0
 62
6
  6
CONTINUOUS
  0
LAYER
  2
13
 70
0
 62
7
  6
CONTINUOUS
  0
LAYER
  2
14
 70
0
 62
7
  6
CONTINUOUS
  0
ENDTAB
  0
TABLE
  2
STYLE
 70
1
  0
STYLE
  2
STANDARD
 70
0
 40
0.0000
 41
1.0000
 50
0.0000
 71
0
 42
0.4000
  3
txt
  4
 
  0
ENDTAB
  0
ENDSEC
  0
SECTION
  2
BLOCKS
  0
BLOCK
  8
0
  2
BLK_1_1
 70
64
 10
0.0000
 20
0.0000
  0
TEXT
  8
1
 10
350.2460
 20
399.1032
 40
2.8000
 50
0.0000
  1
PIECE NAME: 1
  7
STANDARD
  0
TEXT
  8
1
 10
350.2460
 20
396.3032
 40
2.8000
 50
0.0000
  1
SIZE: F
  7
STANDARD
  0
TEXT
  8
1
 10
350.2460
 20
393.5032
 40
2.8000
 50
0.0000
  1
CATEGORY: 
  7
STANDARD
  0
TEXT
  8
1
 10
350.2460
 20
390.7032
 40
2.8000
 50
0.0000
  1
QUANTITY: 1
  7
STANDARD
  0
TEXT
  8
1
 10
350.2460
 20
387.9032
 40
2.8000
 50
0.0000
  1
ANNOTATION: 
  7
STANDARD
  0
POLYLINE
  8
1
 66
1
 70
1
  0
VERTEX
  8
1
 10
44.3939
 20
30.0005
  0
VERTEX
  8
1
 10
44.3939
 20
59.7917
  0
VERTEX
  8
1
 10
30.0000
 20
415.0963
  0
VERTEX
  8
1
 10
35.6873
 20
418.0082
  0
VERTEX
  8
1
 10
39.7620
 20
420.2514
  0
VERTEX
  8
1
 10
43.6176
 20
422.7976
  0
VERTEX
  8
1
 10
47.2125
 20
425.6147
  0
VERTEX
  8
1
 10
50.5701
 20
428.7122
  0
VERTEX
  8
1
 10
53.7225
 20
432.1227
  0
VERTEX
  8
1
 10
56.6174
 20
435.7581
  0
VERTEX
  8
1
 10
59.3048
 20
439.6426
  0
VERTEX
  8
1
 10
61.7285
 20
443.6983
  0
VERTEX
  8
1
 10
63.9239
 20
447.9896
  0
VERTEX
  8
1
 10
65.8710
 20
452.4032
  0
VERTEX
  8
1
 10
67.6392
 20
457.0365
  0
VERTEX
  8
1
 10
69.2059
 20
461.7449
  0
VERTEX
  8
1
 10
71.8921
 20
471.4414
  0
VERTEX
  8
1
 10
74.0869
 20
481.5263
  0
VERTEX
  8
1
 10
75.8179
 20
491.7521
  0
VERTEX
  8
1
 10
77.1808
 20
501.9637
  0
VERTEX
  8
1
 10
78.2422
 20
512.6111
  0
VERTEX
  8
1
 10
78.9758
 20
522.8722
  0
VERTEX
  8
1
 10
79.2657
 20
528.5478
  0
VERTEX
  8
1
 10
79.4415
 20
533.3702
  0
VERTEX
  8
1
 10
79.5428
 20
538.2546
  0
VERTEX
  8
1
 10
79.5697
 20
543.7474
  0
VERTEX
  8
1
 10
79.0735
 20
559.8693
  0
VERTEX
  8
1
 10
78.0798
 20
575.6595
  0
VERTEX
  8
1
 10
76.4581
 20
591.4199
  0
VERTEX
  8
1
 10
74.0643
 20
607.0804
  0
VERTEX
  8
1
 10
70.9747
 20
623.0970
  0
VERTEX
  8
1
 10
67.5250
 20
638.7469
  0
VERTEX
  8
1
 10
63.7311
 20
654.0386
  0
VERTEX
  8
1
 10
59.4037
 20
669.4525
  0
VERTEX
  8
1
 10
54.5642
 20
684.7379
  0
VERTEX
  8
1
 10
51.2671
 20
694.6571
  0
VERTEX
  8
1
 10
231.2732
 20
745.8064
  0
VERTEX
  8
1
 10
235.2429
 20
739.4103
  0
VERTEX
  8
1
 10
237.6349
 20
735.7446
  0
VERTEX
  8
1
 10
240.2313
 20
732.2405
  0
VERTEX
  8
1
 10
243.0231
 20
728.9086
  0
VERTEX
  8
1
 10
246.0089
 20
725.7488
  0
VERTEX
  8
1
 10
249.1833
 20
722.7649
  0
VERTEX
  8
1
 10
252.5262
 20
719.9706
  0
VERTEX
  8
1
 10
256.0236
 20
717.3738
  0
VERTEX
  8
1
 10
259.6619
 20
714.9778
  0
VERTEX
  8
1
 10
263.4436
 20
712.7733
  0
VERTEX
  8
1
 10
267.3401
 20
710.7791
  0
VERTEX
  8
1
 10
271.3403
 20
708.9999
  0
VERTEX
  8
1
 10
275.4309
 20
707.4409
  0
VERTEX
  8
1
 10
279.6771
 20
706.0899
  0
VERTEX
  8
1
 10
283.9856
 20
704.9425
  0
VERTEX
  8
1
 10
292.9810
 20
703.1089
  0
VERTEX
  8
1
 10
302.2693
 20
701.7476
  0
VERTEX
  8
1
 10
311.7273
 20
700.7765
  0
VERTEX
  8
1
 10
321.3269
 20
700.0455
  0
VERTEX
  8
1
 10
330.9454
 20
699.5285
  0
VERTEX
  8
1
 10
340.5200
 20
699.2542
  0
VERTEX
  8
1
 10
350.2435
 20
699.1265
  0
VERTEX
  8
1
 10
359.9640
 20
699.2538
  0
VERTEX
  8
1
 10
369.5563
 20
699.5284
  0
VERTEX
  8
1
 10
379.1846
 20
700.0459
  0
VERTEX
  8
1
 10
388.7823
 20
700.7768
  0
VERTEX
  8
1
 10
398.2587
 20
701.7502
  0
VERTEX
  8
1
 10
407.5262
 20
703.1090
  0
VERTEX
  8
1
 10
416.5234
 20
704.9432
  0
VERTEX
  8
1
 10
420.8258
 20
706.0888
  0
VERTEX
  8
1
 10
425.0659
 20
707.4378
  0
VERTEX
  8
1
 10
429.1583
 20
708.9967
  0
VERTEX
  8
1
 10
433.1604
 20
710.7761
  0
VERTEX
  8
1
 10
437.0709
 20
712.7779
  0
VERTEX
  8
1
 10
440.8655
 20
714.9908
  0
VERTEX
  8
1
 10
444.5026
 20
717.3872
  0
VERTEX
  8
1
 10
447.9987
 20
719.9846
  0
VERTEX
  8
1
 10
451.3324
 20
722.7722
  0
VERTEX
  8
1
 10
454.4977
 20
725.7488
  0
VERTEX
  8
1
 10
457.4799
 20
728.9041
  0
VERTEX
  8
1
 10
460.2679
 20
732.2311
  0
VERTEX
  8
1
 10
462.2375
 20
734.8483
  0
VERTEX
  8
1
 10
465.2637
 20
739.4104
  0
VERTEX
  8
1
 10
469.2352
 20
745.8061
  0
VERTEX
  8
1
 10
649.2407
 20
694.6561
  0
VERTEX
  8
1
 10
645.9424
 20
684.7379
  0
VERTEX
  8
1
 10
641.1353
 20
669.5609
  0
VERTEX
  8
1
 10
636.7743
 20
654.0336
  0
VERTEX
  8
1
 10
632.8986
 20
638.3915
  0
VERTEX
  8
1
 10
629.4543
 20
622.7248
  0
VERTEX
  8
1
 10
626.4368
 20
607.0485
  0
VERTEX
  8
1
 10
624.0582
 20
591.4953
  0
VERTEX
  8
1
 10
622.4249
 20
575.6406
  0
VERTEX
  8
1
 10
621.4197
 20
559.5849
  0
VERTEX
  8
1
 10
620.9369
 20
543.7392
  0
VERTEX
  8
1
 10
620.9619
 20
538.2546
  0
VERTEX
  8
1
 10
621.0596
 20
533.5569
  0
VERTEX
  8
1
 10
621.2417
 20
528.5479
  0
VERTEX
  8
1
 10
621.5302
 20
522.8878
  0
VERTEX
  8
1
 10
622.2754
 20
512.4833
  0
VERTEX
  8
1
 10
623.3252
 20
501.9698
  0
VERTEX
  8
1
 10
624.7113
 20
491.5976
  0
VERTEX
  8
1
 10
626.4276
 20
481.4844
  0
VERTEX
  8
1
 10
628.6163
 20
471.4307
  0
VERTEX
  8
1
 10
631.3245
 20
461.6666
  0
VERTEX
  8
1
 10
632.8925
 20
456.9662
  0
VERTEX
  8
1
 10
634.6613
 20
452.3409
  0
VERTEX
  8
1
 10
636.5967
 20
447.9585
  0
VERTEX
  8
1
 10
638.7787
 20
443.6972
  0
VERTEX
  8
1
 10
641.1969
 20
439.6506
  0
VERTEX
  8
1
 10
643.8770
 20
435.7739
  0
VERTEX
  8
1
 10
646.7633
 20
432.1458
  0
VERTEX
  8
1
 10
649.9060
 20
428.7425
  0
VERTEX
  8
1
 10
653.2819
 20
425.6273
  0
VERTEX
  8
1
 10
656.8958
 20
422.7932
  0
VERTEX
  8
1
 10
659.7650
 20
420.8553
  0
VERTEX
  8
1
 10
664.8193
 20
418.0081
  0
VERTEX
  8
1
 10
670.5066
 20
415.0973
  0
VERTEX
  8
1
 10
656.1127
 20
59.7918
  0
VERTEX
  8
1
 10
656.1127
 20
30.0005
  0
VERTEX
  8
1
 10
350.2533
 20
30.0000
  0
VERTEX
  8
1
 10
44.3939
 20
30.0005
  0
SEQEND
  0
POINT
  8
2
 10
44.3939
 20
30.0005
  0
TEXT
  8
2
 10
44.3939
 20
30.0005
 40
0.1000
 50
0.0000
  1
# 1
  0
POINT
  8
2
 10
44.3939
 20
59.7917
  0
TEXT
  8
2
 10
44.3939
 20
59.7917
 40
0.1000
 50
0.0000
  1
# 2
  0
POINT
  8
2
 10
30.0000
 20
415.0963
  0
TEXT
  8
2
 10
30.0000
 20
415.0963
 40
0.1000
 50
0.0000
  1
# 3
  0
POINT
  8
3
 10
35.6873
 20
418.0082
  0
POINT
  8
3
 10
39.7620
 20
420.2514
  0
POINT
  8
3
 10
43.6176
 20
422.7976
  0
POINT
  8
3
 10
47.2125
 20
425.6147
  0
POINT
  8
3
 10
50.5701
 20
428.7122
  0
POINT
  8
3
 10
53.7225
 20
432.1227
  0
POINT
  8
3
 10
56.6174
 20
435.7581
  0
POINT
  8
3
 10
59.3048
 20
439.6426
  0
POINT
  8
3
 10
61.7285
 20
443.6983
  0
POINT
  8
3
 10
63.9239
 20
447.9896
  0
POINT
  8
3
 10
65.8710
 20
452.4032
  0
POINT
  8
3
 10
67.6392
 20
457.0365
  0
POINT
  8
3
 10
69.2059
 20
461.7449
  0
POINT
  8
3
 10
71.8921
 20
471.4414
  0
POINT
  8
3
 10
74.0869
 20
481.5263
  0
POINT
  8
3
 10
75.8179
 20
491.7521
  0
POINT
  8
3
 10
77.1808
 20
501.9637
  0
POINT
  8
3
 10
78.2422
 20
512.6111
  0
POINT
  8
3
 10
78.9758
 20
522.8722
  0
POINT
  8
4
 10
79.2657
 20
528.5478
 38
5.0000
 50
357.5747
  0
TEXT
  8
4
 10
79.2657
 20
528.5478
 40
0.1000
 50
0.0000
  1
# 4
  0
POINT
  8
3
 10
79.2657
 20
528.5478
  0
POINT
  8
3
 10
79.4415
 20
533.3702
  0
POINT
  8
4
 10
79.5428
 20
538.2546
 38
5.0000
 50
359.2299
  0
TEXT
  8
4
 10
79.5428
 20
538.2546
 40
0.1000
 50
0.0000
  1
# 5
  0
POINT
  8
3
 10
79.5428
 20
538.2546
  0
POINT
  8
2
 10
79.5697
 20
543.7474
  0
TEXT
  8
2
 10
79.5697
 20
543.7474
 40
0.1000
 50
0.0000
  1
# 6
  0
POINT
  8
3
 10
79.0735
 20
559.8693
  0
POINT
  8
3
 10
78.0798
 20
575.6595
  0
POINT
  8
3
 10
76.4581
 20
591.4199
  0
POINT
  8
3
 10
74.0643
 20
607.0804
  0
POINT
  8
3
 10
70.9747
 20
623.0970
  0
POINT
  8
3
 10
67.5250
 20
638.7469
  0
POINT
  8
3
 10
63.7311
 20
654.0386
  0
POINT
  8
3
 10
59.4037
 20
669.4525
  0
POINT
  8
3
 10
54.5642
 20
684.7379
  0
POINT
  8
2
 10
51.2671
 20
694.6571
  0
TEXT
  8
2
 10
51.2671
 20
694.6571
 40
0.1000
 50
0.0000
  1
# 7
  0
POINT
  8
2
 10
231.2732
 20
745.8064
  0
TEXT
  8
2
 10
231.2732
 20
745.8064
 40
0.1000
 50
0.0000
  1
# 8
  0
POINT
  8
3
 10
235.2429
 20
739.4103
  0
POINT
  8
3
 10
237.6349
 20
735.7446
  0
POINT
  8
3
 10
240.2313
 20
732.2405
  0
POINT
  8
3
 10
243.0231
 20
728.9086
  0
POINT
  8
3
 10
246.0089
 20
725.7488
  0
POINT
  8
3
 10
249.1833
 20
722.7649
  0
POINT
  8
3
 10
252.5262
 20
719.9706
  0
POINT
  8
3
 10
256.0236
 20
717.3738
  0
POINT
  8
3
 10
259.6619
 20
714.9778
  0
POINT
  8
3
 10
263.4436
 20
712.7733
  0
POINT
  8
3
 10
267.3401
 20
710.7791
  0
POINT
  8
3
 10
271.3403
 20
708.9999
  0
POINT
  8
3
 10
275.4309
 20
707.4409
  0
POINT
  8
3
 10
279.6771
 20
706.0899
  0
POINT
  8
3
 10
283.9856
 20
704.9425
  0
POINT
  8
3
 10
292.9810
 20
703.1089
  0
POINT
  8
3
 10
302.2693
 20
701.7476
  0
POINT
  8
3
 10
311.7273
 20
700.7765
  0
POINT
  8
3
 10
321.3269
 20
700.0455
  0
POINT
  8
3
 10
330.9454
 20
699.5285
  0
POINT
  8
3
 10
340.5200
 20
699.2542
  0
POINT
  8
4
 10
350.2435
 20
699.1265
 38
5.0000
 50
270.0000
  0
TEXT
  8
4
 10
350.2435
 20
699.1265
 40
0.1000
 50
0.0000
  1
# 9
  0
POINT
  8
2
 10
350.2435
 20
699.1265
  0
TEXT
  8
2
 10
350.2435
 20
699.1265
 40
0.1000
 50
0.0000
  1
# 9
  0
POINT
  8
3
 10
359.9640
 20
699.2538
  0
POINT
  8
3
 10
369.5563
 20
699.5284
  0
POINT
  8
3
 10
379.1846
 20
700.0459
  0
POINT
  8
3
 10
388.7823
 20
700.7768
  0
POINT
  8
3
 10
398.2587
 20
701.7502
  0
POINT
  8
3
 10
407.5262
 20
703.1090
  0
POINT
  8
3
 10
416.5234
 20
704.9432
  0
POINT
  8
3
 10
420.8258
 20
706.0888
  0
POINT
  8
3
 10
425.0659
 20
707.4378
  0
POINT
  8
3
 10
429.1583
 20
708.9967
  0
POINT
  8
3
 10
433.1604
 20
710.7761
  0
POINT
  8
3
 10
437.0709
 20
712.7779
  0
POINT
  8
3
 10
440.8655
 20
714.9908
  0
POINT
  8
3
 10
444.5026
 20
717.3872
  0
POINT
  8
3
 10
447.9987
 20
719.9846
  0
POINT
  8
3
 10
451.3324
 20
722.7722
  0
POINT
  8
3
 10
454.4977
 20
725.7488
  0
POINT
  8
3
 10
457.4799
 20
728.9041
  0
POINT
  8
3
 10
460.2679
 20
732.2311
  0
POINT
  8
3
 10
462.2375
 20
734.8483
  0
POINT
  8
3
 10
465.2637
 20
739.4104
  0
POINT
  8
2
 10
469.2352
 20
745.8061
  0
TEXT
  8
2
 10
469.2352
 20
745.8061
 40
0.1000
 50
0.0000
  1
# 10
  0
POINT
  8
2
 10
649.2407
 20
694.6561
  0
TEXT
  8
2
 10
649.2407
 20
694.6561
 40
0.1000
 50
0.0000
  1
# 11
  0
POINT
  8
3
 10
645.9424
 20
684.7379
  0
POINT
  8
3
 10
641.1353
 20
669.5609
  0
POINT
  8
3
 10
636.7743
 20
654.0336
  0
POINT
  8
3
 10
632.8986
 20
638.3915
  0
POINT
  8
3
 10
629.4543
 20
622.7248
  0
POINT
  8
3
 10
626.4368
 20
607.0485
  0
POINT
  8
3
 10
624.0582
 20
591.4953
  0
POINT
  8
3
 10
622.4249
 20
575.6406
  0
POINT
  8
3
 10
621.4197
 20
559.5849
  0
POINT
  8
2
 10
620.9369
 20
543.7392
  0
TEXT
  8
2
 10
620.9369
 20
543.7392
 40
0.1000
 50
0.0000
  1
# 12
  0
POINT
  8
4
 10
620.9619
 20
538.2546
 38
5.0000
 50
180.7712
  0
TEXT
  8
4
 10
620.9619
 20
538.2546
 40
0.1000
 50
0.0000
  1
# 13
  0
POINT
  8
3
 10
620.9619
 20
538.2546
  0
POINT
  8
3
 10
621.0596
 20
533.5569
  0
POINT
  8
4
 10
621.2417
 20
528.5479
 38
5.0000
 50
182.4253
  0
TEXT
  8
4
 10
621.2417
 20
528.5479
 40
0.1000
 50
0.0000
  1
# 14
  0
POINT
  8
3
 10
621.2417
 20
528.5479
  0
POINT
  8
3
 10
621.5302
 20
522.8878
  0
POINT
  8
3
 10
622.2754
 20
512.4833
  0
POINT
  8
3
 10
623.3252
 20
501.9698
  0
POINT
  8
3
 10
624.7113
 20
491.5976
  0
POINT
  8
3
 10
626.4276
 20
481.4844
  0
POINT
  8
3
 10
628.6163
 20
471.4307
  0
POINT
  8
3
 10
631.3245
 20
461.6666
  0
POINT
  8
3
 10
632.8925
 20
456.9662
  0
POINT
  8
3
 10
634.6613
 20
452.3409
  0
POINT
  8
3
 10
636.5967
 20
447.9585
  0
POINT
  8
3
 10
638.7787
 20
443.6972
  0
POINT
  8
3
 10
641.1969
 20
439.6506
  0
POINT
  8
3
 10
643.8770
 20
435.7739
  0
POINT
  8
3
 10
646.7633
 20
432.1458
  0
POINT
  8
3
 10
649.9060
 20
428.7425
  0
POINT
  8
3
 10
653.2819
 20
425.6273
  0
POINT
  8
3
 10
656.8958
 20
422.7932
  0
POINT
  8
3
 10
659.7650
 20
420.8553
  0
POINT
  8
3
 10
664.8193
 20
418.0081
  0
POINT
  8
2
 10
670.5066
 20
415.0973
  0
TEXT
  8
2
 10
670.5066
 20
415.0973
 40
0.1000
 50
0.0000
  1
# 15
  0
POINT
  8
2
 10
656.1127
 20
59.7918
  0
TEXT
  8
2
 10
656.1127
 20
59.7918
 40
0.1000
 50
0.0000
  1
# 16
  0
POINT
  8
2
 10
656.1127
 20
30.0005
  0
TEXT
  8
2
 10
656.1127
 20
30.0005
 40
0.1000
 50
0.0000
  1
# 17
  0
POINT
  8
2
 10
350.2533
 20
30.0000
  0
TEXT
  8
2
 10
350.2533
 20
30.0000
 40
0.1000
 50
0.0000
  1
# 18
  0
POINT
  8
2
 10
44.3939
 20
30.0005
  0
POLYLINE
  8
14
 66
1
 70
1
  0
VERTEX
  8
14
 10
54.3939
 20
30.0005
  0
VERTEX
  8
14
 10
54.3939
 20
60.0005
  0
VERTEX
  8
14
 10
40.2509
 20
409.1103
  0
VERTEX
  8
14
 10
44.9811
 20
411.7188
  0
VERTEX
  8
14
 10
49.4574
 20
414.6798
  0
VERTEX
  8
14
 10
53.6920
 20
418.0019
  0
VERTEX
  8
14
 10
57.6508
 20
421.6500
  0
VERTEX
  8
14
 10
61.3031
 20
425.6001
  0
VERTEX
  8
14
 10
64.6576
 20
429.8110
  0
VERTEX
  8
14
 10
67.7179
 20
434.2380
  0
VERTEX
  8
14
 10
70.4803
 20
438.8595
  0
VERTEX
  8
14
 10
72.9327
 20
443.6491
  0
VERTEX
  8
14
 10
75.1093
 20
448.5745
  0
VERTEX
  8
14
 10
77.0319
 20
453.6012
  0
VERTEX
  8
14
 10
78.7347
 20
458.7100
  0
VERTEX
  8
14
 10
81.6107
 20
469.0835
  0
VERTEX
  8
14
 10
83.9008
 20
479.6035
  0
VERTEX
  8
14
 10
85.7001
 20
490.2187
  0
VERTEX
  8
14
 10
87.1234
 20
500.8914
  0
VERTEX
  8
14
 10
88.1927
 20
511.6049
  0
VERTEX
  8
14
 10
88.9618
 20
522.3446
  0
VERTEX
  8
14
 10
89.2573
 20
528.1246
  0
VERTEX
  8
14
 10
89.4379
 20
533.1014
  0
VERTEX
  8
14
 10
89.5420
 20
538.1202
  0
VERTEX
  8
14
 10
89.5691
 20
543.8674
  0
VERTEX
  8
14
 10
89.0698
 20
560.1781
  0
VERTEX
  8
14
 10
88.0475
 20
576.4642
  0
VERTEX
  8
14
 10
86.3763
 20
592.6962
  0
VERTEX
  8
14
 10
83.9111
 20
608.8259
  0
VERTEX
  8
14
 10
80.8240
 20
624.8498
  0
VERTEX
  8
14
 10
77.3175
 20
640.7874
  0
VERTEX
  8
14
 10
73.3905
 20
656.6261
  0
VERTEX
  8
14
 10
68.9789
 20
672.3367
  0
VERTEX
  8
14
 10
64.0533
 20
687.8946
  0
VERTEX
  8
14
 10
226.7529
 20
734.1264
  0
VERTEX
  8
14
 10
229.4543
 20
729.9911
  0
VERTEX
  8
14
 10
232.3871
 20
726.0376
  0
VERTEX
  8
14
 10
235.5542
 20
722.2591
  0
VERTEX
  8
14
 10
238.9404
 20
718.6745
  0
VERTEX
  8
14
 10
242.5323
 20
715.2965
  0
VERTEX
  8
14
 10
246.3147
 20
712.1330
  0
VERTEX
  8
14
 10
250.2728
 20
709.1927
  0
VERTEX
  8
14
 10
254.3909
 20
706.4795
  0
VERTEX
  8
14
 10
258.6505
 20
703.9961
  0
VERTEX
  8
14
 10
263.0408
 20
701.7502
  0
VERTEX
  8
14
 10
267.5470
 20
699.7483
  0
VERTEX
  8
14
 10
272.1552
 20
697.9926
  0
VERTEX
  8
14
 10
276.8524
 20
696.4979
  0
VERTEX
  8
14
 10
281.6174
 20
695.2269
  0
VERTEX
  8
14
 10
291.2799
 20
693.2546
  0
VERTEX
  8
14
 10
301.0382
 20
691.8236
  0
VERTEX
  8
14
 10
310.8490
 20
690.8151
  0
VERTEX
  8
14
 10
320.6836
 20
690.0662
  0
VERTEX
  8
14
 10
330.5322
 20
689.5371
  0
VERTEX
  8
14
 10
340.3912
 20
689.2548
  0
VERTEX
  8
14
 10
350.2533
 20
689.1263
  0
VERTEX
  8
14
 10
360.1154
 20
689.2548
  0
VERTEX
  8
14
 10
369.9744
 20
689.5371
  0
VERTEX
  8
14
 10
379.8230
 20
690.0662
  0
VERTEX
  8
14
 10
389.6576
 20
690.8151
  0
VERTEX
  8
14
 10
399.4684
 20
691.8236
  0
VERTEX
  8
14
 10
409.2267
 20
693.2546
  0
VERTEX
  8
14
 10
418.8892
 20
695.2269
  0
VERTEX
  8
14
 10
423.6542
 20
696.4979
  0
VERTEX
  8
14
 10
428.3514
 20
697.9926
  0
VERTEX
  8
14
 10
432.9596
 20
699.7483
  0
VERTEX
  8
14
 10
437.4658
 20
701.7502
  0
VERTEX
  8
14
 10
441.8561
 20
703.9961
  0
VERTEX
  8
14
 10
446.1157
 20
706.4795
  0
VERTEX
  8
14
 10
450.2338
 20
709.1927
  0
VERTEX
  8
14
 10
454.1919
 20
712.1330
  0
VERTEX
  8
14
 10
457.9742
 20
715.2965
  0
VERTEX
  8
14
 10
461.5662
 20
718.6745
  0
VERTEX
  8
14
 10
464.9524
 20
722.2591
  0
VERTEX
  8
14
 10
468.1195
 20
726.0376
  0
VERTEX
  8
14
 10
471.0522
 20
729.9911
  0
VERTEX
  8
14
 10
473.7537
 20
734.1264
  0
VERTEX
  8
14
 10
636.4539
 20
687.8938
  0
VERTEX
  8
14
 10
631.5277
 20
672.3367
  0
VERTEX
  8
14
 10
627.1161
 20
656.6261
  0
VERTEX
  8
14
 10
623.1891
 20
640.7874
  0
VERTEX
  8
14
 10
619.6826
 20
624.8498
  0
VERTEX
  8
14
 10
616.5955
 20
608.8259
  0
VERTEX
  8
14
 10
614.1302
 20
592.6962
  0
VERTEX
  8
14
 10
612.4591
 20
576.4642
  0
VERTEX
  8
14
 10
611.4368
 20
560.1781
  0
VERTEX
  8
14
 10
610.9369
 20
543.8674
  0
VERTEX
  8
14
 10
610.9646
 20
538.1202
  0
VERTEX
  8
14
 10
611.0687
 20
533.1014
  0
VERTEX
  8
14
 10
611.2493
 20
528.1246
  0
VERTEX
  8
14
 10
611.5448
 20
522.3446
  0
VERTEX
  8
14
 10
612.3138
 20
511.6049
  0
VERTEX
  8
14
 10
613.3832
 20
500.8914
  0
VERTEX
  8
14
 10
614.8065
 20
490.2187
  0
VERTEX
  8
14
 10
616.6058
 20
479.6035
  0
VERTEX
  8
14
 10
618.8959
 20
469.0835
  0
VERTEX
  8
14
 10
621.7718
 20
458.7100
  0
VERTEX
  8
14
 10
623.4747
 20
453.6012
  0
VERTEX
  8
14
 10
625.3973
 20
448.5745
  0
VERTEX
  8
14
 10
627.5739
 20
443.6491
  0
VERTEX
  8
14
 10
630.0262
 20
438.8595
  0
VERTEX
  8
14
 10
632.7887
 20
434.2380
  0
VERTEX
  8
14
 10
635.8490
 20
429.8110
  0
VERTEX
  8
14
 10
639.2035
 20
425.6001
  0
VERTEX
  8
14
 10
642.8558
 20
421.6500
  0
VERTEX
  8
14
 10
646.8146
 20
418.0019
  0
VERTEX
  8
14
 10
651.0492
 20
414.6798
  0
VERTEX
  8
14
 10
655.5255
 20
411.7188
  0
VERTEX
  8
14
 10
660.2557
 20
409.1103
  0
VERTEX
  8
14
 10
646.1127
 20
60.0005
  0
VERTEX
  8
14
 10
646.1127
 20
30.0005
  0
VERTEX
  8
14
 10
350.2533
 20
30.0005
  0
VERTEX
  8
14
 10
54.3939
 20
30.0005
  0
SEQEND
  0
POINT
  8
2
 10
54.3939
 20
30.0005
  0
TEXT
  8
2
 10
54.3939
 20
30.0005
 40
0.1000
 50
0.0000
  1
# 20
  0
POINT
  8
2
 10
54.3939
 20
60.0005
  0
TEXT
  8
2
 10
54.3939
 20
60.0005
 40
0.1000
 50
0.0000
  1
# 21
  0
POINT
  8
2
 10
40.2509
 20
409.1103
  0
TEXT
  8
2
 10
40.2509
 20
409.1103
 40
0.1000
 50
0.0000
  1
# 22
  0
POINT
  8
3
 10
44.9811
 20
411.7188
  0
POINT
  8
3
 10
49.4574
 20
414.6798
  0
POINT
  8
3
 10
53.6920
 20
418.0019
  0
POINT
  8
3
 10
57.6508
 20
421.6500
  0
POINT
  8
3
 10
61.3031
 20
425.6001
  0
POINT
  8
3
 10
64.6576
 20
429.8110
  0
POINT
  8
3
 10
67.7179
 20
434.2380
  0
POINT
  8
3
 10
70.4803
 20
438.8595
  0
POINT
  8
3
 10
72.9327
 20
443.6491
  0
POINT
  8
3
 10
75.1093
 20
448.5745
  0
POINT
  8
3
 10
77.0319
 20
453.6012
  0
POINT
  8
3
 10
78.7347
 20
458.7100
  0
POINT
  8
3
 10
81.6107
 20
469.0835
  0
POINT
  8
3
 10
83.9008
 20
479.6035
  0
POINT
  8
3
 10
85.7001
 20
490.2187
  0
POINT
  8
3
 10
87.1234
 20
500.8914
  0
POINT
  8
3
 10
88.1927
 20
511.6049
  0
POINT
  8
3
 10
88.9618
 20
522.3446
  0
POINT
  8
4
 10
89.2573
 20
528.1246
 38
9.9996
 50
357.5745
  0
TEXT
  8
4
 10
89.2573
 20
528.1246
 40
0.1000
 50
0.0000
  1
# 23
  0
POINT
  8
3
 10
89.2573
 20
528.1246
  0
POINT
  8
3
 10
89.4379
 20
533.1014
  0
POINT
  8
4
 10
89.5420
 20
538.1202
 38
9.9999
 50
359.2293
  0
TEXT
  8
4
 10
89.5420
 20
538.1202
 40
0.1000
 50
0.0000
  1
# 24
  0
POINT
  8
3
 10
89.5420
 20
538.1202
  0
POINT
  8
2
 10
89.5691
 20
543.8674
  0
TEXT
  8
2
 10
89.5691
 20
543.8674
 40
0.1000
 50
0.0000
  1
# 25
  0
POINT
  8
3
 10
89.0698
 20
560.1781
  0
POINT
  8
3
 10
88.0475
 20
576.4642
  0
POINT
  8
3
 10
86.3763
 20
592.6962
  0
POINT
  8
3
 10
83.9111
 20
608.8259
  0
POINT
  8
3
 10
80.8240
 20
624.8498
  0
POINT
  8
3
 10
77.3175
 20
640.7874
  0
POINT
  8
3
 10
73.3905
 20
656.6261
  0
POINT
  8
3
 10
68.9789
 20
672.3367
  0
POINT
  8
2
 10
64.0533
 20
687.8946
  0
TEXT
  8
2
 10
64.0533
 20
687.8946
 40
0.1000
 50
0.0000
  1
# 26
  0
POINT
  8
2
 10
226.7529
 20
734.1264
  0
TEXT
  8
2
 10
226.7529
 20
734.1264
 40
0.1000
 50
0.0000
  1
# 27
  0
POINT
  8
3
 10
229.4543
 20
729.9911
  0
POINT
  8
3
 10
232.3871
 20
726.0376
  0
POINT
  8
3
 10
235.5542
 20
722.2591
  0
POINT
  8
3
 10
238.9404
 20
718.6745
  0
POINT
  8
3
 10
242.5323
 20
715.2965
  0
POINT
  8
3
 10
246.3147
 20
712.1330
  0
POINT
  8
3
 10
250.2728
 20
709.1927
  0
POINT
  8
3
 10
254.3909
 20
706.4795
  0
POINT
  8
3
 10
258.6505
 20
703.9961
  0
POINT
  8
3
 10
263.0408
 20
701.7502
  0
POINT
  8
3
 10
267.5470
 20
699.7483
  0
POINT
  8
3
 10
272.1552
 20
697.9926
  0
POINT
  8
3
 10
276.8524
 20
696.4979
  0
POINT
  8
3
 10
281.6174
 20
695.2269
  0
POINT
  8
3
 10
291.2799
 20
693.2546
  0
POINT
  8
3
 10
301.0382
 20
691.8236
  0
POINT
  8
3
 10
310.8490
 20
690.8151
  0
POINT
  8
3
 10
320.6836
 20
690.0662
  0
POINT
  8
3
 10
330.5322
 20
689.5371
  0
POINT
  8
3
 10
340.3912
 20
689.2548
  0
POINT
  8
2
 10
350.2533
 20
689.1263
  0
TEXT
  8
2
 10
350.2533
 20
689.1263
 40
0.1000
 50
0.0000
  1
# 28
  0
POINT
  8
3
 10
360.1154
 20
689.2548
  0
POINT
  8
3
 10
369.9744
 20
689.5371
  0
POINT
  8
3
 10
379.8230
 20
690.0662
  0
POINT
  8
3
 10
389.6576
 20
690.8151
  0
POINT
  8
3
 10
399.4684
 20
691.8236
  0
POINT
  8
3
 10
409.2267
 20
693.2546
  0
POINT
  8
3
 10
418.8892
 20
695.2269
  0
POINT
  8
3
 10
423.6542
 20
696.4979
  0
POINT
  8
3
 10
428.3514
 20
697.9926
  0
POINT
  8
3
 10
432.9596
 20
699.7483
  0
POINT
  8
3
 10
437.4658
 20
701.7502
  0
POINT
  8
3
 10
441.8561
 20
703.9961
  0
POINT
  8
3
 10
446.1157
 20
706.4795
  0
POINT
  8
3
 10
450.2338
 20
709.1927
  0
POINT
  8
3
 10
454.1919
 20
712.1330
  0
POINT
  8
3
 10
457.9742
 20
715.2965
  0
POINT
  8
3
 10
461.5662
 20
718.6745
  0
POINT
  8
3
 10
464.9524
 20
722.2591
  0
POINT
  8
3
 10
468.1195
 20
726.0376
  0
POINT
  8
3
 10
471.0522
 20
729.9911
  0
POINT
  8
2
 10
473.7537
 20
734.1264
  0
TEXT
  8
2
 10
473.7537
 20
734.1264
 40
0.1000
 50
0.0000
  1
# 29
  0
POINT
  8
2
 10
636.4539
 20
687.8938
  0
TEXT
  8
2
 10
636.4539
 20
687.8938
 40
0.1000
 50
0.0000
  1
# 30
  0
POINT
  8
3
 10
631.5277
 20
672.3367
  0
POINT
  8
3
 10
627.1161
 20
656.6261
  0
POINT
  8
3
 10
623.1891
 20
640.7874
  0
POINT
  8
3
 10
619.6826
 20
624.8498
  0
POINT
  8
3
 10
616.5955
 20
608.8259
  0
POINT
  8
3
 10
614.1302
 20
592.6962
  0
POINT
  8
3
 10
612.4591
 20
576.4642
  0
POINT
  8
3
 10
611.4368
 20
560.1781
  0
POINT
  8
2
 10
610.9369
 20
543.8674
  0
TEXT
  8
2
 10
610.9369
 20
543.8674
 40
0.1000
 50
0.0000
  1
# 31
  0
POINT
  8
4
 10
610.9646
 20
538.1202
 38
9.9999
 50
180.7707
  0
TEXT
  8
4
 10
610.9646
 20
538.1202
 40
0.1000
 50
0.0000
  1
# 32
  0
POINT
  8
3
 10
610.9646
 20
538.1202
  0
POINT
  8
3
 10
611.0687
 20
533.1014
  0
POINT
  8
4
 10
611.2493
 20
528.1246
 38
9.9997
 50
182.4255
  0
TEXT
  8
4
 10
611.2493
 20
528.1246
 40
0.1000
 50
0.0000
  1
# 33
  0
POINT
  8
3
 10
611.2493
 20
528.1246
  0
POINT
  8
3
 10
611.5448
 20
522.3446
  0
POINT
  8
3
 10
612.3138
 20
511.6049
  0
POINT
  8
3
 10
613.3832
 20
500.8914
  0
POINT
  8
3
 10
614.8065
 20
490.2187
  0
POINT
  8
3
 10
616.6058
 20
479.6035
  0
POINT
  8
3
 10
618.8959
 20
469.0835
  0
POINT
  8
3
 10
621.7718
 20
458.7100
  0
POINT
  8
3
 10
623.4747
 20
453.6012
  0
POINT
  8
3
 10
625.3973
 20
448.5745
  0
POINT
  8
3
 10
627.5739
 20
443.6491
  0
POINT
  8
3
 10
630.0262
 20
438.8595
  0
POINT
  8
3
 10
632.7887
 20
434.2380
  0
POINT
  8
3
 10
635.8490
 20
429.8110
  0
POINT
  8
3
 10
639.2035
 20
425.6001
  0
POINT
  8
3
 10
642.8558
 20
421.6500
  0
POINT
  8
3
 10
646.8146
 20
418.0019
  0
POINT
  8
3
 10
651.0492
 20
414.6798
  0
POINT
  8
3
 10
655.5255
 20
411.7188
  0
POINT
  8
2
 10
660.2557
 20
409.1103
  0
TEXT
  8
2
 10
660.2557
 20
409.1103
 40
0.1000
 50
0.0000
  1
# 34
  0
POINT
  8
2
 10
646.1127
 20
60.0005
  0
TEXT
  8
2
 10
646.1127
 20
60.0005
 40
0.1000
 50
0.0000
  1
# 35
  0
POINT
  8
2
 10
646.1127
 20
30.0005
  0
TEXT
  8
2
 10
646.1127
 20
30.0005
 40
0.1000
 50
0.0000
  1
# 36
  0
POINT
  8
2
 10
350.2533
 20
30.0005
  0
TEXT
  8
2
 10
350.2533
 20
30.0005
 40
0.1000
 50
0.0000
  1
# 37
  0
POINT
  8
2
 10
54.3939
 20
30.0005
  0
LINE
  8
7
 10
350.2533
 20
184.1548
 11
350.2533
 21
604.1548
  0
POINT
  8
2
 10
350.2533
 20
184.1548
  0
TEXT
  8
2
 10
350.2533
 20
184.1548
 40
0.1000
 50
0.0000
  1
# 39
  0
POINT
  8
2
 10
350.2533
 20
604.1548
  0
TEXT
  8
2
 10
350.2533
 20
604.1548
 40
0.1000
 50
0.0000
  1
# 40
  0
LINE
  8
5
 10
350.2533
 20
184.1548
 11
350.2533
 21
604.1548
  0
LINE
  8
8
 10
54.3939
 20
60.0010
 11
350.2533
 21
60.0000
  0
POINT
  8
2
 10
54.3939
 20
60.0010
  0
TEXT
  8
2
 10
54.3939
 20
60.0010
 40
0.1000
 50
0.0000
  1
# 41
  0
POINT
  8
2
 10
350.2533
 20
60.0000
  0
TEXT
  8
2
 10
350.2533
 20
60.0000
 40
0.1000
 50
0.0000
  1
# 42
  0
LINE
  8
8
 10
350.2533
 20
29.9995
 11
350.2533
 21
60.0005
  0
POINT
  8
2
 10
350.2533
 20
29.9995
  0
TEXT
  8
2
 10
350.2533
 20
29.9995
 40
0.1000
 50
0.0000
  1
# 43
  0
POINT
  8
2
 10
350.2533
 20
60.0005
  0
TEXT
  8
2
 10
350.2533
 20
60.0005
 40
0.1000
 50
0.0000
  1
# 44
  0
LINE
  8
8
 10
646.1127
 20
60.0010
 11
350.2533
 21
59.9995
  0
POINT
  8
2
 10
646.1127
 20
60.0010
  0
TEXT
  8
2
 10
646.1127
 20
60.0010
 40
0.1000
 50
0.0000
  1
# 45
  0
POINT
  8
2
 10
350.2533
 20
59.9995
  0
TEXT
  8
2
 10
350.2533
 20
59.9995
 40
0.1000
 50
0.0000
  1
# 46
  0
LINE
  8
8
 10
660.2557
 20
409.1108
 11
350.2533
 21
409.1103
  0
POINT
  8
2
 10
660.2557
 20
409.1108
  0
TEXT
  8
2
 10
660.2557
 20
409.1108
 40
0.1000
 50
0.0000
  1
# 47
  0
POINT
  8
2
 10
350.2533
 20
409.1103
  0
TEXT
  8
2
 10
350.2533
 20
409.1103
 40
0.1000
 50
0.0000
  1
# 48
  0
LINE
  8
8
 10
646.1127
 20
90.0005
 11
350.2533
 21
90.0000
  0
POINT
  8
2
 10
646.1127
 20
90.0005
  0
TEXT
  8
2
 10
646.1127
 20
90.0005
 40
0.1000
 50
0.0000
  1
# 49
  0
POINT
  8
2
 10
350.2533
 20
90.0000
  0
TEXT
  8
2
 10
350.2533
 20
90.0000
 40
0.1000
 50
0.0000
  1
# 50
  0
LINE
  8
8
 10
350.2533
 20
689.1268
 11
350.2538
 21
59.9999
  0
POINT
  8
2
 10
350.2533
 20
689.1268
  0
TEXT
  8
2
 10
350.2533
 20
689.1268
 40
0.1000
 50
0.0000
  1
# 51
  0
POINT
  8
2
 10
350.2538
 20
59.9999
  0
TEXT
  8
2
 10
350.2538
 20
59.9999
 40
0.1000
 50
0.0000
  1
# 52
  0
LINE
  8
8
 10
40.2509
 20
409.1108
 11
350.2533
 21
409.1108
  0
POINT
  8
2
 10
40.2509
 20
409.1108
  0
TEXT
  8
2
 10
40.2509
 20
409.1108
 40
0.1000
 50
0.0000
  1
# 53
  0
POINT
  8
2
 10
350.2533
 20
409.1108
  0
TEXT
  8
2
 10
350.2533
 20
409.1108
 40
0.1000
 50
0.0000
  1
# 54
  0
LINE
  8
8
 10
54.3939
 20
90.0005
 11
350.2533
 21
90.0005
  0
POINT
  8
2
 10
54.3939
 20
90.0005
  0
TEXT
  8
2
 10
54.3939
 20
90.0005
 40
0.1000
 50
0.0000
  1
# 55
  0
POINT
  8
2
 10
350.2533
 20
90.0005
  0
TEXT
  8
2
 10
350.2533
 20
90.0005
 40
0.1000
 50
0.0000
  1
# 56
  0
POLYLINE
  8
8
 66
1
 70
0
  0
VERTEX
  8
8
 10
76.5485
 20
77.8051
  0
VERTEX
  8
8
 10
85.3918
 20
73.9737
  0
VERTEX
  8
8
 10
94.2352
 20
72.8052
  0
VERTEX
  8
8
 10
111.9232
 20
77.8052
  0
VERTEX
  8
8
 10
129.6100
 20
72.8052
  0
VERTEX
  8
8
 10
147.2980
 20
77.8053
  0
VERTEX
  8
8
 10
164.9847
 20
72.8053
  0
VERTEX
  8
8
 10
182.6727
 20
77.8053
  0
VERTEX
  8
8
 10
200.3595
 20
72.8054
  0
VERTEX
  8
8
 10
218.0475
 20
77.8054
  0
VERTEX
  8
8
 10
235.7349
 20
72.8054
  0
VERTEX
  8
8
 10
253.4222
 20
77.8055
  0
VERTEX
  8
8
 10
271.1096
 20
72.8055
  0
VERTEX
  8
8
 10
288.7970
 20
77.8055
  0
VERTEX
  8
8
 10
306.4844
 20
72.8056
  0
VERTEX
  8
8
 10
315.3278
 20
73.9742
  0
VERTEX
  8
8
 10
324.1718
 20
77.8056
  0
SEQEND
  0
POINT
  8
2
 10
76.5485
 20
77.8051
  0
TEXT
  8
2
 10
76.5485
 20
77.8051
 40
0.1000
 50
0.0000
  1
# 57
  0
POINT
  8
3
 10
85.3918
 20
73.9737
  0
POINT
  8
3
 10
94.2352
 20
72.8052
  0
POINT
  8
3
 10
111.9232
 20
77.8052
  0
POINT
  8
3
 10
129.6100
 20
72.8052
  0
POINT
  8
3
 10
147.2980
 20
77.8053
  0
POINT
  8
3
 10
164.9847
 20
72.8053
  0
POINT
  8
3
 10
182.6727
 20
77.8053
  0
POINT
  8
3
 10
200.3595
 20
72.8054
  0
POINT
  8
3
 10
218.0475
 20
77.8054
  0
POINT
  8
3
 10
235.7349
 20
72.8054
  0
POINT
  8
3
 10
253.4222
 20
77.8055
  0
POINT
  8
3
 10
271.1096
 20
72.8055
  0
POINT
  8
3
 10
288.7970
 20
77.8055
  0
POINT
  8
3
 10
306.4844
 20
72.8056
  0
POINT
  8
3
 10
315.3278
 20
73.9742
  0
POINT
  8
2
 10
324.1718
 20
77.8056
  0
TEXT
  8
2
 10
324.1718
 20
77.8056
 40
0.1000
 50
0.0000
  1
# 58
  0
POLYLINE
  8
8
 66
1
 70
0
  0
VERTEX
  8
8
 10
623.9581
 20
77.8051
  0
VERTEX
  8
8
 10
615.1147
 20
73.9737
  0
VERTEX
  8
8
 10
606.2714
 20
72.8052
  0
VERTEX
  8
8
 10
588.5834
 20
77.8052
  0
VERTEX
  8
8
 10
570.8966
 20
72.8052
  0
VERTEX
  8
8
 10
553.2086
 20
77.8053
  0
VERTEX
  8
8
 10
535.5218
 20
72.8053
  0
VERTEX
  8
8
 10
517.8339
 20
77.8053
  0
VERTEX
  8
8
 10
500.1471
 20
72.8054
  0
VERTEX
  8
8
 10
482.4591
 20
77.8054
  0
VERTEX
  8
8
 10
464.7717
 20
72.8054
  0
VERTEX
  8
8
 10
447.0843
 20
77.8055
  0
VERTEX
  8
8
 10
429.3970
 20
72.8055
  0
VERTEX
  8
8
 10
411.7096
 20
77.8055
  0
VERTEX
  8
8
 10
394.0222
 20
72.8056
  0
VERTEX
  8
8
 10
385.1788
 20
73.9742
  0
VERTEX
  8
8
 10
376.3348
 20
77.8056
  0
SEQEND
  0
POINT
  8
2
 10
623.9581
 20
77.8051
  0
TEXT
  8
2
 10
623.9581
 20
77.8051
 40
0.1000
 50
0.0000
  1
# 59
  0
POINT
  8
3
 10
615.1147
 20
73.9737
  0
POINT
  8
3
 10
606.2714
 20
72.8052
  0
POINT
  8
3
 10
588.5834
 20
77.8052
  0
POINT
  8
3
 10
570.8966
 20
72.8052
  0
POINT
  8
3
 10
553.2086
 20
77.8053
  0
POINT
  8
3
 10
535.5218
 20
72.8053
  0
POINT
  8
3
 10
517.8339
 20
77.8053
  0
POINT
  8
3
 10
500.1471
 20
72.8054
  0
POINT
  8
3
 10
482.4591
 20
77.8054
  0
POINT
  8
3
 10
464.7717
 20
72.8054
  0
POINT
  8
3
 10
447.0843
 20
77.8055
  0
POINT
  8
3
 10
429.3970
 20
72.8055
  0
POINT
  8
3
 10
411.7096
 20
77.8055
  0
POINT
  8
3
 10
394.0222
 20
72.8056
  0
POINT
  8
3
 10
385.1788
 20
73.9742
  0
POINT
  8
2
 10
376.3348
 20
77.8056
  0
TEXT
  8
2
 10
376.3348
 20
77.8056
 40
0.1000
 50
0.0000
  1
# 60
  0
ENDBLK
  0
BLOCK
  8
0
  2
BLK_2_1
 70
64
 10
0.0000
 20
0.0000
  0
TEXT
  8
1
 10
350.2906
 20
381.1002
 40
2.8000
 50
0.0000
  1
PIECE NAME: 2
  7
STANDARD
  0
TEXT
  8
1
 10
350.2906
 20
378.3002
 40
2.8000
 50
0.0000
  1
SIZE: F
  7
STANDARD
  0
TEXT
  8
1
 10
350.2906
 20
375.5002
 40
2.8000
 50
0.0000
  1
CATEGORY: 
  7
STANDARD
  0
TEXT
  8
1
 10
350.2906
 20
372.7002
 40
2.8000
 50
0.0000
  1
QUANTITY: 1
  7
STANDARD
  0
TEXT
  8
1
 10
350.2906
 20
369.9002
 40
2.8000
 50
0.0000
  1
ANNOTATION: 
  7
STANDARD
  0
POLYLINE
  8
1
 66
1
 70
1
  0
VERTEX
  8
1
 10
44.4336
 20
30.0000
  0
VERTEX
  8
1
 10
44.4336
 20
59.7988
  0
VERTEX
  8
1
 10
30.0000
 20
416.1415
  0
VERTEX
  8
1
 10
37.0371
 20
418.5647
  0
VERTEX
  8
1
 10
43.5441
 20
421.1366
  0
VERTEX
  8
1
 10
49.6204
 20
424.3004
  0
VERTEX
  8
1
 10
55.2228
 20
428.1491
  0
VERTEX
  8
1
 10
60.4639
 20
432.6349
  0
VERTEX
  8
1
 10
65.1084
 20
437.6266
  0
VERTEX
  8
1
 10
69.1559
 20
443.1388
  0
VERTEX
  8
1
 10
72.7256
 20
449.2000
  0
VERTEX
  8
1
 10
75.7529
 20
455.5840
  0
VERTEX
  8
1
 10
78.3091
 20
462.3405
  0
VERTEX
  8
1
 10
80.4133
 20
469.3410
  0
VERTEX
  8
1
 10
82.1308
 20
476.6037
  0
VERTEX
  8
1
 10
83.4757
 20
483.9803
  0
VERTEX
  8
1
 10
84.5011
 20
491.4150
  0
VERTEX
  8
1
 10
85.2781
 20
499.0576
  0
VERTEX
  8
1
 10
85.7950
 20
506.7124
  0
VERTEX
  8
1
 10
85.8152
 20
507.1227
  0
VERTEX
  8
1
 10
86.0868
 20
514.4449
  0
VERTEX
  8
1
 10
86.1390
 20
522.1956
  0
VERTEX
  8
1
 10
85.9769
 20
529.9457
  0
VERTEX
  8
1
 10
85.0788
 20
545.5030
  0
VERTEX
  8
1
 10
83.5846
 20
561.1259
  0
VERTEX
  8
1
 10
81.5708
 20
576.8351
  0
VERTEX
  8
1
 10
79.1413
 20
592.2958
  0
VERTEX
  8
1
 10
76.2778
 20
607.9004
  0
VERTEX
  8
1
 10
72.9734
 20
623.2706
  0
VERTEX
  8
1
 10
69.1395
 20
638.4812
  0
VERTEX
  8
1
 10
66.7328
 20
647.4414
  0
VERTEX
  8
1
 10
244.7016
 20
709.8003
  0
VERTEX
  8
1
 10
247.9935
 20
700.3330
  0
VERTEX
  8
1
 10
249.6039
 20
695.9537
  0
VERTEX
  8
1
 10
251.4173
 20
691.6658
  0
VERTEX
  8
1
 10
253.4223
 20
687.4925
  0
VERTEX
  8
1
 10
255.6244
 20
683.4197
  0
VERTEX
  8
1
 10
258.0079
 20
679.4690
  0
VERTEX
  8
1
 10
260.5781
 20
675.6375
  0
VERTEX
  8
1
 10
263.3466
 20
671.9081
  0
VERTEX
  8
1
 10
266.2949
 20
668.3192
  0
VERTEX
  8
1
 10
269.3714
 20
664.9347
  0
VERTEX
  8
1
 10
272.6191
 20
661.7143
  0
VERTEX
  8
1
 10
276.0663
 20
658.6444
  0
VERTEX
  8
1
 10
279.6653
 20
655.7517
  0
VERTEX
  8
1
 10
283.3915
 20
653.0389
  0
VERTEX
  8
1
 10
287.2452
 20
650.5107
  0
VERTEX
  8
1
 10
291.2424
 20
648.1577
  0
VERTEX
  8
1
 10
295.3479
 20
645.9981
  0
VERTEX
  8
1
 10
299.5575
 20
644.0324
  0
VERTEX
  8
1
 10
303.8541
 20
642.2625
  0
VERTEX
  8
1
 10
308.2480
 20
640.6785
  0
VERTEX
  8
1
 10
312.7076
 20
639.2876
  0
VERTEX
  8
1
 10
321.9111
 20
637.0355
  0
VERTEX
  8
1
 10
331.3050
 20
635.3419
  0
VERTEX
  8
1
 10
340.7197
 20
634.3886
  0
VERTEX
  8
1
 10
350.2509
 20
634.1253
  0
VERTEX
  8
1
 10
359.8700
 20
634.3891
  0
VERTEX
  8
1
 10
369.2658
 20
635.3403
  0
VERTEX
  8
1
 10
378.6457
 20
637.0301
  0
VERTEX
  8
1
 10
387.8821
 20
639.2898
  0
VERTEX
  8
1
 10
392.3481
 20
640.6832
  0
VERTEX
  8
1
 10
396.7481
 20
642.2699
  0
VERTEX
  8
1
 10
401.0309
 20
644.0344
  0
VERTEX
  8
1
 10
405.2265
 20
645.9944
  0
VERTEX
  8
1
 10
409.3342
 20
648.1549
  0
VERTEX
  8
1
 10
413.3338
 20
650.5088
  0
VERTEX
  8
1
 10
417.2022
 20
653.0479
  0
VERTEX
  8
1
 10
420.9430
 20
655.7714
  0
VERTEX
  8
1
 10
424.5044
 20
658.6322
  0
VERTEX
  8
1
 10
427.9157
 20
661.6698
  0
VERTEX
  8
1
 10
431.1927
 20
664.9187
  0
VERTEX
  8
1
 10
434.2981
 20
668.3316
  0
VERTEX
  8
1
 10
437.2327
 20
671.9029
  0
VERTEX
  8
1
 10
439.9885
 20
675.6149
  0
VERTEX
  8
1
 10
442.5635
 20
679.4526
  0
VERTEX
  8
1
 10
444.9518
 20
683.4094
  0
VERTEX
  8
1
 10
447.1570
 20
687.4876
  0
VERTEX
  8
1
 10
449.1651
 20
691.6664
  0
VERTEX
  8
1
 10
450.5451
 20
694.8749
  0
VERTEX
  8
1
 10
452.5898
 20
700.3353
  0
VERTEX
  8
1
 10
455.8802
 20
709.7997
  0
VERTEX
  8
1
 10
633.8526
 20
647.4401
  0
VERTEX
  8
1
 10
631.4429
 20
638.4812
  0
VERTEX
  8
1
 10
627.6331
 20
623.3760
  0
VERTEX
  8
1
 10
624.3195
 20
607.9758
  0
VERTEX
  8
1
 10
621.4460
 20
592.3249
  0
VERTEX
  8
1
 10
619.0058
 20
576.7961
  0
VERTEX
  8
1
 10
617.0038
 20
561.1776
  0
VERTEX
  8
1
 10
615.5005
 20
545.4600
  0
VERTEX
  8
1
 10
614.6045
 20
529.9131
  0
VERTEX
  8
1
 10
614.4434
 20
522.1655
  0
VERTEX
  8
1
 10
614.4959
 20
514.4174
  0
VERTEX
  8
1
 10
614.7662
 20
507.1230
  0
VERTEX
  8
1
 10
614.7870
 20
506.6986
  0
VERTEX
  8
1
 10
615.3095
 20
498.9873
  0
VERTEX
  8
1
 10
616.0822
 20
491.4043
  0
VERTEX
  8
1
 10
617.0978
 20
484.0371
  0
VERTEX
  8
1
 10
618.4729
 20
476.5033
  0
VERTEX
  8
1
 10
620.1551
 20
469.3952
  0
VERTEX
  8
1
 10
622.2590
 20
462.3841
  0
VERTEX
  8
1
 10
624.8041
 20
455.6442
  0
VERTEX
  8
1
 10
627.8760
 20
449.1627
  0
VERTEX
  8
1
 10
631.4209
 20
443.1461
  0
VERTEX
  8
1
 10
635.4865
 20
437.6114
  0
VERTEX
  8
1
 10
640.1215
 20
432.6324
  0
VERTEX
  8
1
 10
645.3565
 20
428.1515
  0
VERTEX
  8
1
 10
650.9711
 20
424.2950
  0
VERTEX
  8
1
 10
657.0368
 20
421.1372
  0
VERTEX
  8
1
 10
663.5462
 20
418.5642
  0
VERTEX
  8
1
 10
670.5823
 20
416.1407
  0
VERTEX
  8
1
 10
656.1487
 20
59.7913
  0
VERTEX
  8
1
 10
656.1487
 20
30.0000
  0
VERTEX
  8
1
 10
350.2912
 20
30.0000
  0
VERTEX
  8
1
 10
44.4336
 20
30.0000
  0
SEQEND
  0
POINT
  8
2
 10
44.4336
 20
30.0000
  0
TEXT
  8
2
 10
44.4336
 20
30.0000
 40
0.1000
 50
0.0000
  1
# 1
  0
POINT
  8
2
 10
44.4336
 20
59.7988
  0
TEXT
  8
2
 10
44.4336
 20
59.7988
 40
0.1000
 50
0.0000
  1
# 2
  0
POINT
  8
2
 10
30.0000
 20
416.1415
  0
TEXT
  8
2
 10
30.0000
 20
416.1415
 40
0.1000
 50
0.0000
  1
# 3
  0
POINT
  8
3
 10
37.0371
 20
418.5647
  0
POINT
  8
3
 10
43.5441
 20
421.1366
  0
POINT
  8
3
 10
49.6204
 20
424.3004
  0
POINT
  8
3
 10
55.2228
 20
428.1491
  0
POINT
  8
3
 10
60.4639
 20
432.6349
  0
POINT
  8
3
 10
65.1084
 20
437.6266
  0
POINT
  8
3
 10
69.1559
 20
443.1388
  0
POINT
  8
3
 10
72.7256
 20
449.2000
  0
POINT
  8
3
 10
75.7529
 20
455.5840
  0
POINT
  8
3
 10
78.3091
 20
462.3405
  0
POINT
  8
3
 10
80.4133
 20
469.3410
  0
POINT
  8
3
 10
82.1308
 20
476.6037
  0
POINT
  8
3
 10
83.4757
 20
483.9803
  0
POINT
  8
3
 10
84.5011
 20
491.4150
  0
POINT
  8
2
 10
85.2781
 20
499.0576
  0
TEXT
  8
2
 10
85.2781
 20
499.0576
 40
0.1000
 50
0.0000
  1
# 4
  0
POINT
  8
3
 10
85.7950
 20
506.7124
  0
POINT
  8
4
 10
85.8152
 20
507.1227
 38
5.0000
 50
357.2052
  0
TEXT
  8
4
 10
85.8152
 20
507.1227
 40
0.1000
 50
0.0000
  1
# 5
  0
POINT
  8
3
 10
85.8152
 20
507.1227
  0
POINT
  8
3
 10
86.0868
 20
514.4449
  0
POINT
  8
3
 10
86.1390
 20
522.1956
  0
POINT
  8
3
 10
85.9769
 20
529.9457
  0
POINT
  8
3
 10
85.0788
 20
545.5030
  0
POINT
  8
3
 10
83.5846
 20
561.1259
  0
POINT
  8
3
 10
81.5708
 20
576.8351
  0
POINT
  8
3
 10
79.1413
 20
592.2958
  0
POINT
  8
3
 10
76.2778
 20
607.9004
  0
POINT
  8
3
 10
72.9734
 20
623.2706
  0
POINT
  8
3
 10
69.1395
 20
638.4812
  0
POINT
  8
2
 10
66.7328
 20
647.4414
  0
TEXT
  8
2
 10
66.7328
 20
647.4414
 40
0.1000
 50
0.0000
  1
# 6
  0
POINT
  8
2
 10
244.7016
 20
709.8003
  0
TEXT
  8
2
 10
244.7016
 20
709.8003
 40
0.1000
 50
0.0000
  1
# 7
  0
POINT
  8
3
 10
247.9935
 20
700.3330
  0
POINT
  8
3
 10
249.6039
 20
695.9537
  0
POINT
  8
3
 10
251.4173
 20
691.6658
  0
POINT
  8
3
 10
253.4223
 20
687.4925
  0
POINT
  8
3
 10
255.6244
 20
683.4197
  0
POINT
  8
3
 10
258.0079
 20
679.4690
  0
POINT
  8
3
 10
260.5781
 20
675.6375
  0
POINT
  8
3
 10
263.3466
 20
671.9081
  0
POINT
  8
3
 10
266.2949
 20
668.3192
  0
POINT
  8
3
 10
269.3714
 20
664.9347
  0
POINT
  8
3
 10
272.6191
 20
661.7143
  0
POINT
  8
3
 10
276.0663
 20
658.6444
  0
POINT
  8
3
 10
279.6653
 20
655.7517
  0
POINT
  8
3
 10
283.3915
 20
653.0389
  0
POINT
  8
3
 10
287.2452
 20
650.5107
  0
POINT
  8
3
 10
291.2424
 20
648.1577
  0
POINT
  8
3
 10
295.3479
 20
645.9981
  0
POINT
  8
3
 10
299.5575
 20
644.0324
  0
POINT
  8
3
 10
303.8541
 20
642.2625
  0
POINT
  8
3
 10
308.2480
 20
640.6785
  0
POINT
  8
3
 10
312.7076
 20
639.2876
  0
POINT
  8
3
 10
321.9111
 20
637.0355
  0
POINT
  8
3
 10
331.3050
 20
635.3419
  0
POINT
  8
3
 10
340.7197
 20
634.3886
  0
POINT
  8
4
 10
350.2509
 20
634.1253
 38
5.0000
 50
270.0000
  0
TEXT
  8
4
 10
350.2509
 20
634.1253
 40
0.1000
 50
0.0000
  1
# 8
  0
POINT
  8
2
 10
350.2509
 20
634.1253
  0
TEXT
  8
2
 10
350.2509
 20
634.1253
 40
0.1000
 50
0.0000
  1
# 8
  0
POINT
  8
3
 10
359.8700
 20
634.3891
  0
POINT
  8
3
 10
369.2658
 20
635.3403
  0
POINT
  8
3
 10
378.6457
 20
637.0301
  0
POINT
  8
3
 10
387.8821
 20
639.2898
  0
POINT
  8
3
 10
392.3481
 20
640.6832
  0
POINT
  8
3
 10
396.7481
 20
642.2699
  0
POINT
  8
3
 10
401.0309
 20
644.0344
  0
POINT
  8
3
 10
405.2265
 20
645.9944
  0
POINT
  8
3
 10
409.3342
 20
648.1549
  0
POINT
  8
3
 10
413.3338
 20
650.5088
  0
POINT
  8
3
 10
417.2022
 20
653.0479
  0
POINT
  8
3
 10
420.9430
 20
655.7714
  0
POINT
  8
3
 10
424.5044
 20
658.6322
  0
POINT
  8
3
 10
427.9157
 20
661.6698
  0
POINT
  8
3
 10
431.1927
 20
664.9187
  0
POINT
  8
3
 10
434.2981
 20
668.3316
  0
POINT
  8
3
 10
437.2327
 20
671.9029
  0
POINT
  8
3
 10
439.9885
 20
675.6149
  0
POINT
  8
3
 10
442.5635
 20
679.4526
  0
POINT
  8
3
 10
444.9518
 20
683.4094
  0
POINT
  8
3
 10
447.1570
 20
687.4876
  0
POINT
  8
3
 10
449.1651
 20
691.6664
  0
POINT
  8
3
 10
450.5451
 20
694.8749
  0
POINT
  8
3
 10
452.5898
 20
700.3353
  0
POINT
  8
2
 10
455.8802
 20
709.7997
  0
TEXT
  8
2
 10
455.8802
 20
709.7997
 40
0.1000
 50
0.0000
  1
# 9
  0
POINT
  8
2
 10
633.8526
 20
647.4401
  0
TEXT
  8
2
 10
633.8526
 20
647.4401
 40
0.1000
 50
0.0000
  1
# 10
  0
POINT
  8
3
 10
631.4429
 20
638.4812
  0
POINT
  8
3
 10
627.6331
 20
623.3760
  0
POINT
  8
3
 10
624.3195
 20
607.9758
  0
POINT
  8
3
 10
621.4460
 20
592.3249
  0
POINT
  8
3
 10
619.0058
 20
576.7961
  0
POINT
  8
3
 10
617.0038
 20
561.1776
  0
POINT
  8
3
 10
615.5005
 20
545.4600
  0
POINT
  8
3
 10
614.6045
 20
529.9131
  0
POINT
  8
3
 10
614.4434
 20
522.1655
  0
POINT
  8
3
 10
614.4959
 20
514.4174
  0
POINT
  8
4
 10
614.7662
 20
507.1230
 38
5.0000
 50
182.7972
  0
TEXT
  8
4
 10
614.7662
 20
507.1230
 40
0.1000
 50
0.0000
  1
# 11
  0
POINT
  8
3
 10
614.7662
 20
507.1230
  0
POINT
  8
3
 10
614.7870
 20
506.6986
  0
POINT
  8
2
 10
615.3095
 20
498.9873
  0
TEXT
  8
2
 10
615.3095
 20
498.9873
 40
0.1000
 50
0.0000
  1
# 12
  0
POINT
  8
3
 10
616.0822
 20
491.4043
  0
POINT
  8
3
 10
617.0978
 20
484.0371
  0
POINT
  8
3
 10
618.4729
 20
476.5033
  0
POINT
  8
3
 10
620.1551
 20
469.3952
  0
POINT
  8
3
 10
622.2590
 20
462.3841
  0
POINT
  8
3
 10
624.8041
 20
455.6442
  0
POINT
  8
3
 10
627.8760
 20
449.1627
  0
POINT
  8
3
 10
631.4209
 20
443.1461
  0
POINT
  8
3
 10
635.4865
 20
437.6114
  0
POINT
  8
3
 10
640.1215
 20
432.6324
  0
POINT
  8
3
 10
645.3565
 20
428.1515
  0
POINT
  8
3
 10
650.9711
 20
424.2950
  0
POINT
  8
3
 10
657.0368
 20
421.1372
  0
POINT
  8
3
 10
663.5462
 20
418.5642
  0
POINT
  8
2
 10
670.5823
 20
416.1407
  0
TEXT
  8
2
 10
670.5823
 20
416.1407
 40
0.1000
 50
0.0000
  1
# 13
  0
POINT
  8
2
 10
656.1487
 20
59.7913
  0
TEXT
  8
2
 10
656.1487
 20
59.7913
 40
0.1000
 50
0.0000
  1
# 14
  0
POINT
  8
2
 10
656.1487
 20
30.0000
  0
TEXT
  8
2
 10
656.1487
 20
30.0000
 40
0.1000
 50
0.0000
  1
# 15
  0
POINT
  8
2
 10
350.2912
 20
30.0000
  0
TEXT
  8
2
 10
350.2912
 20
30.0000
 40
0.1000
 50
0.0000
  1
# 16
  0
POINT
  8
2
 10
44.4336
 20
30.0000
  0
POLYLINE
  8
14
 66
1
 70
1
  0
VERTEX
  8
14
 10
54.4336
 20
30.0000
  0
VERTEX
  8
14
 10
54.4336
 20
60.0000
  0
VERTEX
  8
14
 10
40.2930
 20
409.1094
  0
VERTEX
  8
14
 10
44.0397
 20
410.4811
  0
VERTEX
  8
14
 10
47.7002
 20
412.0410
  0
VERTEX
  8
14
 10
51.2818
 20
413.7821
  0
VERTEX
  8
14
 10
54.7583
 20
415.7208
  0
VERTEX
  8
14
 10
58.1055
 20
417.8800
  0
VERTEX
  8
14
 10
61.3257
 20
420.2270
  0
VERTEX
  8
14
 10
64.4220
 20
422.7344
  0
VERTEX
  8
14
 10
67.3755
 20
425.4077
  0
VERTEX
  8
14
 10
70.1716
 20
428.2443
  0
VERTEX
  8
14
 10
72.8003
 20
431.2359
  0
VERTEX
  8
14
 10
75.2454
 20
434.3796
  0
VERTEX
  8
14
 10
77.5171
 20
437.6525
  0
VERTEX
  8
14
 10
81.5601
 20
444.5141
  0
VERTEX
  8
14
 10
84.9732
 20
451.7120
  0
VERTEX
  8
14
 10
87.7906
 20
459.1619
  0
VERTEX
  8
14
 10
90.0831
 20
466.7919
  0
VERTEX
  8
14
 10
91.9166
 20
474.5446
  0
VERTEX
  8
14
 10
93.3472
 20
482.3815
  0
VERTEX
  8
14
 10
94.4361
 20
490.2746
  0
VERTEX
  8
14
 10
95.2417
 20
498.2006
  0
VERTEX
  8
14
 10
95.7828
 20
506.2100
  0
VERTEX
  8
14
 10
95.8036
 20
506.6350
  0
VERTEX
  8
14
 10
96.0846
 20
514.2248
  0
VERTEX
  8
14
 10
96.1387
 20
522.2481
  0
VERTEX
  8
14
 10
95.9717
 20
530.2708
  0
VERTEX
  8
14
 10
95.0477
 20
546.2914
  0
VERTEX
  8
14
 10
93.5193
 20
562.2664
  0
VERTEX
  8
14
 10
91.4795
 20
578.1840
  0
VERTEX
  8
14
 10
88.9887
 20
594.0378
  0
VERTEX
  8
14
 10
86.0914
 20
609.8221
  0
VERTEX
  8
14
 10
82.7192
 20
625.5117
  0
VERTEX
  8
14
 10
78.7977
 20
641.0725
  0
VERTEX
  8
14
 10
238.5486
 20
697.0476
  0
VERTEX
  8
14
 10
240.3150
 20
692.2484
  0
VERTEX
  8
14
 10
242.3035
 20
687.5495
  0
VERTEX
  8
14
 10
244.5163
 20
682.9450
  0
VERTEX
  8
14
 10
246.9458
 20
678.4513
  0
VERTEX
  8
14
 10
249.5862
 20
674.0780
  0
VERTEX
  8
14
 10
252.4323
 20
669.8363
  0
VERTEX
  8
14
 10
255.4780
 20
665.7349
  0
VERTEX
  8
14
 10
258.7214
 20
661.7887
  0
VERTEX
  8
14
 10
262.1592
 20
658.0100
  0
VERTEX
  8
14
 10
265.7856
 20
654.4130
  0
VERTEX
  8
14
 10
269.5997
 20
651.0156
  0
VERTEX
  8
14
 10
273.5816
 20
647.8148
  0
VERTEX
  8
14
 10
277.7118
 20
644.8088
  0
VERTEX
  8
14
 10
281.9831
 20
642.0070
  0
VERTEX
  8
14
 10
286.3855
 20
639.4161
  0
VERTEX
  8
14
 10
290.9070
 20
637.0383
  0
VERTEX
  8
14
 10
295.5353
 20
634.8773
  0
VERTEX
  8
14
 10
300.2582
 20
632.9310
  0
VERTEX
  8
14
 10
305.0641
 20
631.1994
  0
VERTEX
  8
14
 10
309.9408
 20
629.6778
  0
VERTEX
  8
14
 10
319.8615
 20
627.2477
  0
VERTEX
  8
14
 10
329.9158
 20
625.4387
  0
VERTEX
  8
14
 10
340.0794
 20
624.4090
  0
VERTEX
  8
14
 10
350.2912
 20
624.1250
  0
VERTEX
  8
14
 10
360.5030
 20
624.4090
  0
VERTEX
  8
14
 10
370.6666
 20
625.4387
  0
VERTEX
  8
14
 10
380.7209
 20
627.2477
  0
VERTEX
  8
14
 10
390.6415
 20
629.6778
  0
VERTEX
  8
14
 10
395.5188
 20
631.1994
  0
VERTEX
  8
14
 10
400.3241
 20
632.9310
  0
VERTEX
  8
14
 10
405.0477
 20
634.8773
  0
VERTEX
  8
14
 10
409.6753
 20
637.0383
  0
VERTEX
  8
14
 10
414.1968
 20
639.4161
  0
VERTEX
  8
14
 10
418.5993
 20
642.0070
  0
VERTEX
  8
14
 10
422.8711
 20
644.8088
  0
VERTEX
  8
14
 10
427.0008
 20
647.8148
  0
VERTEX
  8
14
 10
430.9821
 20
651.0156
  0
VERTEX
  8
14
 10
434.7968
 20
654.4130
  0
VERTEX
  8
14
 10
438.4229
 20
658.0100
  0
VERTEX
  8
14
 10
441.8610
 20
661.7887
  0
VERTEX
  8
14
 10
445.1044
 20
665.7349
  0
VERTEX
  8
14
 10
448.1501
 20
669.8363
  0
VERTEX
  8
14
 10
450.9968
 20
674.0780
  0
VERTEX
  8
14
 10
453.6365
 20
678.4513
  0
VERTEX
  8
14
 10
456.0657
 20
682.9450
  0
VERTEX
  8
14
 10
458.2789
 20
687.5495
  0
VERTEX
  8
14
 10
460.2674
 20
692.2484
  0
VERTEX
  8
14
 10
462.0337
 20
697.0476
  0
VERTEX
  8
14
 10
621.7847
 20
641.0729
  0
VERTEX
  8
14
 10
617.8632
 20
625.5117
  0
VERTEX
  8
14
 10
614.4910
 20
609.8221
  0
VERTEX
  8
14
 10
611.5937
 20
594.0378
  0
VERTEX
  8
14
 10
609.1028
 20
578.1840
  0
VERTEX
  8
14
 10
607.0630
 20
562.2664
  0
VERTEX
  8
14
 10
605.5347
 20
546.2914
  0
VERTEX
  8
14
 10
604.6106
 20
530.2708
  0
VERTEX
  8
14
 10
604.4440
 20
522.2481
  0
VERTEX
  8
14
 10
604.4977
 20
514.2248
  0
VERTEX
  8
14
 10
604.7789
 20
506.6351
  0
VERTEX
  8
14
 10
604.7999
 20
506.2100
  0
VERTEX
  8
14
 10
605.3406
 20
498.2006
  0
VERTEX
  8
14
 10
606.1463
 20
490.2746
  0
VERTEX
  8
14
 10
607.2352
 20
482.3815
  0
VERTEX
  8
14
 10
608.6658
 20
474.5446
  0
VERTEX
  8
14
 10
610.4993
 20
466.7919
  0
VERTEX
  8
14
 10
612.7918
 20
459.1619
  0
VERTEX
  8
14
 10
615.6092
 20
451.7120
  0
VERTEX
  8
14
 10
619.0223
 20
444.5141
  0
VERTEX
  8
14
 10
623.0652
 20
437.6525
  0
VERTEX
  8
14
 10
625.3370
 20
434.3796
  0
VERTEX
  8
14
 10
627.7820
 20
431.2359
  0
VERTEX
  8
14
 10
630.4108
 20
428.2443
  0
VERTEX
  8
14
 10
633.2068
 20
425.4077
  0
VERTEX
  8
14
 10
636.1603
 20
422.7344
  0
VERTEX
  8
14
 10
639.2566
 20
420.2270
  0
VERTEX
  8
14
 10
642.4769
 20
417.8800
  0
VERTEX
  8
14
 10
645.8240
 20
415.7208
  0
VERTEX
  8
14
 10
649.3006
 20
413.7821
  0
VERTEX
  8
14
 10
652.8821
 20
412.0410
  0
VERTEX
  8
14
 10
656.5430
 20
410.4811
  0
VERTEX
  8
14
 10
660.2894
 20
409.1094
  0
VERTEX
  8
14
 10
646.1487
 20
60.0000
  0
VERTEX
  8
14
 10
646.1487
 20
30.0000
  0
VERTEX
  8
14
 10
350.2912
 20
30.0005
  0
VERTEX
  8
14
 10
54.4336
 20
30.0000
  0
SEQEND
  0
POINT
  8
2
 10
54.4336
 20
30.0000
  0
TEXT
  8
2
 10
54.4336
 20
30.0000
 40
0.1000
 50
0.0000
  1
# 18
  0
POINT
  8
2
 10
54.4336
 20
60.0000
  0
TEXT
  8
2
 10
54.4336
 20
60.0000
 40
0.1000
 50
0.0000
  1
# 19
  0
POINT
  8
2
 10
40.2930
 20
409.1094
  0
TEXT
  8
2
 10
40.2930
 20
409.1094
 40
0.1000
 50
0.0000
  1
# 20
  0
POINT
  8
3
 10
44.0397
 20
410.4811
  0
POINT
  8
3
 10
47.7002
 20
412.0410
  0
POINT
  8
3
 10
51.2818
 20
413.7821
  0
POINT
  8
3
 10
54.7583
 20
415.7208
  0
POINT
  8
3
 10
58.1055
 20
417.8800
  0
POINT
  8
3
 10
61.3257
 20
420.2270
  0
POINT
  8
3
 10
64.4220
 20
422.7344
  0
POINT
  8
3
 10
67.3755
 20
425.4077
  0
POINT
  8
3
 10
70.1716
 20
428.2443
  0
POINT
  8
3
 10
72.8003
 20
431.2359
  0
POINT
  8
3
 10
75.2454
 20
434.3796
  0
POINT
  8
3
 10
77.5171
 20
437.6525
  0
POINT
  8
3
 10
81.5601
 20
444.5141
  0
POINT
  8
3
 10
84.9732
 20
451.7120
  0
POINT
  8
3
 10
87.7906
 20
459.1619
  0
POINT
  8
3
 10
90.0831
 20
466.7919
  0
POINT
  8
3
 10
91.9166
 20
474.5446
  0
POINT
  8
3
 10
93.3472
 20
482.3815
  0
POINT
  8
3
 10
94.4361
 20
490.2746
  0
POINT
  8
2
 10
95.2417
 20
498.2006
  0
TEXT
  8
2
 10
95.2417
 20
498.2006
 40
0.1000
 50
0.0000
  1
# 21
  0
POINT
  8
3
 10
95.7828
 20
506.2100
  0
POINT
  8
4
 10
95.8036
 20
506.6350
 38
9.9997
 50
357.2056
  0
TEXT
  8
4
 10
95.8036
 20
506.6350
 40
0.1000
 50
0.0000
  1
# 22
  0
POINT
  8
3
 10
95.8036
 20
506.6350
  0
POINT
  8
3
 10
96.0846
 20
514.2248
  0
POINT
  8
3
 10
96.1387
 20
522.2481
  0
POINT
  8
3
 10
95.9717
 20
530.2708
  0
POINT
  8
3
 10
95.0477
 20
546.2914
  0
POINT
  8
3
 10
93.5193
 20
562.2664
  0
POINT
  8
3
 10
91.4795
 20
578.1840
  0
POINT
  8
3
 10
88.9887
 20
594.0378
  0
POINT
  8
3
 10
86.0914
 20
609.8221
  0
POINT
  8
3
 10
82.7192
 20
625.5117
  0
POINT
  8
2
 10
78.7977
 20
641.0725
  0
TEXT
  8
2
 10
78.7977
 20
641.0725
 40
0.1000
 50
0.0000
  1
# 23
  0
POINT
  8
2
 10
238.5486
 20
697.0476
  0
TEXT
  8
2
 10
238.5486
 20
697.0476
 40
0.1000
 50
0.0000
  1
# 24
  0
POINT
  8
3
 10
240.3150
 20
692.2484
  0
POINT
  8
3
 10
242.3035
 20
687.5495
  0
POINT
  8
3
 10
244.5163
 20
682.9450
  0
POINT
  8
3
 10
246.9458
 20
678.4513
  0
POINT
  8
3
 10
249.5862
 20
674.0780
  0
POINT
  8
3
 10
252.4323
 20
669.8363
  0
POINT
  8
3
 10
255.4780
 20
665.7349
  0
POINT
  8
3
 10
258.7214
 20
661.7887
  0
POINT
  8
3
 10
262.1592
 20
658.0100
  0
POINT
  8
3
 10
265.7856
 20
654.4130
  0
POINT
  8
3
 10
269.5997
 20
651.0156
  0
POINT
  8
3
 10
273.5816
 20
647.8148
  0
POINT
  8
3
 10
277.7118
 20
644.8088
  0
POINT
  8
3
 10
281.9831
 20
642.0070
  0
POINT
  8
3
 10
286.3855
 20
639.4161
  0
POINT
  8
3
 10
290.9070
 20
637.0383
  0
POINT
  8
3
 10
295.5353
 20
634.8773
  0
POINT
  8
3
 10
300.2582
 20
632.9310
  0
POINT
  8
3
 10
305.0641
 20
631.1994
  0
POINT
  8
3
 10
309.9408
 20
629.6778
  0
POINT
  8
3
 10
319.8615
 20
627.2477
  0
POINT
  8
3
 10
329.9158
 20
625.4387
  0
POINT
  8
3
 10
340.0794
 20
624.4090
  0
POINT
  8
2
 10
350.2912
 20
624.1250
  0
TEXT
  8
2
 10
350.2912
 20
624.1250
 40
0.1000
 50
0.0000
  1
# 25
  0
POINT
  8
3
 10
360.5030
 20
624.4090
  0
POINT
  8
3
 10
370.6666
 20
625.4387
  0
POINT
  8
3
 10
380.7209
 20
627.2477
  0
POINT
  8
3
 10
390.6415
 20
629.6778
  0
POINT
  8
3
 10
395.5188
 20
631.1994
  0
POINT
  8
3
 10
400.3241
 20
632.9310
  0
POINT
  8
3
 10
405.0477
 20
634.8773
  0
POINT
  8
3
 10
409.6753
 20
637.0383
  0
POINT
  8
3
 10
414.1968
 20
639.4161
  0
POINT
  8
3
 10
418.5993
 20
642.0070
  0
POINT
  8
3
 10
422.8711
 20
644.8088
  0
POINT
  8
3
 10
427.0008
 20
647.8148
  0
POINT
  8
3
 10
430.9821
 20
651.0156
  0
POINT
  8
3
 10
434.7968
 20
654.4130
  0
POINT
  8
3
 10
438.4229
 20
658.0100
  0
POINT
  8
3
 10
441.8610
 20
661.7887
  0
POINT
  8
3
 10
445.1044
 20
665.7349
  0
POINT
  8
3
 10
448.1501
 20
669.8363
  0
POINT
  8
3
 10
450.9968
 20
674.0780
  0
POINT
  8
3
 10
453.6365
 20
678.4513
  0
POINT
  8
3
 10
456.0657
 20
682.9450
  0
POINT
  8
3
 10
458.2789
 20
687.5495
  0
POINT
  8
3
 10
460.2674
 20
692.2484
  0
POINT
  8
2
 10
462.0337
 20
697.0476
  0
TEXT
  8
2
 10
462.0337
 20
697.0476
 40
0.1000
 50
0.0000
  1
# 26
  0
POINT
  8
2
 10
621.7847
 20
641.0729
  0
TEXT
  8
2
 10
621.7847
 20
641.0729
 40
0.1000
 50
0.0000
  1
# 27
  0
POINT
  8
3
 10
617.8632
 20
625.5117
  0
POINT
  8
3
 10
614.4910
 20
609.8221
  0
POINT
  8
3
 10
611.5937
 20
594.0378
  0
POINT
  8
3
 10
609.1028
 20
578.1840
  0
POINT
  8
3
 10
607.0630
 20
562.2664
  0
POINT
  8
3
 10
605.5347
 20
546.2914
  0
POINT
  8
3
 10
604.6106
 20
530.2708
  0
POINT
  8
3
 10
604.4440
 20
522.2481
  0
POINT
  8
3
 10
604.4977
 20
514.2248
  0
POINT
  8
4
 10
604.7789
 20
506.6351
 38
9.9995
 50
182.7967
  0
TEXT
  8
4
 10
604.7789
 20
506.6351
 40
0.1000
 50
0.0000
  1
# 28
  0
POINT
  8
3
 10
604.7789
 20
506.6351
  0
POINT
  8
3
 10
604.7999
 20
506.2100
  0
POINT
  8
2
 10
605.3406
 20
498.2006
  0
TEXT
  8
2
 10
605.3406
 20
498.2006
 40
0.1000
 50
0.0000
  1
# 29
  0
POINT
  8
3
 10
606.1463
 20
490.2746
  0
POINT
  8
3
 10
607.2352
 20
482.3815
  0
POINT
  8
3
 10
608.6658
 20
474.5446
  0
POINT
  8
3
 10
610.4993
 20
466.7919
  0
POINT
  8
3
 10
612.7918
 20
459.1619
  0
POINT
  8
3
 10
615.6092
 20
451.7120
  0
POINT
  8
3
 10
619.0223
 20
444.5141
  0
POINT
  8
3
 10
623.0652
 20
437.6525
  0
POINT
  8
3
 10
625.3370
 20
434.3796
  0
POINT
  8
3
 10
627.7820
 20
431.2359
  0
POINT
  8
3
 10
630.4108
 20
428.2443
  0
POINT
  8
3
 10
633.2068
 20
425.4077
  0
POINT
  8
3
 10
636.1603
 20
422.7344
  0
POINT
  8
3
 10
639.2566
 20
420.2270
  0
POINT
  8
3
 10
642.4769
 20
417.8800
  0
POINT
  8
3
 10
645.8240
 20
415.7208
  0
POINT
  8
3
 10
649.3006
 20
413.7821
  0
POINT
  8
3
 10
652.8821
 20
412.0410
  0
POINT
  8
3
 10
656.5430
 20
410.4811
  0
POINT
  8
2
 10
660.2894
 20
409.1094
  0
TEXT
  8
2
 10
660.2894
 20
409.1094
 40
0.1000
 50
0.0000
  1
# 30
  0
POINT
  8
2
 10
646.1487
 20
60.0000
  0
TEXT
  8
2
 10
646.1487
 20
60.0000
 40
0.1000
 50
0.0000
  1
# 31
  0
POINT
  8
2
 10
646.1487
 20
30.0000
  0
TEXT
  8
2
 10
646.1487
 20
30.0000
 40
0.1000
 50
0.0000
  1
# 32
  0
POINT
  8
2
 10
350.2912
 20
30.0005
  0
TEXT
  8
2
 10
350.2912
 20
30.0005
 40
0.1000
 50
0.0000
  1
# 33
  0
POINT
  8
2
 10
54.4336
 20
30.0000
  0
LINE
  8
7
 10
350.2912
 20
171.6546
 11
350.2912
 21
571.6546
  0
POINT
  8
2
 10
350.2912
 20
171.6546
  0
TEXT
  8
2
 10
350.2912
 20
171.6546
 40
0.1000
 50
0.0000
  1
# 35
  0
POINT
  8
2
 10
350.2912
 20
571.6546
  0
TEXT
  8
2
 10
350.2912
 20
571.6546
 40
0.1000
 50
0.0000
  1
# 36
  0
LINE
  8
5
 10
350.2912
 20
171.6546
 11
350.2912
 21
571.6546
  0
LINE
  8
8
 10
350.2912
 20
60.0009
 11
350.2912
 21
624.1255
  0
POINT
  8
2
 10
350.2912
 20
60.0009
  0
TEXT
  8
2
 10
350.2912
 20
60.0009
 40
0.1000
 50
0.0000
  1
# 37
  0
POINT
  8
2
 10
350.2912
 20
624.1255
  0
TEXT
  8
2
 10
350.2912
 20
624.1255
 40
0.1000
 50
0.0000
  1
# 38
  0
LINE
  8
8
 10
646.1487
 20
60.0005
 11
350.2912
 21
60.0000
  0
POINT
  8
2
 10
646.1487
 20
60.0005
  0
TEXT
  8
2
 10
646.1487
 20
60.0005
 40
0.1000
 50
0.0000
  1
# 39
  0
POINT
  8
2
 10
350.2912
 20
60.0000
  0
TEXT
  8
2
 10
350.2912
 20
60.0000
 40
0.1000
 50
0.0000
  1
# 40
  0
LINE
  8
8
 10
350.2912
 20
59.9995
 11
350.2912
 21
29.9995
  0
POINT
  8
2
 10
350.2912
 20
59.9995
  0
TEXT
  8
2
 10
350.2912
 20
59.9995
 40
0.1000
 50
0.0000
  1
# 41
  0
POINT
  8
2
 10
350.2912
 20
29.9995
  0
TEXT
  8
2
 10
350.2912
 20
29.9995
 40
0.1000
 50
0.0000
  1
# 42
  0
LINE
  8
8
 10
504.4001
 20
139.9211
 11
519.2853
 21
219.9364
  0
POINT
  8
2
 10
504.4001
 20
139.9211
  0
TEXT
  8
2
 10
504.4001
 20
139.9211
 40
0.1000
 50
0.0000
  1
# 43
  0
POINT
  8
2
 10
519.2853
 20
219.9364
  0
TEXT
  8
2
 10
519.2853
 20
219.9364
 40
0.1000
 50
0.0000
  1
# 44
  0
LINE
  8
8
 10
479.5746
 20
350.7752
 11
350.5170
 21
350.7778
  0
POINT
  8
2
 10
479.5746
 20
350.7752
  0
TEXT
  8
2
 10
479.5746
 20
350.7752
 40
0.1000
 50
0.0000
  1
# 45
  0
POINT
  8
2
 10
350.5170
 20
350.7778
  0
TEXT
  8
2
 10
350.5170
 20
350.7778
 40
0.1000
 50
0.0000
  1
# 46
  0
LINE
  8
8
 10
54.4336
 20
60.0005
 11
350.2917
 21
60.0000
  0
POINT
  8
2
 10
54.4336
 20
60.0005
  0
TEXT
  8
2
 10
54.4336
 20
60.0005
 40
0.1000
 50
0.0000
  1
# 47
  0
POINT
  8
2
 10
350.2917
 20
60.0000
  0
TEXT
  8
2
 10
350.2917
 20
60.0000
 40
0.1000
 50
0.0000
  1
# 48
  0
LINE
  8
8
 10
196.1823
 20
139.9211
 11
181.2970
 21
219.9364
  0
POINT
  8
2
 10
196.1823
 20
139.9211
  0
TEXT
  8
2
 10
196.1823
 20
139.9211
 40
0.1000
 50
0.0000
  1
# 49
  0
POINT
  8
2
 10
181.2970
 20
219.9364
  0
TEXT
  8
2
 10
181.2970
 20
219.9364
 40
0.1000
 50
0.0000
  1
# 50
  0
LINE
  8
8
 10
221.0077
 20
350.7752
 11
350.0654
 21
350.7778
  0
POINT
  8
2
 10
221.0077
 20
350.7752
  0
TEXT
  8
2
 10
221.0077
 20
350.7752
 40
0.1000
 50
0.0000
  1
# 51
  0
POINT
  8
2
 10
350.0654
 20
350.7778
  0
TEXT
  8
2
 10
350.0654
 20
350.7778
 40
0.1000
 50
0.0000
  1
# 52
  0
LINE
  8
8
 10
40.2930
 20
409.1099
 11
350.2912
 21
409.1094
  0
POINT
  8
2
 10
40.2930
 20
409.1099
  0
TEXT
  8
2
 10
40.2930
 20
409.1099
 40
0.1000
 50
0.0000
  1
# 53
  0
POINT
  8
2
 10
350.2912
 20
409.1094
  0
TEXT
  8
2
 10
350.2912
 20
409.1094
 40
0.1000
 50
0.0000
  1
# 54
  0
LINE
  8
8
 10
54.4336
 20
90.0000
 11
350.2912
 21
90.0000
  0
POINT
  8
2
 10
54.4336
 20
90.0000
  0
TEXT
  8
2
 10
54.4336
 20
90.0000
 40
0.1000
 50
0.0000
  1
# 55
  0
POINT
  8
2
 10
350.2912
 20
90.0000
  0
TEXT
  8
2
 10
350.2912
 20
90.0000
 40
0.1000
 50
0.0000
  1
# 56
  0
LINE
  8
8
 10
660.2894
 20
409.1099
 11
350.2912
 21
409.1099
  0
POINT
  8
2
 10
660.2894
 20
409.1099
  0
TEXT
  8
2
 10
660.2894
 20
409.1099
 40
0.1000
 50
0.0000
  1
# 57
  0
POINT
  8
2
 10
350.2912
 20
409.1099
  0
TEXT
  8
2
 10
350.2912
 20
409.1099
 40
0.1000
 50
0.0000
  1
# 58
  0
LINE
  8
8
 10
646.1487
 20
90.0000
 11
350.2912
 21
90.0005
  0
POINT
  8
2
 10
646.1487
 20
90.0000
  0
TEXT
  8
2
 10
646.1487
 20
90.0000
 40
0.1000
 50
0.0000
  1
# 59
  0
POINT
  8
2
 10
350.2912
 20
90.0005
  0
TEXT
  8
2
 10
350.2912
 20
90.0005
 40
0.1000
 50
0.0000
  1
# 60
  0
POLYLINE
  8
8
 66
1
 70
0
  0
VERTEX
  8
8
 10
519.2853
 20
219.9369
  0
VERTEX
  8
8
 10
515.6159
 20
223.3726
  0
VERTEX
  8
8
 10
512.1570
 20
226.9990
  0
VERTEX
  8
8
 10
508.9063
 20
230.8217
  0
VERTEX
  8
8
 10
505.8716
 20
234.8190
  0
VERTEX
  8
8
 10
503.0530
 20
238.9709
  0
VERTEX
  8
8
 10
500.4688
 20
243.2721
  0
VERTEX
  8
8
 10
498.1495
 20
247.7208
  0
VERTEX
  8
8
 10
496.0578
 20
252.2841
  0
VERTEX
  8
8
 10
492.4653
 20
261.6550
  0
VERTEX
  8
8
 10
489.5093
 20
271.2458
  0
VERTEX
  8
8
 10
487.0960
 20
280.9883
  0
VERTEX
  8
8
 10
485.1905
 20
290.8429
  0
VERTEX
  8
8
 10
483.6939
 20
300.7678
  0
VERTEX
  8
8
 10
482.5300
 20
310.7378
  0
VERTEX
  8
8
 10
481.5656
 20
320.7291
  0
VERTEX
  8
8
 10
480.7703
 20
330.7353
  0
VERTEX
  8
8
 10
480.1307
 20
340.7527
  0
VERTEX
  8
8
 10
479.5746
 20
350.7757
  0
SEQEND
  0
POINT
  8
2
 10
519.2853
 20
219.9369
  0
TEXT
  8
2
 10
519.2853
 20
219.9369
 40
0.1000
 50
0.0000
  1
# 61
  0
POINT
  8
3
 10
515.6159
 20
223.3726
  0
POINT
  8
3
 10
512.1570
 20
226.9990
  0
POINT
  8
3
 10
508.9063
 20
230.8217
  0
POINT
  8
3
 10
505.8716
 20
234.8190
  0
POINT
  8
3
 10
503.0530
 20
238.9709
  0
POINT
  8
3
 10
500.4688
 20
243.2721
  0
POINT
  8
3
 10
498.1495
 20
247.7208
  0
POINT
  8
3
 10
496.0578
 20
252.2841
  0
POINT
  8
3
 10
492.4653
 20
261.6550
  0
POINT
  8
3
 10
489.5093
 20
271.2458
  0
POINT
  8
3
 10
487.0960
 20
280.9883
  0
POINT
  8
3
 10
485.1905
 20
290.8429
  0
POINT
  8
3
 10
483.6939
 20
300.7678
  0
POINT
  8
3
 10
482.5300
 20
310.7378
  0
POINT
  8
3
 10
481.5656
 20
320.7291
  0
POINT
  8
3
 10
480.7703
 20
330.7353
  0
POINT
  8
3
 10
480.1307
 20
340.7527
  0
POINT
  8
2
 10
479.5746
 20
350.7757
  0
TEXT
  8
2
 10
479.5746
 20
350.7757
 40
0.1000
 50
0.0000
  1
# 62
  0
POLYLINE
  8
8
 66
1
 70
0
  0
VERTEX
  8
8
 10
350.2912
 20
138.2039
  0
VERTEX
  8
8
 10
427.3530
 20
138.5154
  0
VERTEX
  8
8
 10
453.0396
 20
138.7413
  0
VERTEX
  8
8
 10
478.7226
 20
139.2041
  0
VERTEX
  8
8
 10
504.4001
 20
139.9216
  0
SEQEND
  0
POINT
  8
2
 10
350.2912
 20
138.2039
  0
TEXT
  8
2
 10
350.2912
 20
138.2039
 40
0.1000
 50
0.0000
  1
# 63
  0
POINT
  8
3
 10
427.3530
 20
138.5154
  0
POINT
  8
3
 10
453.0396
 20
138.7413
  0
POINT
  8
3
 10
478.7226
 20
139.2041
  0
POINT
  8
2
 10
504.4001
 20
139.9216
  0
TEXT
  8
2
 10
504.4001
 20
139.9216
 40
0.1000
 50
0.0000
  1
# 64
  0
POLYLINE
  8
8
 66
1
 70
0
  0
VERTEX
  8
8
 10
350.2912
 20
138.2044
  0
VERTEX
  8
8
 10
273.2294
 20
138.5154
  0
VERTEX
  8
8
 10
247.5428
 20
138.7413
  0
VERTEX
  8
8
 10
221.8598
 20
139.2041
  0
VERTEX
  8
8
 10
196.1823
 20
139.9216
  0
SEQEND
  0
POINT
  8
2
 10
350.2912
 20
138.2044
  0
TEXT
  8
2
 10
350.2912
 20
138.2044
 40
0.1000
 50
0.0000
  1
# 65
  0
POINT
  8
3
 10
273.2294
 20
138.5154
  0
POINT
  8
3
 10
247.5428
 20
138.7413
  0
POINT
  8
3
 10
221.8598
 20
139.2041
  0
POINT
  8
2
 10
196.1823
 20
139.9216
  0
TEXT
  8
2
 10
196.1823
 20
139.9216
 40
0.1000
 50
0.0000
  1
# 66
  0
POLYLINE
  8
8
 66
1
 70
0
  0
VERTEX
  8
8
 10
623.9978
 20
77.8042
  0
VERTEX
  8
8
 10
615.1545
 20
73.9728
  0
VERTEX
  8
8
 10
606.3111
 20
72.8043
  0
VERTEX
  8
8
 10
588.6231
 20
77.8043
  0
VERTEX
  8
8
 10
570.9363
 20
72.8043
  0
VERTEX
  8
8
 10
553.2483
 20
77.8044
  0
VERTEX
  8
8
 10
535.5616
 20
72.8044
  0
VERTEX
  8
8
 10
517.8736
 20
77.8044
  0
VERTEX
  8
8
 10
500.1868
 20
72.8045
  0
VERTEX
  8
8
 10
482.4988
 20
77.8045
  0
VERTEX
  8
8
 10
464.8114
 20
72.8045
  0
VERTEX
  8
8
 10
447.1241
 20
77.8046
  0
VERTEX
  8
8
 10
429.4367
 20
72.8046
  0
VERTEX
  8
8
 10
411.7493
 20
77.8046
  0
VERTEX
  8
8
 10
394.0619
 20
72.8047
  0
VERTEX
  8
8
 10
385.2186
 20
73.9733
  0
VERTEX
  8
8
 10
376.3746
 20
77.8047
  0
SEQEND
  0
POINT
  8
2
 10
623.9978
 20
77.8042
  0
TEXT
  8
2
 10
623.9978
 20
77.8042
 40
0.1000
 50
0.0000
  1
# 67
  0
POINT
  8
3
 10
615.1545
 20
73.9728
  0
POINT
  8
3
 10
606.3111
 20
72.8043
  0
POINT
  8
3
 10
588.6231
 20
77.8043
  0
POINT
  8
3
 10
570.9363
 20
72.8043
  0
POINT
  8
3
 10
553.2483
 20
77.8044
  0
POINT
  8
3
 10
535.5616
 20
72.8044
  0
POINT
  8
3
 10
517.8736
 20
77.8044
  0
POINT
  8
3
 10
500.1868
 20
72.8045
  0
POINT
  8
3
 10
482.4988
 20
77.8045
  0
POINT
  8
3
 10
464.8114
 20
72.8045
  0
POINT
  8
3
 10
447.1241
 20
77.8046
  0
POINT
  8
3
 10
429.4367
 20
72.8046
  0
POINT
  8
3
 10
411.7493
 20
77.8046
  0
POINT
  8
3
 10
394.0619
 20
72.8047
  0
POINT
  8
3
 10
385.2186
 20
73.9733
  0
POINT
  8
2
 10
376.3746
 20
77.8047
  0
TEXT
  8
2
 10
376.3746
 20
77.8047
 40
0.1000
 50
0.0000
  1
# 68
  0
POLYLINE
  8
8
 66
1
 70
0
  0
VERTEX
  8
8
 10
516.0712
 20
202.6588
  0
VERTEX
  8
8
 10
509.2646
 20
208.7743
  0
VERTEX
  8
8
 10
505.0208
 20
212.7517
  0
VERTEX
  8
8
 10
501.0212
 20
216.9486
  0
VERTEX
  8
8
 10
497.2339
 20
221.4004
  0
VERTEX
  8
8
 10
493.6976
 20
226.0549
  0
VERTEX
  8
8
 10
490.4078
 20
230.9026
  0
VERTEX
  8
8
 10
487.3914
 20
235.9239
  0
VERTEX
  8
8
 10
484.7089
 20
241.0642
  0
VERTEX
  8
8
 10
482.2870
 20
246.3362
  0
VERTEX
  8
8
 10
480.1844
 20
251.5073
  0
VERTEX
  8
8
 10
478.2862
 20
256.7601
  0
VERTEX
  8
8
 10
475.0434
 20
267.2781
  0
VERTEX
  8
8
 10
472.4500
 20
277.7484
  0
VERTEX
  8
8
 10
470.3760
 20
288.4852
  0
VERTEX
  8
8
 10
468.8031
 20
298.9548
  0
VERTEX
  8
8
 10
467.5898
 20
309.3788
  0
VERTEX
  8
8
 10
466.6254
 20
319.3887
  0
VERTEX
  8
8
 10
465.7953
 20
329.8486
  0
VERTEX
  8
8
 10
465.1575
 20
339.8626
  0
VERTEX
  8
8
 10
464.5545
 20
350.7792
  0
SEQEND
  0
POINT
  8
2
 10
516.0712
 20
202.6588
  0
TEXT
  8
2
 10
516.0712
 20
202.6588
 40
0.1000
 50
0.0000
  1
# 69
  0
POINT
  8
3
 10
509.2646
 20
208.7743
  0
POINT
  8
3
 10
505.0208
 20
212.7517
  0
POINT
  8
3
 10
501.0212
 20
216.9486
  0
POINT
  8
3
 10
497.2339
 20
221.4004
  0
POINT
  8
3
 10
493.6976
 20
226.0549
  0
POINT
  8
3
 10
490.4078
 20
230.9026
  0
POINT
  8
3
 10
487.3914
 20
235.9239
  0
POINT
  8
3
 10
484.7089
 20
241.0642
  0
POINT
  8
3
 10
482.2870
 20
246.3362
  0
POINT
  8
3
 10
480.1844
 20
251.5073
  0
POINT
  8
3
 10
478.2862
 20
256.7601
  0
POINT
  8
3
 10
475.0434
 20
267.2781
  0
POINT
  8
3
 10
472.4500
 20
277.7484
  0
POINT
  8
3
 10
470.3760
 20
288.4852
  0
POINT
  8
3
 10
468.8031
 20
298.9548
  0
POINT
  8
3
 10
467.5898
 20
309.3788
  0
POINT
  8
3
 10
466.6254
 20
319.3887
  0
POINT
  8
3
 10
465.7953
 20
329.8486
  0
POINT
  8
3
 10
465.1575
 20
339.8626
  0
POINT
  8
2
 10
464.5545
 20
350.7792
  0
TEXT
  8
2
 10
464.5545
 20
350.7792
 40
0.1000
 50
0.0000
  1
# 70
  0
POLYLINE
  8
8
 66
1
 70
0
  0
VERTEX
  8
8
 10
515.0000
 20
196.8990
  0
VERTEX
  8
8
 10
505.9247
 20
205.0537
  0
VERTEX
  8
8
 10
501.4881
 20
209.2131
  0
VERTEX
  8
8
 10
497.3066
 20
213.6020
  0
VERTEX
  8
8
 10
493.3399
 20
218.2637
  0
VERTEX
  8
8
 10
489.6369
 20
223.1376
  0
VERTEX
  8
8
 10
486.1902
 20
228.2185
  0
VERTEX
  8
8
 10
483.0286
 20
233.4812
  0
VERTEX
  8
8
 10
480.2259
 20
238.8502
  0
VERTEX
  8
8
 10
477.6954
 20
244.3567
  0
VERTEX
  8
8
 10
475.5188
 20
249.7062
  0
VERTEX
  8
8
 10
473.5560
 20
255.1405
  0
VERTEX
  8
8
 10
470.2240
 20
265.9464
  0
VERTEX
  8
8
 10
467.5660
 20
276.6771
  0
VERTEX
  8
8
 10
465.4474
 20
287.6436
  0
VERTEX
  8
8
 10
463.8459
 20
298.3017
  0
VERTEX
  8
8
 10
462.6172
 20
308.8559
  0
VERTEX
  8
8
 10
461.6443
 20
318.9533
  0
VERTEX
  8
8
 10
460.8082
 20
329.4947
  0
VERTEX
  8
8
 10
460.1661
 20
339.5659
  0
VERTEX
  8
8
 10
459.5478
 20
350.7793
  0
SEQEND
  0
POINT
  8
2
 10
515.0000
 20
196.8990
  0
TEXT
  8
2
 10
515.0000
 20
196.8990
 40
0.1000
 50
0.0000
  1
# 71
  0
POINT
  8
3
 10
505.9247
 20
205.0537
  0
POINT
  8
3
 10
501.4881
 20
209.2131
  0
POINT
  8
3
 10
497.3066
 20
213.6020
  0
POINT
  8
3
 10
493.3399
 20
218.2637
  0
POINT
  8
3
 10
489.6369
 20
223.1376
  0
POINT
  8
3
 10
486.1902
 20
228.2185
  0
POINT
  8
3
 10
483.0286
 20
233.4812
  0
POINT
  8
3
 10
480.2259
 20
238.8502
  0
POINT
  8
3
 10
477.6954
 20
244.3567
  0
POINT
  8
3
 10
475.5188
 20
249.7062
  0
POINT
  8
3
 10
473.5560
 20
255.1405
  0
POINT
  8
3
 10
470.2240
 20
265.9464
  0
POINT
  8
3
 10
467.5660
 20
276.6771
  0
POINT
  8
3
 10
465.4474
 20
287.6436
  0
POINT
  8
3
 10
463.8459
 20
298.3017
  0
POINT
  8
3
 10
462.6172
 20
308.8559
  0
POINT
  8
3
 10
461.6443
 20
318.9533
  0
POINT
  8
3
 10
460.8082
 20
329.4947
  0
POINT
  8
3
 10
460.1661
 20
339.5659
  0
POINT
  8
2
 10
459.5478
 20
350.7793
  0
TEXT
  8
2
 10
459.5478
 20
350.7793
 40
0.1000
 50
0.0000
  1
# 72
  0
POLYLINE
  8
8
 66
1
 70
0
  0
VERTEX
  8
8
 10
181.2970
 20
219.9369
  0
VERTEX
  8
8
 10
184.9668
 20
223.3726
  0
VERTEX
  8
8
 10
188.4253
 20
226.9990
  0
VERTEX
  8
8
 10
191.6761
 20
230.8217
  0
VERTEX
  8
8
 10
194.7107
 20
234.8190
  0
VERTEX
  8
8
 10
197.5296
 20
238.9709
  0
VERTEX
  8
8
 10
200.1136
 20
243.2721
  0
VERTEX
  8
8
 10
202.4326
 20
247.7208
  0
VERTEX
  8
8
 10
204.5246
 20
252.2841
  0
VERTEX
  8
8
 10
208.1171
 20
261.6550
  0
VERTEX
  8
8
 10
211.0730
 20
271.2458
  0
VERTEX
  8
8
 10
213.4864
 20
280.9883
  0
VERTEX
  8
8
 10
215.3919
 20
290.8429
  0
VERTEX
  8
8
 10
216.8885
 20
300.7678
  0
VERTEX
  8
8
 10
218.0524
 20
310.7378
  0
VERTEX
  8
8
 10
219.0168
 20
320.7291
  0
VERTEX
  8
8
 10
219.8121
 20
330.7353
  0
VERTEX
  8
8
 10
220.4517
 20
340.7527
  0
VERTEX
  8
8
 10
221.0077
 20
350.7757
  0
SEQEND
  0
POINT
  8
2
 10
181.2970
 20
219.9369
  0
TEXT
  8
2
 10
181.2970
 20
219.9369
 40
0.1000
 50
0.0000
  1
# 73
  0
POINT
  8
3
 10
184.9668
 20
223.3726
  0
POINT
  8
3
 10
188.4253
 20
226.9990
  0
POINT
  8
3
 10
191.6761
 20
230.8217
  0
POINT
  8
3
 10
194.7107
 20
234.8190
  0
POINT
  8
3
 10
197.5296
 20
238.9709
  0
POINT
  8
3
 10
200.1136
 20
243.2721
  0
POINT
  8
3
 10
202.4326
 20
247.7208
  0
POINT
  8
3
 10
204.5246
 20
252.2841
  0
POINT
  8
3
 10
208.1171
 20
261.6550
  0
POINT
  8
3
 10
211.0730
 20
271.2458
  0
POINT
  8
3
 10
213.4864
 20
280.9883
  0
POINT
  8
3
 10
215.3919
 20
290.8429
  0
POINT
  8
3
 10
216.8885
 20
300.7678
  0
POINT
  8
3
 10
218.0524
 20
310.7378
  0
POINT
  8
3
 10
219.0168
 20
320.7291
  0
POINT
  8
3
 10
219.8121
 20
330.7353
  0
POINT
  8
3
 10
220.4517
 20
340.7527
  0
POINT
  8
2
 10
221.0077
 20
350.7757
  0
TEXT
  8
2
 10
221.0077
 20
350.7757
 40
0.1000
 50
0.0000
  1
# 74
  0
POLYLINE
  8
8
 66
1
 70
0
  0
VERTEX
  8
8
 10
76.5845
 20
77.8042
  0
VERTEX
  8
8
 10
85.4279
 20
73.9728
  0
VERTEX
  8
8
 10
94.2713
 20
72.8043
  0
VERTEX
  8
8
 10
111.9593
 20
77.8043
  0
VERTEX
  8
8
 10
129.6460
 20
72.8043
  0
VERTEX
  8
8
 10
147.3340
 20
77.8044
  0
VERTEX
  8
8
 10
165.0208
 20
72.8044
  0
VERTEX
  8
8
 10
182.7088
 20
77.8044
  0
VERTEX
  8
8
 10
200.3956
 20
72.8045
  0
VERTEX
  8
8
 10
218.0835
 20
77.8045
  0
VERTEX
  8
8
 10
235.7709
 20
72.8045
  0
VERTEX
  8
8
 10
253.4583
 20
77.8046
  0
VERTEX
  8
8
 10
271.1457
 20
72.8046
  0
VERTEX
  8
8
 10
288.8331
 20
77.8046
  0
VERTEX
  8
8
 10
306.5204
 20
72.8047
  0
VERTEX
  8
8
 10
315.3638
 20
73.9733
  0
VERTEX
  8
8
 10
324.2078
 20
77.8047
  0
SEQEND
  0
POINT
  8
2
 10
76.5845
 20
77.8042
  0
TEXT
  8
2
 10
76.5845
 20
77.8042
 40
0.1000
 50
0.0000
  1
# 75
  0
POINT
  8
3
 10
85.4279
 20
73.9728
  0
POINT
  8
3
 10
94.2713
 20
72.8043
  0
POINT
  8
3
 10
111.9593
 20
77.8043
  0
POINT
  8
3
 10
129.6460
 20
72.8043
  0
POINT
  8
3
 10
147.3340
 20
77.8044
  0
POINT
  8
3
 10
165.0208
 20
72.8044
  0
POINT
  8
3
 10
182.7088
 20
77.8044
  0
POINT
  8
3
 10
200.3956
 20
72.8045
  0
POINT
  8
3
 10
218.0835
 20
77.8045
  0
POINT
  8
3
 10
235.7709
 20
72.8045
  0
POINT
  8
3
 10
253.4583
 20
77.8046
  0
POINT
  8
3
 10
271.1457
 20
72.8046
  0
POINT
  8
3
 10
288.8331
 20
77.8046
  0
POINT
  8
3
 10
306.5204
 20
72.8047
  0
POINT
  8
3
 10
315.3638
 20
73.9733
  0
POINT
  8
2
 10
324.2078
 20
77.8047
  0
TEXT
  8
2
 10
324.2078
 20
77.8047
 40
0.1000
 50
0.0000
  1
# 76
  0
POLYLINE
  8
8
 66
1
 70
0
  0
VERTEX
  8
8
 10
184.5105
 20
202.6596
  0
VERTEX
  8
8
 10
191.3178
 20
208.7743
  0
VERTEX
  8
8
 10
195.5613
 20
212.7517
  0
VERTEX
  8
8
 10
199.5612
 20
216.9486
  0
VERTEX
  8
8
 10
203.3484
 20
221.4004
  0
VERTEX
  8
8
 10
206.8848
 20
226.0549
  0
VERTEX
  8
8
 10
210.1746
 20
230.9026
  0
VERTEX
  8
8
 10
213.1910
 20
235.9239
  0
VERTEX
  8
8
 10
215.8735
 20
241.0642
  0
VERTEX
  8
8
 10
218.2953
 20
246.3362
  0
VERTEX
  8
8
 10
220.3986
 20
251.5073
  0
VERTEX
  8
8
 10
222.2962
 20
256.7601
  0
VERTEX
  8
8
 10
225.5390
 20
267.2781
  0
VERTEX
  8
8
 10
228.1324
 20
277.7484
  0
VERTEX
  8
8
 10
230.2063
 20
288.4852
  0
VERTEX
  8
8
 10
231.7792
 20
298.9548
  0
VERTEX
  8
8
 10
232.9926
 20
309.3788
  0
VERTEX
  8
8
 10
233.9570
 20
319.3887
  0
VERTEX
  8
8
 10
234.7870
 20
329.8486
  0
VERTEX
  8
8
 10
235.4249
 20
339.8626
  0
VERTEX
  8
8
 10
236.0279
 20
350.7792
  0
SEQEND
  0
POINT
  8
2
 10
184.5105
 20
202.6596
  0
TEXT
  8
2
 10
184.5105
 20
202.6596
 40
0.1000
 50
0.0000
  1
# 77
  0
POINT
  8
3
 10
191.3178
 20
208.7743
  0
POINT
  8
3
 10
195.5613
 20
212.7517
  0
POINT
  8
3
 10
199.5612
 20
216.9486
  0
POINT
  8
3
 10
203.3484
 20
221.4004
  0
POINT
  8
3
 10
206.8848
 20
226.0549
  0
POINT
  8
3
 10
210.1746
 20
230.9026
  0
POINT
  8
3
 10
213.1910
 20
235.9239
  0
POINT
  8
3
 10
215.8735
 20
241.0642
  0
POINT
  8
3
 10
218.2953
 20
246.3362
  0
POINT
  8
3
 10
220.3986
 20
251.5073
  0
POINT
  8
3
 10
222.2962
 20
256.7601
  0
POINT
  8
3
 10
225.5390
 20
267.2781
  0
POINT
  8
3
 10
228.1324
 20
277.7484
  0
POINT
  8
3
 10
230.2063
 20
288.4852
  0
POINT
  8
3
 10
231.7792
 20
298.9548
  0
POINT
  8
3
 10
232.9926
 20
309.3788
  0
POINT
  8
3
 10
233.9570
 20
319.3887
  0
POINT
  8
3
 10
234.7870
 20
329.8486
  0
POINT
  8
3
 10
235.4249
 20
339.8626
  0
POINT
  8
2
 10
236.0279
 20
350.7792
  0
TEXT
  8
2
 10
236.0279
 20
350.7792
 40
0.1000
 50
0.0000
  1
# 78
  0
POLYLINE
  8
8
 66
1
 70
0
  0
VERTEX
  8
8
 10
185.5826
 20
196.8988
  0
VERTEX
  8
8
 10
194.6576
 20
205.0537
  0
VERTEX
  8
8
 10
199.0940
 20
209.2131
  0
VERTEX
  8
8
 10
203.2758
 20
213.6020
  0
VERTEX
  8
8
 10
207.2422
 20
218.2637
  0
VERTEX
  8
8
 10
210.9455
 20
223.1376
  0
VERTEX
  8
8
 10
214.3924
 20
228.2185
  0
VERTEX
  8
8
 10
217.5538
 20
233.4812
  0
VERTEX
  8
8
 10
220.3565
 20
238.8502
  0
VERTEX
  8
8
 10
222.8870
 20
244.3567
  0
VERTEX
  8
8
 10
225.0635
 20
249.7062
  0
VERTEX
  8
8
 10
227.0264
 20
255.1405
  0
VERTEX
  8
8
 10
230.3583
 20
265.9464
  0
VERTEX
  8
8
 10
233.0164
 20
276.6771
  0
VERTEX
  8
8
 10
235.1349
 20
287.6436
  0
VERTEX
  8
8
 10
236.7365
 20
298.3017
  0
VERTEX
  8
8
 10
237.9651
 20
308.8559
  0
VERTEX
  8
8
 10
238.9380
 20
318.9533
  0
VERTEX
  8
8
 10
239.7742
 20
329.4947
  0
VERTEX
  8
8
 10
240.4163
 20
339.5659
  0
VERTEX
  8
8
 10
241.0346
 20
350.7793
  0
SEQEND
  0
POINT
  8
2
 10
185.5826
 20
196.8988
  0
TEXT
  8
2
 10
185.5826
 20
196.8988
 40
0.1000
 50
0.0000
  1
# 79
  0
POINT
  8
3
 10
194.6576
 20
205.0537
  0
POINT
  8
3
 10
199.0940
 20
209.2131
  0
POINT
  8
3
 10
203.2758
 20
213.6020
  0
POINT
  8
3
 10
207.2422
 20
218.2637
  0
POINT
  8
3
 10
210.9455
 20
223.1376
  0
POINT
  8
3
 10
214.3924
 20
228.2185
  0
POINT
  8
3
 10
217.5538
 20
233.4812
  0
POINT
  8
3
 10
220.3565
 20
238.8502
  0
POINT
  8
3
 10
222.8870
 20
244.3567
  0
POINT
  8
3
 10
225.0635
 20
249.7062
  0
POINT
  8
3
 10
227.0264
 20
255.1405
  0
POINT
  8
3
 10
230.3583
 20
265.9464
  0
POINT
  8
3
 10
233.0164
 20
276.6771
  0
POINT
  8
3
 10
235.1349
 20
287.6436
  0
POINT
  8
3
 10
236.7365
 20
298.3017
  0
POINT
  8
3
 10
237.9651
 20
308.8559
  0
POINT
  8
3
 10
238.9380
 20
318.9533
  0
POINT
  8
3
 10
239.7742
 20
329.4947
  0
POINT
  8
3
 10
240.4163
 20
339.5659
  0
POINT
  8
2
 10
241.0346
 20
350.7793
  0
TEXT
  8
2
 10
241.0346
 20
350.7793
 40
0.1000
 50
0.0000
  1
# 80
  0
ENDBLK
  0
BLOCK
  8
0
  2
BLK_3_1
 70
64
 10
0.0000
 20
0.0000
  0
TEXT
  8
1
 10
293.0243
 20
354.3803
 40
2.8000
 50
0.0000
  1
PIECE NAME: 3
  7
STANDARD
  0
TEXT
  8
1
 10
293.0243
 20
351.5803
 40
2.8000
 50
0.0000
  1
SIZE: F
  7
STANDARD
  0
TEXT
  8
1
 10
293.0243
 20
348.7803
 40
2.8000
 50
0.0000
  1
CATEGORY: 
  7
STANDARD
  0
TEXT
  8
1
 10
293.0243
 20
345.9803
 40
2.8000
 50
0.0000
  1
QUANTITY: 1
  7
STANDARD
  0
TEXT
  8
1
 10
293.0243
 20
343.1803
 40
2.8000
 50
0.0000
  1
ANNOTATION: 
  7
STANDARD
  0
POLYLINE
  8
1
 66
1
 70
1
  0
VERTEX
  8
1
 10
96.1725
 20
30.0008
  0
VERTEX
  8
1
 10
99.9231
 20
59.9192
  0
VERTEX
  8
1
 10
30.0000
 20
552.9548
  0
VERTEX
  8
1
 10
37.7527
 20
555.6669
  0
VERTEX
  8
1
 10
55.1603
 20
562.0060
  0
VERTEX
  8
1
 10
65.4993
 20
566.0727
  0
VERTEX
  8
1
 10
79.1556
 20
571.8026
  0
VERTEX
  8
1
 10
92.6642
 20
577.8731
  0
VERTEX
  8
1
 10
106.0706
 20
584.3557
  0
VERTEX
  8
1
 10
119.3677
 20
591.0672
  0
VERTEX
  8
1
 10
146.0761
 20
604.8998
  0
VERTEX
  8
1
 10
159.0400
 20
611.5294
  0
VERTEX
  8
1
 10
159.6222
 20
611.8239
  0
VERTEX
  8
1
 10
168.1098
 20
616.0388
  0
VERTEX
  8
1
 10
173.2672
 20
618.5422
  0
VERTEX
  8
1
 10
187.2260
 20
625.0194
  0
VERTEX
  8
1
 10
201.3800
 20
631.0349
  0
VERTEX
  8
1
 10
215.9717
 20
636.5478
  0
VERTEX
  8
1
 10
230.8136
 20
641.2903
  0
VERTEX
  8
1
 10
246.0932
 20
645.0880
  0
VERTEX
  8
1
 10
261.5815
 20
647.8725
  0
VERTEX
  8
1
 10
277.1726
 20
649.5430
  0
VERTEX
  8
1
 10
292.9758
 20
650.1295
  0
VERTEX
  8
1
 10
298.7824
 20
650.0457
  0
VERTEX
  8
1
 10
304.5105
 20
649.8098
  0
VERTEX
  8
1
 10
310.2118
 20
649.4210
  0
VERTEX
  8
1
 10
315.8490
 20
648.8820
  0
VERTEX
  8
1
 10
325.1215
 20
647.7826
  0
VERTEX
  8
1
 10
334.3109
 20
646.2789
  0
VERTEX
  8
1
 10
343.4247
 20
644.3570
  0
VERTEX
  8
1
 10
352.4536
 20
642.0609
  0
VERTEX
  8
1
 10
361.3318
 20
639.4338
  0
VERTEX
  8
1
 10
370.1154
 20
636.5006
  0
VERTEX
  8
1
 10
378.7213
 20
633.3273
  0
VERTEX
  8
1
 10
387.2406
 20
629.9238
  0
VERTEX
  8
1
 10
403.9191
 20
622.6352
  0
VERTEX
  8
1
 10
420.2094
 20
614.8523
  0
VERTEX
  8
1
 10
436.2397
 20
606.7533
  0
VERTEX
  8
1
 10
442.1759
 20
603.6916
  0
VERTEX
  8
1
 10
467.8638
 20
590.4065
  0
VERTEX
  8
1
 10
483.6353
 20
582.5058
  0
VERTEX
  8
1
 10
499.4934
 20
575.0185
  0
VERTEX
  8
1
 10
515.4859
 20
568.0944
  0
VERTEX
  8
1
 10
531.7823
 20
561.7231
  0
VERTEX
  8
1
 10
548.3539
 20
555.6475
  0
VERTEX
  8
1
 10
556.0468
 20
552.9073
  0
VERTEX
  8
1
 10
486.1298
 20
59.9184
  0
VERTEX
  8
1
 10
489.8804
 20
30.0000
  0
VERTEX
  8
1
 10
293.0262
 20
30.0005
  0
VERTEX
  8
1
 10
96.1725
 20
30.0008
  0
SEQEND
  0
POINT
  8
2
 10
96.1725
 20
30.0008
  0
TEXT
  8
2
 10
96.1725
 20
30.0008
 40
0.1000
 50
0.0000
  1
# 1
  0
POINT
  8
2
 10
99.9231
 20
59.9192
  0
TEXT
  8
2
 10
99.9231
 20
59.9192
 40
0.1000
 50
0.0000
  1
# 2
  0
POINT
  8
2
 10
30.0000
 20
552.9548
  0
TEXT
  8
2
 10
30.0000
 20
552.9548
 40
0.1000
 50
0.0000
  1
# 3
  0
POINT
  8
3
 10
37.7527
 20
555.6669
  0
POINT
  8
3
 10
55.1603
 20
562.0060
  0
POINT
  8
3
 10
65.4993
 20
566.0727
  0
POINT
  8
3
 10
79.1556
 20
571.8026
  0
POINT
  8
3
 10
92.6642
 20
577.8731
  0
POINT
  8
3
 10
106.0706
 20
584.3557
  0
POINT
  8
3
 10
119.3677
 20
591.0672
  0
POINT
  8
3
 10
146.0761
 20
604.8998
  0
POINT
  8
4
 10
159.0400
 20
611.5294
 38
5.0000
 50
296.8336
  0
TEXT
  8
4
 10
159.0400
 20
611.5294
 40
0.1000
 50
0.0000
  1
# 4
  0
POINT
  8
3
 10
159.0400
 20
611.5294
  0
POINT
  8
3
 10
159.6222
 20
611.8239
  0
POINT
  8
4
 10
168.1098
 20
616.0388
 38
5.0000
 50
296.0931
  0
TEXT
  8
4
 10
168.1098
 20
616.0388
 40
0.1000
 50
0.0000
  1
# 5
  0
POINT
  8
3
 10
168.1098
 20
616.0388
  0
POINT
  8
3
 10
173.2672
 20
618.5422
  0
POINT
  8
3
 10
187.2260
 20
625.0194
  0
POINT
  8
3
 10
201.3800
 20
631.0349
  0
POINT
  8
3
 10
215.9717
 20
636.5478
  0
POINT
  8
3
 10
230.8136
 20
641.2903
  0
POINT
  8
3
 10
246.0932
 20
645.0880
  0
POINT
  8
3
 10
261.5815
 20
647.8725
  0
POINT
  8
3
 10
277.1726
 20
649.5430
  0
POINT
  8
2
 10
292.9758
 20
650.1295
  0
TEXT
  8
2
 10
292.9758
 20
650.1295
 40
0.1000
 50
0.0000
  1
# 6
  0
POINT
  8
3
 10
298.7824
 20
650.0457
  0
POINT
  8
3
 10
304.5105
 20
649.8098
  0
POINT
  8
3
 10
310.2118
 20
649.4210
  0
POINT
  8
4
 10
315.8490
 20
648.8820
 38
5.0000
 50
263.8404
  0
TEXT
  8
4
 10
315.8490
 20
648.8820
 40
0.1000
 50
0.0000
  1
# 7
  0
POINT
  8
2
 10
315.8490
 20
648.8820
  0
TEXT
  8
2
 10
315.8490
 20
648.8820
 40
0.1000
 50
0.0000
  1
# 7
  0
POINT
  8
3
 10
325.1215
 20
647.7826
  0
POINT
  8
3
 10
334.3109
 20
646.2789
  0
POINT
  8
3
 10
343.4247
 20
644.3570
  0
POINT
  8
3
 10
352.4536
 20
642.0609
  0
POINT
  8
3
 10
361.3318
 20
639.4338
  0
POINT
  8
3
 10
370.1154
 20
636.5006
  0
POINT
  8
3
 10
378.7213
 20
633.3273
  0
POINT
  8
3
 10
387.2406
 20
629.9238
  0
POINT
  8
3
 10
403.9191
 20
622.6352
  0
POINT
  8
3
 10
420.2094
 20
614.8523
  0
POINT
  8
3
 10
436.2397
 20
606.7533
  0
POINT
  8
4
 10
442.1759
 20
603.6916
 38
5.0000
 50
242.8046
  0
TEXT
  8
4
 10
442.1759
 20
603.6916
 40
0.1000
 50
0.0000
  1
# 8
  0
POINT
  8
3
 10
442.1759
 20
603.6916
  0
POINT
  8
3
 10
467.8638
 20
590.4065
  0
POINT
  8
3
 10
483.6353
 20
582.5058
  0
POINT
  8
3
 10
499.4934
 20
575.0185
  0
POINT
  8
3
 10
515.4859
 20
568.0944
  0
POINT
  8
3
 10
531.7823
 20
561.7231
  0
POINT
  8
3
 10
548.3539
 20
555.6475
  0
POINT
  8
2
 10
556.0468
 20
552.9073
  0
TEXT
  8
2
 10
556.0468
 20
552.9073
 40
0.1000
 50
0.0000
  1
# 9
  0
POINT
  8
2
 10
486.1298
 20
59.9184
  0
TEXT
  8
2
 10
486.1298
 20
59.9184
 40
0.1000
 50
0.0000
  1
# 10
  0
POINT
  8
2
 10
489.8804
 20
30.0000
  0
TEXT
  8
2
 10
489.8804
 20
30.0000
 40
0.1000
 50
0.0000
  1
# 11
  0
POINT
  8
2
 10
293.0262
 20
30.0005
  0
TEXT
  8
2
 10
293.0262
 20
30.0005
 40
0.1000
 50
0.0000
  1
# 12
  0
POINT
  8
2
 10
96.1725
 20
30.0008
  0
POLYLINE
  8
14
 66
1
 70
1
  0
VERTEX
  8
14
 10
106.2506
 20
30.0008
  0
VERTEX
  8
14
 10
110.0116
 20
60.0008
  0
VERTEX
  8
14
 10
41.0553
 20
546.2278
  0
VERTEX
  8
14
 10
55.2323
 20
551.3402
  0
VERTEX
  8
14
 10
69.2652
 20
556.8088
  0
VERTEX
  8
14
 10
83.1556
 20
562.6377
  0
VERTEX
  8
14
 10
96.8958
 20
568.8122
  0
VERTEX
  8
14
 10
110.4572
 20
575.3690
  0
VERTEX
  8
14
 10
123.9081
 20
582.1573
  0
VERTEX
  8
14
 10
150.6629
 20
596.0137
  0
VERTEX
  8
14
 10
163.5541
 20
602.6056
  0
VERTEX
  8
14
 10
164.0790
 20
602.8711
  0
VERTEX
  8
14
 10
172.5081
 20
607.0577
  0
VERTEX
  8
14
 10
177.5922
 20
609.5260
  0
VERTEX
  8
14
 10
191.2616
 20
615.8684
  0
VERTEX
  8
14
 10
205.1215
 20
621.7611
  0
VERTEX
  8
14
 10
219.2194
 20
627.0893
  0
VERTEX
  8
14
 10
233.5590
 20
631.6742
  0
VERTEX
  8
14
 10
248.1791
 20
635.3101
  0
VERTEX
  8
14
 10
262.9999
 20
637.9731
  0
VERTEX
  8
14
 10
277.9401
 20
639.5713
  0
VERTEX
  8
14
 10
293.0255
 20
640.1293
  0
VERTEX
  8
14
 10
298.4919
 20
640.0499
  0
VERTEX
  8
14
 10
303.9533
 20
639.8253
  0
VERTEX
  8
14
 10
309.4049
 20
639.4536
  0
VERTEX
  8
14
 10
314.8468
 20
638.9322
  0
VERTEX
  8
14
 10
323.6963
 20
637.8847
  0
VERTEX
  8
14
 10
332.4738
 20
636.4490
  0
VERTEX
  8
14
 10
341.1847
 20
634.6116
  0
VERTEX
  8
14
 10
349.8139
 20
632.4155
  0
VERTEX
  8
14
 10
358.3490
 20
629.8890
  0
VERTEX
  8
14
 10
366.7945
 20
627.0682
  0
VERTEX
  8
14
 10
375.1471
 20
623.9876
  0
VERTEX
  8
14
 10
383.4162
 20
620.6841
  0
VERTEX
  8
14
 10
399.7321
 20
613.5543
  0
VERTEX
  8
14
 10
415.7978
 20
605.8779
  0
VERTEX
  8
14
 10
431.6925
 20
597.8469
  0
VERTEX
  8
14
 10
437.6057
 20
594.7973
  0
VERTEX
  8
14
 10
463.3313
 20
581.4925
  0
VERTEX
  8
14
 10
479.2524
 20
573.5174
  0
VERTEX
  8
14
 10
495.3553
 20
565.9150
  0
VERTEX
  8
14
 10
511.6962
 20
558.8402
  0
VERTEX
  8
14
 10
528.2807
 20
552.3563
  0
VERTEX
  8
14
 10
544.9994
 20
546.2269
  0
VERTEX
  8
14
 10
476.0407
 20
60.0000
  0
VERTEX
  8
14
 10
479.8017
 20
30.0000
  0
VERTEX
  8
14
 10
293.0262
 20
30.0010
  0
VERTEX
  8
14
 10
106.2506
 20
30.0008
  0
SEQEND
  0
POINT
  8
2
 10
106.2506
 20
30.0008
  0
TEXT
  8
2
 10
106.2506
 20
30.0008
 40
0.1000
 50
0.0000
  1
# 14
  0
POINT
  8
2
 10
110.0116
 20
60.0008
  0
TEXT
  8
2
 10
110.0116
 20
60.0008
 40
0.1000
 50
0.0000
  1
# 15
  0
POINT
  8
2
 10
41.0553
 20
546.2278
  0
TEXT
  8
2
 10
41.0553
 20
546.2278
 40
0.1000
 50
0.0000
  1
# 16
  0
POINT
  8
3
 10
55.2323
 20
551.3402
  0
POINT
  8
3
 10
69.2652
 20
556.8088
  0
POINT
  8
3
 10
83.1556
 20
562.6377
  0
POINT
  8
3
 10
96.8958
 20
568.8122
  0
POINT
  8
3
 10
110.4572
 20
575.3690
  0
POINT
  8
3
 10
123.9081
 20
582.1573
  0
POINT
  8
3
 10
150.6629
 20
596.0137
  0
POINT
  8
4
 10
163.5541
 20
602.6056
 38
9.9999
 50
296.8313
  0
TEXT
  8
4
 10
163.5541
 20
602.6056
 40
0.1000
 50
0.0000
  1
# 17
  0
POINT
  8
3
 10
163.5541
 20
602.6056
  0
POINT
  8
3
 10
164.0790
 20
602.8711
  0
POINT
  8
4
 10
172.5081
 20
607.0577
 38
10.0000
 50
296.0959
  0
TEXT
  8
4
 10
172.5081
 20
607.0577
 40
0.1000
 50
0.0000
  1
# 18
  0
POINT
  8
3
 10
172.5081
 20
607.0577
  0
POINT
  8
3
 10
177.5922
 20
609.5260
  0
POINT
  8
3
 10
191.2616
 20
615.8684
  0
POINT
  8
3
 10
205.1215
 20
621.7611
  0
POINT
  8
3
 10
219.2194
 20
627.0893
  0
POINT
  8
3
 10
233.5590
 20
631.6742
  0
POINT
  8
3
 10
248.1791
 20
635.3101
  0
POINT
  8
3
 10
262.9999
 20
637.9731
  0
POINT
  8
3
 10
277.9401
 20
639.5713
  0
POINT
  8
2
 10
293.0255
 20
640.1293
  0
TEXT
  8
2
 10
293.0255
 20
640.1293
 40
0.1000
 50
0.0000
  1
# 19
  0
POINT
  8
3
 10
298.4919
 20
640.0499
  0
POINT
  8
3
 10
303.9533
 20
639.8253
  0
POINT
  8
3
 10
309.4049
 20
639.4536
  0
POINT
  8
4
 10
314.8468
 20
638.9322
 38
10.0003
 50
263.8405
  0
TEXT
  8
4
 10
314.8468
 20
638.9322
 40
0.1000
 50
0.0000
  1
# 20
  0
POINT
  8
2
 10
314.8468
 20
638.9322
  0
TEXT
  8
2
 10
314.8468
 20
638.9322
 40
0.1000
 50
0.0000
  1
# 20
  0
POINT
  8
3
 10
323.6963
 20
637.8847
  0
POINT
  8
3
 10
332.4738
 20
636.4490
  0
POINT
  8
3
 10
341.1847
 20
634.6116
  0
POINT
  8
3
 10
349.8139
 20
632.4155
  0
POINT
  8
3
 10
358.3490
 20
629.8890
  0
POINT
  8
3
 10
366.7945
 20
627.0682
  0
POINT
  8
3
 10
375.1471
 20
623.9876
  0
POINT
  8
3
 10
383.4162
 20
620.6841
  0
POINT
  8
3
 10
399.7321
 20
613.5543
  0
POINT
  8
3
 10
415.7978
 20
605.8779
  0
POINT
  8
3
 10
431.6925
 20
597.8469
  0
POINT
  8
4
 10
437.6057
 20
594.7973
 38
10.0001
 50
242.8038
  0
TEXT
  8
4
 10
437.6057
 20
594.7973
 40
0.1000
 50
0.0000
  1
# 21
  0
POINT
  8
3
 10
437.6057
 20
594.7973
  0
POINT
  8
3
 10
463.3313
 20
581.4925
  0
POINT
  8
3
 10
479.2524
 20
573.5174
  0
POINT
  8
3
 10
495.3553
 20
565.9150
  0
POINT
  8
3
 10
511.6962
 20
558.8402
  0
POINT
  8
3
 10
528.2807
 20
552.3563
  0
POINT
  8
2
 10
544.9994
 20
546.2269
  0
TEXT
  8
2
 10
544.9994
 20
546.2269
 40
0.1000
 50
0.0000
  1
# 22
  0
POINT
  8
2
 10
476.0407
 20
60.0000
  0
TEXT
  8
2
 10
476.0407
 20
60.0000
 40
0.1000
 50
0.0000
  1
# 23
  0
POINT
  8
2
 10
479.8017
 20
30.0000
  0
TEXT
  8
2
 10
479.8017
 20
30.0000
 40
0.1000
 50
0.0000
  1
# 24
  0
POINT
  8
2
 10
293.0262
 20
30.0010
  0
TEXT
  8
2
 10
293.0262
 20
30.0010
 40
0.1000
 50
0.0000
  1
# 25
  0
POINT
  8
2
 10
106.2506
 20
30.0008
  0
LINE
  8
7
 10
293.0262
 20
60.0005
 11
293.0274
 21
640.1297
  0
POINT
  8
2
 10
293.0262
 20
60.0005
  0
TEXT
  8
2
 10
293.0262
 20
60.0005
 40
0.1000
 50
0.0000
  1
# 27
  0
POINT
  8
2
 10
293.0274
 20
640.1297
  0
TEXT
  8
2
 10
293.0274
 20
640.1297
 40
0.1000
 50
0.0000
  1
# 28
  0
LINE
  8
5
 10
293.0262
 20
60.0005
 11
293.0274
 21
640.1297
  0
LINE
  8
8
 10
544.9994
 20
546.2274
 11
41.0547
 21
546.2278
  0
POINT
  8
2
 10
544.9994
 20
546.2274
  0
TEXT
  8
2
 10
544.9994
 20
546.2274
 40
0.1000
 50
0.0000
  1
# 29
  0
POINT
  8
2
 10
41.0547
 20
546.2278
  0
TEXT
  8
2
 10
41.0547
 20
546.2278
 40
0.1000
 50
0.0000
  1
# 30
  0
LINE
  8
8
 10
293.0262
 20
60.0010
 11
110.0116
 21
60.0013
  0
POINT
  8
2
 10
293.0262
 20
60.0010
  0
TEXT
  8
2
 10
293.0262
 20
60.0010
 40
0.1000
 50
0.0000
  1
# 31
  0
POINT
  8
2
 10
110.0116
 20
60.0013
  0
TEXT
  8
2
 10
110.0116
 20
60.0013
 40
0.1000
 50
0.0000
  1
# 32
  0
LINE
  8
8
 10
293.0262
 20
60.0000
 11
476.0407
 21
60.0005
  0
POINT
  8
2
 10
293.0262
 20
60.0000
  0
TEXT
  8
2
 10
293.0262
 20
60.0000
 40
0.1000
 50
0.0000
  1
# 33
  0
POINT
  8
2
 10
476.0407
 20
60.0005
  0
TEXT
  8
2
 10
476.0407
 20
60.0005
 40
0.1000
 50
0.0000
  1
# 34
  0
LINE
  8
8
 10
293.0268
 20
90.0005
 11
476.0407
 21
90.0000
  0
POINT
  8
2
 10
293.0268
 20
90.0005
  0
TEXT
  8
2
 10
293.0268
 20
90.0005
 40
0.1000
 50
0.0000
  1
# 35
  0
POINT
  8
2
 10
476.0407
 20
90.0000
  0
TEXT
  8
2
 10
476.0407
 20
90.0000
 40
0.1000
 50
0.0000
  1
# 36
  0
LINE
  8
8
 10
293.0268
 20
90.0010
 11
110.0116
 21
90.0008
  0
POINT
  8
2
 10
293.0268
 20
90.0010
  0
TEXT
  8
2
 10
293.0268
 20
90.0010
 40
0.1000
 50
0.0000
  1
# 37
  0
POINT
  8
2
 10
110.0116
 20
90.0008
  0
TEXT
  8
2
 10
110.0116
 20
90.0008
 40
0.1000
 50
0.0000
  1
# 38
  0
POLYLINE
  8
8
 66
1
 70
0
  0
VERTEX
  8
8
 10
134.6656
 20
77.5791
  0
VERTEX
  8
8
 10
146.1624
 20
73.7793
  0
VERTEX
  8
8
 10
157.6593
 20
72.5789
  0
VERTEX
  8
8
 10
180.6525
 20
77.5791
  0
VERTEX
  8
8
 10
203.6457
 20
72.5791
  0
VERTEX
  8
8
 10
226.6394
 20
77.5791
  0
VERTEX
  8
8
 10
249.6326
 20
72.5789
  0
VERTEX
  8
8
 10
272.6264
 20
77.5791
  0
VERTEX
  8
8
 10
295.6195
 20
72.5791
  0
VERTEX
  8
8
 10
318.6133
 20
77.5789
  0
VERTEX
  8
8
 10
341.6071
 20
72.5789
  0
VERTEX
  8
8
 10
364.6003
 20
77.5789
  0
VERTEX
  8
8
 10
387.5934
 20
72.5791
  0
VERTEX
  8
8
 10
410.5866
 20
77.5789
  0
VERTEX
  8
8
 10
433.5797
 20
72.5789
  0
VERTEX
  8
8
 10
445.0763
 20
73.7793
  0
VERTEX
  8
8
 10
456.5735
 20
77.5789
  0
SEQEND
  0
POINT
  8
2
 10
134.6656
 20
77.5791
  0
TEXT
  8
2
 10
134.6656
 20
77.5791
 40
0.1000
 50
0.0000
  1
# 39
  0
POINT
  8
3
 10
146.1624
 20
73.7793
  0
POINT
  8
3
 10
157.6593
 20
72.5789
  0
POINT
  8
3
 10
180.6525
 20
77.5791
  0
POINT
  8
3
 10
203.6457
 20
72.5791
  0
POINT
  8
3
 10
226.6394
 20
77.5791
  0
POINT
  8
3
 10
249.6326
 20
72.5789
  0
POINT
  8
3
 10
272.6264
 20
77.5791
  0
POINT
  8
3
 10
295.6195
 20
72.5791
  0
POINT
  8
3
 10
318.6133
 20
77.5789
  0
POINT
  8
3
 10
341.6071
 20
72.5789
  0
POINT
  8
3
 10
364.6003
 20
77.5789
  0
POINT
  8
3
 10
387.5934
 20
72.5791
  0
POINT
  8
3
 10
410.5866
 20
77.5789
  0
POINT
  8
3
 10
433.5797
 20
72.5789
  0
POINT
  8
3
 10
445.0763
 20
73.7793
  0
POINT
  8
2
 10
456.5735
 20
77.5789
  0
TEXT
  8
2
 10
456.5735
 20
77.5789
 40
0.1000
 50
0.0000
  1
# 40
  0
ENDBLK
  0
BLOCK
  8
0
  2
BLK_4_1
 70
64
 10
0.0000
 20
0.0000
  0
TEXT
  8
1
 10
293.0237
 20
354.3800
 40
2.8000
 50
0.0000
  1
PIECE NAME: 4
  7
STANDARD
  0
TEXT
  8
1
 10
293.0237
 20
351.5800
 40
2.8000
 50
0.0000
  1
SIZE: F
  7
STANDARD
  0
TEXT
  8
1
 10
293.0237
 20
348.7800
 40
2.8000
 50
0.0000
  1
CATEGORY: 
  7
STANDARD
  0
TEXT
  8
1
 10
293.0237
 20
345.9800
 40
2.8000
 50
0.0000
  1
QUANTITY: 1
  7
STANDARD
  0
TEXT
  8
1
 10
293.0237
 20
343.1800
 40
2.8000
 50
0.0000
  1
ANNOTATION: 
  7
STANDARD
  0
POLYLINE
  8
1
 66
1
 70
1
  0
VERTEX
  8
1
 10
96.1670
 20
30.0000
  0
VERTEX
  8
1
 10
99.9176
 20
59.9184
  0
VERTEX
  8
1
 10
30.0000
 20
552.9072
  0
VERTEX
  8
1
 10
37.6941
 20
555.6475
  0
VERTEX
  8
1
 10
54.2664
 20
561.7232
  0
VERTEX
  8
1
 10
70.5628
 20
568.0944
  0
VERTEX
  8
1
 10
86.5552
 20
575.0185
  0
VERTEX
  8
1
 10
102.4134
 20
582.5058
  0
VERTEX
  8
1
 10
118.1848
 20
590.4064
  0
VERTEX
  8
1
 10
143.8720
 20
603.6915
  0
VERTEX
  8
1
 10
149.8084
 20
606.7531
  0
VERTEX
  8
1
 10
165.8393
 20
614.8522
  0
VERTEX
  8
1
 10
182.1289
 20
622.6351
  0
VERTEX
  8
1
 10
198.8074
 20
629.9234
  0
VERTEX
  8
1
 10
207.3267
 20
633.3271
  0
VERTEX
  8
1
 10
215.9326
 20
636.5003
  0
VERTEX
  8
1
 10
224.7168
 20
639.4335
  0
VERTEX
  8
1
 10
233.5950
 20
642.0606
  0
VERTEX
  8
1
 10
242.6233
 20
644.3567
  0
VERTEX
  8
1
 10
251.7371
 20
646.2786
  0
VERTEX
  8
1
 10
260.9265
 20
647.7822
  0
VERTEX
  8
1
 10
270.1972
 20
648.8817
  0
VERTEX
  8
1
 10
275.8362
 20
649.4205
  0
VERTEX
  8
1
 10
281.5381
 20
649.8093
  0
VERTEX
  8
1
 10
287.2656
 20
650.0454
  0
VERTEX
  8
1
 10
293.0725
 20
650.1290
  0
VERTEX
  8
1
 10
308.8758
 20
649.5426
  0
VERTEX
  8
1
 10
324.4672
 20
647.8720
  0
VERTEX
  8
1
 10
339.9555
 20
645.0876
  0
VERTEX
  8
1
 10
355.2344
 20
641.2899
  0
VERTEX
  8
1
 10
370.0763
 20
636.5473
  0
VERTEX
  8
1
 10
384.6680
 20
631.0343
  0
VERTEX
  8
1
 10
398.8220
 20
625.0187
  0
VERTEX
  8
1
 10
412.7814
 20
618.5414
  0
VERTEX
  8
1
 10
417.9384
 20
616.0383
  0
VERTEX
  8
1
 10
426.4264
 20
611.8231
  0
VERTEX
  8
1
 10
427.0081
 20
611.5288
  0
VERTEX
  8
1
 10
439.9719
 20
604.8990
  0
VERTEX
  8
1
 10
466.6809
 20
591.0665
  0
VERTEX
  8
1
 10
479.9780
 20
584.3550
  0
VERTEX
  8
1
 10
493.3838
 20
577.8724
  0
VERTEX
  8
1
 10
506.8927
 20
571.8016
  0
VERTEX
  8
1
 10
520.5493
 20
566.0718
  0
VERTEX
  8
1
 10
530.8881
 20
562.0051
  0
VERTEX
  8
1
 10
548.2953
 20
555.6659
  0
VERTEX
  8
1
 10
556.0474
 20
552.9537
  0
VERTEX
  8
1
 10
486.1243
 20
59.9184
  0
VERTEX
  8
1
 10
489.8749
 20
30.0000
  0
VERTEX
  8
1
 10
293.0213
 20
30.0000
  0
VERTEX
  8
1
 10
96.1670
 20
30.0000
  0
SEQEND
  0
POINT
  8
2
 10
96.1670
 20
30.0000
  0
TEXT
  8
2
 10
96.1670
 20
30.0000
 40
0.1000
 50
0.0000
  1
# 1
  0
POINT
  8
2
 10
99.9176
 20
59.9184
  0
TEXT
  8
2
 10
99.9176
 20
59.9184
 40
0.1000
 50
0.0000
  1
# 2
  0
POINT
  8
2
 10
30.0000
 20
552.9072
  0
TEXT
  8
2
 10
30.0000
 20
552.9072
 40
0.1000
 50
0.0000
  1
# 3
  0
POINT
  8
3
 10
37.6941
 20
555.6475
  0
POINT
  8
3
 10
54.2664
 20
561.7232
  0
POINT
  8
3
 10
70.5628
 20
568.0944
  0
POINT
  8
3
 10
86.5552
 20
575.0185
  0
POINT
  8
3
 10
102.4134
 20
582.5058
  0
POINT
  8
3
 10
118.1848
 20
590.4064
  0
POINT
  8
4
 10
143.8720
 20
603.6915
 38
5.0000
 50
297.1959
  0
TEXT
  8
4
 10
143.8720
 20
603.6915
 40
0.1000
 50
0.0000
  1
# 4
  0
POINT
  8
3
 10
143.8720
 20
603.6915
  0
POINT
  8
3
 10
149.8084
 20
606.7531
  0
POINT
  8
3
 10
165.8393
 20
614.8522
  0
POINT
  8
3
 10
182.1289
 20
622.6351
  0
POINT
  8
3
 10
198.8074
 20
629.9234
  0
POINT
  8
3
 10
207.3267
 20
633.3271
  0
POINT
  8
3
 10
215.9326
 20
636.5003
  0
POINT
  8
3
 10
224.7168
 20
639.4335
  0
POINT
  8
3
 10
233.5950
 20
642.0606
  0
POINT
  8
3
 10
242.6233
 20
644.3567
  0
POINT
  8
3
 10
251.7371
 20
646.2786
  0
POINT
  8
3
 10
260.9265
 20
647.7822
  0
POINT
  8
4
 10
270.1972
 20
648.8817
 38
5.0000
 50
276.1596
  0
TEXT
  8
4
 10
270.1972
 20
648.8817
 40
0.1000
 50
0.0000
  1
# 5
  0
POINT
  8
2
 10
270.1972
 20
648.8817
  0
TEXT
  8
2
 10
270.1972
 20
648.8817
 40
0.1000
 50
0.0000
  1
# 5
  0
POINT
  8
3
 10
275.8362
 20
649.4205
  0
POINT
  8
3
 10
281.5381
 20
649.8093
  0
POINT
  8
3
 10
287.2656
 20
650.0454
  0
POINT
  8
2
 10
293.0725
 20
650.1290
  0
TEXT
  8
2
 10
293.0725
 20
650.1290
 40
0.1000
 50
0.0000
  1
# 6
  0
POINT
  8
3
 10
308.8758
 20
649.5426
  0
POINT
  8
3
 10
324.4672
 20
647.8720
  0
POINT
  8
3
 10
339.9555
 20
645.0876
  0
POINT
  8
3
 10
355.2344
 20
641.2899
  0
POINT
  8
3
 10
370.0763
 20
636.5473
  0
POINT
  8
3
 10
384.6680
 20
631.0343
  0
POINT
  8
3
 10
398.8220
 20
625.0187
  0
POINT
  8
3
 10
412.7814
 20
618.5414
  0
POINT
  8
4
 10
417.9384
 20
616.0383
 38
5.0000
 50
243.9136
  0
TEXT
  8
4
 10
417.9384
 20
616.0383
 40
0.1000
 50
0.0000
  1
# 7
  0
POINT
  8
3
 10
417.9384
 20
616.0383
  0
POINT
  8
3
 10
426.4264
 20
611.8231
  0
POINT
  8
4
 10
427.0081
 20
611.5288
 38
5.0000
 50
243.1659
  0
TEXT
  8
4
 10
427.0081
 20
611.5288
 40
0.1000
 50
0.0000
  1
# 8
  0
POINT
  8
3
 10
427.0081
 20
611.5288
  0
POINT
  8
3
 10
439.9719
 20
604.8990
  0
POINT
  8
3
 10
466.6809
 20
591.0665
  0
POINT
  8
3
 10
479.9780
 20
584.3550
  0
POINT
  8
3
 10
493.3838
 20
577.8724
  0
POINT
  8
3
 10
506.8927
 20
571.8016
  0
POINT
  8
3
 10
520.5493
 20
566.0718
  0
POINT
  8
3
 10
530.8881
 20
562.0051
  0
POINT
  8
3
 10
548.2953
 20
555.6659
  0
POINT
  8
2
 10
556.0474
 20
552.9537
  0
TEXT
  8
2
 10
556.0474
 20
552.9537
 40
0.1000
 50
0.0000
  1
# 9
  0
POINT
  8
2
 10
486.1243
 20
59.9184
  0
TEXT
  8
2
 10
486.1243
 20
59.9184
 40
0.1000
 50
0.0000
  1
# 10
  0
POINT
  8
2
 10
489.8749
 20
30.0000
  0
TEXT
  8
2
 10
489.8749
 20
30.0000
 40
0.1000
 50
0.0000
  1
# 11
  0
POINT
  8
2
 10
293.0213
 20
30.0000
  0
TEXT
  8
2
 10
293.0213
 20
30.0000
 40
0.1000
 50
0.0000
  1
# 12
  0
POINT
  8
2
 10
96.1670
 20
30.0000
  0
POLYLINE
  8
14
 66
1
 70
1
  0
VERTEX
  8
14
 10
106.2451
 20
30.0000
  0
VERTEX
  8
14
 10
110.0061
 20
60.0000
  0
VERTEX
  8
14
 10
41.0486
 20
546.2268
  0
VERTEX
  8
14
 10
57.7674
 20
552.3563
  0
VERTEX
  8
14
 10
74.3524
 20
558.8402
  0
VERTEX
  8
14
 10
90.6934
 20
565.9150
  0
VERTEX
  8
14
 10
106.7957
 20
573.5172
  0
VERTEX
  8
14
 10
122.7173
 20
581.4925
  0
VERTEX
  8
14
 10
148.4425
 20
594.7969
  0
VERTEX
  8
14
 10
154.3561
 20
597.8467
  0
VERTEX
  8
14
 10
170.2503
 20
605.8777
  0
VERTEX
  8
14
 10
186.3165
 20
613.5541
  0
VERTEX
  8
14
 10
202.6325
 20
620.6838
  0
VERTEX
  8
14
 10
210.9021
 20
623.9873
  0
VERTEX
  8
14
 10
219.2542
 20
627.0679
  0
VERTEX
  8
14
 10
227.6990
 20
629.8886
  0
VERTEX
  8
14
 10
236.2348
 20
632.4152
  0
VERTEX
  8
14
 10
244.8645
 20
634.6112
  0
VERTEX
  8
14
 10
253.5742
 20
636.4486
  0
VERTEX
  8
14
 10
262.3517
 20
637.8843
  0
VERTEX
  8
14
 10
271.2018
 20
638.9319
  0
VERTEX
  8
14
 10
276.6437
 20
639.4532
  0
VERTEX
  8
14
 10
282.0954
 20
639.8249
  0
VERTEX
  8
14
 10
287.5568
 20
640.0495
  0
VERTEX
  8
14
 10
293.0207
 20
640.1290
  0
VERTEX
  8
14
 10
308.1085
 20
639.5708
  0
VERTEX
  8
14
 10
323.0487
 20
637.9726
  0
VERTEX
  8
14
 10
337.8687
 20
635.3096
  0
VERTEX
  8
14
 10
352.4890
 20
631.6738
  0
VERTEX
  8
14
 10
366.8286
 20
627.0888
  0
VERTEX
  8
14
 10
380.9271
 20
621.7604
  0
VERTEX
  8
14
 10
394.7864
 20
615.8677
  0
VERTEX
  8
14
 10
408.4558
 20
609.5253
  0
VERTEX
  8
14
 10
413.5400
 20
607.0571
  0
VERTEX
  8
14
 10
421.9696
 20
602.8704
  0
VERTEX
  8
14
 10
422.4939
 20
602.6052
  0
VERTEX
  8
14
 10
435.3858
 20
596.0131
  0
VERTEX
  8
14
 10
462.1405
 20
582.1566
  0
VERTEX
  8
14
 10
475.5921
 20
575.3682
  0
VERTEX
  8
14
 10
489.1529
 20
568.8114
  0
VERTEX
  8
14
 10
502.8931
 20
562.6368
  0
VERTEX
  8
14
 10
516.7835
 20
556.8079
  0
VERTEX
  8
14
 10
530.8161
 20
551.3393
  0
VERTEX
  8
14
 10
544.9933
 20
546.2268
  0
VERTEX
  8
14
 10
476.0352
 20
60.0000
  0
VERTEX
  8
14
 10
479.7962
 20
30.0000
  0
VERTEX
  8
14
 10
293.0213
 20
30.0005
  0
VERTEX
  8
14
 10
106.2451
 20
30.0000
  0
SEQEND
  0
POINT
  8
2
 10
106.2451
 20
30.0000
  0
TEXT
  8
2
 10
106.2451
 20
30.0000
 40
0.1000
 50
0.0000
  1
# 14
  0
POINT
  8
2
 10
110.0061
 20
60.0000
  0
TEXT
  8
2
 10
110.0061
 20
60.0000
 40
0.1000
 50
0.0000
  1
# 15
  0
POINT
  8
2
 10
41.0486
 20
546.2268
  0
TEXT
  8
2
 10
41.0486
 20
546.2268
 40
0.1000
 50
0.0000
  1
# 16
  0
POINT
  8
3
 10
57.7674
 20
552.3563
  0
POINT
  8
3
 10
74.3524
 20
558.8402
  0
POINT
  8
3
 10
90.6934
 20
565.9150
  0
POINT
  8
3
 10
106.7957
 20
573.5172
  0
POINT
  8
3
 10
122.7173
 20
581.4925
  0
POINT
  8
4
 10
148.4425
 20
594.7969
 38
9.9996
 50
297.8238
  0
TEXT
  8
4
 10
148.4425
 20
594.7969
 40
0.1000
 50
0.0000
  1
# 17
  0
POINT
  8
3
 10
148.4425
 20
594.7969
  0
POINT
  8
3
 10
154.3561
 20
597.8467
  0
POINT
  8
3
 10
170.2503
 20
605.8777
  0
POINT
  8
3
 10
186.3165
 20
613.5541
  0
POINT
  8
3
 10
202.6325
 20
620.6838
  0
POINT
  8
3
 10
210.9021
 20
623.9873
  0
POINT
  8
3
 10
219.2542
 20
627.0679
  0
POINT
  8
3
 10
227.6990
 20
629.8886
  0
POINT
  8
3
 10
236.2348
 20
632.4152
  0
POINT
  8
3
 10
244.8645
 20
634.6112
  0
POINT
  8
3
 10
253.5742
 20
636.4486
  0
POINT
  8
3
 10
262.3517
 20
637.8843
  0
POINT
  8
4
 10
271.2018
 20
638.9319
 38
10.0003
 50
276.1561
  0
TEXT
  8
4
 10
271.2018
 20
638.9319
 40
0.1000
 50
0.0000
  1
# 18
  0
POINT
  8
2
 10
271.2018
 20
638.9319
  0
TEXT
  8
2
 10
271.2018
 20
638.9319
 40
0.1000
 50
0.0000
  1
# 18
  0
POINT
  8
3
 10
276.6437
 20
639.4532
  0
POINT
  8
3
 10
282.0954
 20
639.8249
  0
POINT
  8
3
 10
287.5568
 20
640.0495
  0
POINT
  8
2
 10
293.0207
 20
640.1290
  0
TEXT
  8
2
 10
293.0207
 20
640.1290
 40
0.1000
 50
0.0000
  1
# 19
  0
POINT
  8
3
 10
308.1085
 20
639.5708
  0
POINT
  8
3
 10
323.0487
 20
637.9726
  0
POINT
  8
3
 10
337.8687
 20
635.3096
  0
POINT
  8
3
 10
352.4890
 20
631.6738
  0
POINT
  8
3
 10
366.8286
 20
627.0888
  0
POINT
  8
3
 10
380.9271
 20
621.7604
  0
POINT
  8
3
 10
394.7864
 20
615.8677
  0
POINT
  8
3
 10
408.4558
 20
609.5253
  0
POINT
  8
4
 10
413.5400
 20
607.0571
 38
9.9998
 50
243.8993
  0
TEXT
  8
4
 10
413.5400
 20
607.0571
 40
0.1000
 50
0.0000
  1
# 20
  0
POINT
  8
3
 10
413.5400
 20
607.0571
  0
POINT
  8
3
 10
421.9696
 20
602.8704
  0
POINT
  8
4
 10
422.4939
 20
602.6052
 38
9.9999
 50
243.1416
  0
TEXT
  8
4
 10
422.4939
 20
602.6052
 40
0.1000
 50
0.0000
  1
# 21
  0
POINT
  8
3
 10
422.4939
 20
602.6052
  0
POINT
  8
3
 10
435.3858
 20
596.0131
  0
POINT
  8
3
 10
462.1405
 20
582.1566
  0
POINT
  8
3
 10
475.5921
 20
575.3682
  0
POINT
  8
3
 10
489.1529
 20
568.8114
  0
POINT
  8
3
 10
502.8931
 20
562.6368
  0
POINT
  8
3
 10
516.7835
 20
556.8079
  0
POINT
  8
3
 10
530.8161
 20
551.3393
  0
POINT
  8
2
 10
544.9933
 20
546.2268
  0
TEXT
  8
2
 10
544.9933
 20
546.2268
 40
0.1000
 50
0.0000
  1
# 22
  0
POINT
  8
2
 10
476.0352
 20
60.0000
  0
TEXT
  8
2
 10
476.0352
 20
60.0000
 40
0.1000
 50
0.0000
  1
# 23
  0
POINT
  8
2
 10
479.7962
 20
30.0000
  0
TEXT
  8
2
 10
479.7962
 20
30.0000
 40
0.1000
 50
0.0000
  1
# 24
  0
POINT
  8
2
 10
293.0213
 20
30.0005
  0
TEXT
  8
2
 10
293.0213
 20
30.0005
 40
0.1000
 50
0.0000
  1
# 25
  0
POINT
  8
2
 10
106.2451
 20
30.0000
  0
LINE
  8
7
 10
293.0213
 20
60.0000
 11
293.0213
 21
640.1293
  0
POINT
  8
2
 10
293.0213
 20
60.0000
  0
TEXT
  8
2
 10
293.0213
 20
60.0000
 40
0.1000
 50
0.0000
  1
# 27
  0
POINT
  8
2
 10
293.0213
 20
640.1293
  0
TEXT
  8
2
 10
293.0213
 20
640.1293
 40
0.1000
 50
0.0000
  1
# 28
  0
LINE
  8
5
 10
293.0213
 20
60.0000
 11
293.0213
 21
640.1293
  0
LINE
  8
8
 10
41.0486
 20
546.2273
 11
544.9933
 21
546.2273
  0
POINT
  8
2
 10
41.0486
 20
546.2273
  0
TEXT
  8
2
 10
41.0486
 20
546.2273
 40
0.1000
 50
0.0000
  1
# 29
  0
POINT
  8
2
 10
544.9933
 20
546.2273
  0
TEXT
  8
2
 10
544.9933
 20
546.2273
 40
0.1000
 50
0.0000
  1
# 30
  0
LINE
  8
8
 10
293.0213
 20
60.0005
 11
476.0352
 21
60.0005
  0
POINT
  8
2
 10
293.0213
 20
60.0005
  0
TEXT
  8
2
 10
293.0213
 20
60.0005
 40
0.1000
 50
0.0000
  1
# 31
  0
POINT
  8
2
 10
476.0352
 20
60.0005
  0
TEXT
  8
2
 10
476.0352
 20
60.0005
 40
0.1000
 50
0.0000
  1
# 32
  0
LINE
  8
8
 10
293.0213
 20
59.9995
 11
110.0061
 21
60.0005
  0
POINT
  8
2
 10
293.0213
 20
59.9995
  0
TEXT
  8
2
 10
293.0213
 20
59.9995
 40
0.1000
 50
0.0000
  1
# 33
  0
POINT
  8
2
 10
110.0061
 20
60.0005
  0
TEXT
  8
2
 10
110.0061
 20
60.0005
 40
0.1000
 50
0.0000
  1
# 34
  0
LINE
  8
8
 10
293.0213
 20
90.0000
 11
110.0061
 21
90.0000
  0
POINT
  8
2
 10
293.0213
 20
90.0000
  0
TEXT
  8
2
 10
293.0213
 20
90.0000
 40
0.1000
 50
0.0000
  1
# 35
  0
POINT
  8
2
 10
110.0061
 20
90.0000
  0
TEXT
  8
2
 10
110.0061
 20
90.0000
 40
0.1000
 50
0.0000
  1
# 36
  0
LINE
  8
8
 10
293.0213
 20
90.0005
 11
476.0352
 21
90.0000
  0
POINT
  8
2
 10
293.0213
 20
90.0005
  0
TEXT
  8
2
 10
293.0213
 20
90.0005
 40
0.1000
 50
0.0000
  1
# 37
  0
POINT
  8
2
 10
476.0352
 20
90.0000
  0
TEXT
  8
2
 10
476.0352
 20
90.0000
 40
0.1000
 50
0.0000
  1
# 38
  0
POLYLINE
  8
8
 66
1
 70
0
  0
VERTEX
  8
8
 10
451.3819
 20
77.5783
  0
VERTEX
  8
8
 10
439.8853
 20
73.7786
  0
VERTEX
  8
8
 10
428.3881
 20
72.5783
  0
VERTEX
  8
8
 10
405.3949
 20
77.5785
  0
VERTEX
  8
8
 10
382.4011
 20
72.5785
  0
VERTEX
  8
8
 10
359.4080
 20
77.5785
  0
VERTEX
  8
8
 10
336.4148
 20
72.5785
  0
VERTEX
  8
8
 10
313.4217
 20
77.5786
  0
VERTEX
  8
8
 10
290.4279
 20
72.5786
  0
VERTEX
  8
8
 10
267.4341
 20
77.5786
  0
VERTEX
  8
8
 10
244.4409
 20
72.5786
  0
VERTEX
  8
8
 10
221.4478
 20
77.5786
  0
VERTEX
  8
8
 10
198.4540
 20
72.5788
  0
VERTEX
  8
8
 10
175.4602
 20
77.5788
  0
VERTEX
  8
8
 10
152.4671
 20
72.5788
  0
VERTEX
  8
8
 10
140.9705
 20
73.7792
  0
VERTEX
  8
8
 10
129.4739
 20
77.5788
  0
SEQEND
  0
POINT
  8
2
 10
451.3819
 20
77.5783
  0
TEXT
  8
2
 10
451.3819
 20
77.5783
 40
0.1000
 50
0.0000
  1
# 39
  0
POINT
  8
3
 10
439.8853
 20
73.7786
  0
POINT
  8
3
 10
428.3881
 20
72.5783
  0
POINT
  8
3
 10
405.3949
 20
77.5785
  0
POINT
  8
3
 10
382.4011
 20
72.5785
  0
POINT
  8
3
 10
359.4080
 20
77.5785
  0
POINT
  8
3
 10
336.4148
 20
72.5785
  0
POINT
  8
3
 10
313.4217
 20
77.5786
  0
POINT
  8
3
 10
290.4279
 20
72.5786
  0
POINT
  8
3
 10
267.4341
 20
77.5786
  0
POINT
  8
3
 10
244.4409
 20
72.5786
  0
POINT
  8
3
 10
221.4478
 20
77.5786
  0
POINT
  8
3
 10
198.4540
 20
72.5788
  0
POINT
  8
3
 10
175.4602
 20
77.5788
  0
POINT
  8
3
 10
152.4671
 20
72.5788
  0
POINT
  8
3
 10
140.9705
 20
73.7792
  0
POINT
  8
2
 10
129.4739
 20
77.5788
  0
TEXT
  8
2
 10
129.4739
 20
77.5788
 40
0.1000
 50
0.0000
  1
# 40
  0
ENDBLK
  0
BLOCK
  8
0
  2
BLK_5_1
 70
64
 10
0.0000
 20
0.0000
  0
TEXT
  8
1
 10
189.4403
 20
252.2634
 40
2.8000
 50
0.0000
  1
PIECE NAME: 5
  7
STANDARD
  0
TEXT
  8
1
 10
189.4403
 20
249.4634
 40
2.8000
 50
0.0000
  1
SIZE: F
  7
STANDARD
  0
TEXT
  8
1
 10
189.4403
 20
246.6634
 40
2.8000
 50
0.0000
  1
CATEGORY: 
  7
STANDARD
  0
TEXT
  8
1
 10
189.4403
 20
243.8634
 40
2.8000
 50
0.0000
  1
QUANTITY: 1
  7
STANDARD
  0
TEXT
  8
1
 10
189.4403
 20
241.0634
 40
2.8000
 50
0.0000
  1
ANNOTATION: 
  7
STANDARD
  0
POLYLINE
  8
1
 66
1
 70
1
  0
VERTEX
  8
1
 10
30.0000
 20
30.0000
  0
VERTEX
  8
1
 10
30.0000
 20
446.2680
  0
VERTEX
  8
1
 10
60.0000
 20
446.2680
  0
VERTEX
  8
1
 10
68.9343
 20
446.9140
  0
VERTEX
  8
1
 10
78.6157
 20
447.5841
  0
VERTEX
  8
1
 10
88.3728
 20
448.2169
  0
VERTEX
  8
1
 10
98.1116
 20
448.7616
  0
VERTEX
  8
1
 10
107.9101
 20
449.1983
  0
VERTEX
  8
1
 10
117.6977
 20
449.5020
  0
VERTEX
  8
1
 10
127.5220
 20
449.6459
  0
VERTEX
  8
1
 10
137.3700
 20
449.6018
  0
VERTEX
  8
1
 10
147.2662
 20
449.3366
  0
VERTEX
  8
1
 10
157.2455
 20
448.8256
  0
VERTEX
  8
1
 10
167.1600
 20
448.0318
  0
VERTEX
  8
1
 10
177.0752
 20
446.9217
  0
VERTEX
  8
1
 10
187.0453
 20
445.4479
  0
VERTEX
  8
1
 10
191.4471
 20
444.6687
  0
VERTEX
  8
1
 10
196.9037
 20
443.5939
  0
VERTEX
  8
1
 10
205.1343
 20
441.7228
  0
VERTEX
  8
1
 10
213.2141
 20
439.5290
  0
VERTEX
  8
1
 10
221.2646
 20
436.9938
  0
VERTEX
  8
1
 10
229.1962
 20
434.1102
  0
VERTEX
  8
1
 10
236.9769
 20
430.8413
  0
VERTEX
  8
1
 10
244.6130
 20
427.2403
  0
VERTEX
  8
1
 10
252.0190
 20
423.3880
  0
VERTEX
  8
1
 10
259.2718
 20
419.2518
  0
VERTEX
  8
1
 10
266.4941
 20
414.8262
  0
VERTEX
  8
1
 10
273.5022
 20
410.0798
  0
VERTEX
  8
1
 10
280.2283
 20
404.8874
  0
VERTEX
  8
1
 10
286.7004
 20
399.3734
  0
VERTEX
  8
1
 10
292.9010
 20
393.6742
  0
VERTEX
  8
1
 10
298.8354
 20
387.7013
  0
VERTEX
  8
1
 10
304.5495
 20
381.3825
  0
VERTEX
  8
1
 10
309.9255
 20
374.7783
  0
VERTEX
  8
1
 10
314.9841
 20
367.8032
  0
VERTEX
  8
1
 10
319.6118
 20
360.5404
  0
VERTEX
  8
1
 10
323.7073
 20
352.9897
  0
VERTEX
  8
1
 10
327.3572
 20
345.2062
  0
VERTEX
  8
1
 10
330.5908
 20
337.3298
  0
VERTEX
  8
1
 10
333.4009
 20
329.2931
  0
VERTEX
  8
1
 10
335.8056
 20
321.0639
  0
VERTEX
  8
1
 10
337.7496
 20
312.7161
  0
VERTEX
  8
1
 10
339.1388
 20
304.3419
  0
VERTEX
  8
1
 10
340.1160
 20
295.9018
  0
VERTEX
  8
1
 10
340.7861
 20
287.5843
  0
VERTEX
  8
1
 10
341.1218
 20
279.2292
  0
VERTEX
  8
1
 10
341.3805
 20
269.6441
  0
VERTEX
  8
1
 10
341.8426
 20
249.2331
  0
VERTEX
  8
1
 10
342.2851
 20
219.2112
  0
VERTEX
  8
1
 10
342.2595
 20
89.7826
  0
VERTEX
  8
1
 10
332.6636
 20
89.4083
  0
VERTEX
  8
1
 10
321.4886
 20
88.8772
  0
VERTEX
  8
1
 10
310.3338
 20
88.0938
  0
VERTEX
  8
1
 10
299.2737
 20
87.0897
  0
VERTEX
  8
1
 10
288.2471
 20
85.7837
  0
VERTEX
  8
1
 10
277.1680
 20
84.0146
  0
VERTEX
  8
1
 10
266.1188
 20
82.0401
  0
VERTEX
  8
1
 10
255.0598
 20
80.1503
  0
VERTEX
  8
1
 10
244.0417
 20
78.0587
  0
VERTEX
  8
1
 10
233.2300
 20
75.5510
  0
VERTEX
  8
1
 10
222.4866
 20
72.7536
  0
VERTEX
  8
1
 10
211.7004
 20
69.7211
  0
VERTEX
  8
1
 10
200.9814
 20
66.4546
  0
VERTEX
  8
1
 10
194.5874
 20
64.3731
  0
VERTEX
  8
1
 10
159.3664
 20
52.4355
  0
VERTEX
  8
1
 10
152.0434
 20
50.0477
  0
VERTEX
  8
1
 10
144.7357
 20
47.7552
  0
VERTEX
  8
1
 10
134.1052
 20
44.5839
  0
VERTEX
  8
1
 10
123.3752
 20
41.4991
  0
VERTEX
  8
1
 10
112.0776
 20
38.5369
  0
VERTEX
  8
1
 10
106.2720
 20
37.1512
  0
VERTEX
  8
1
 10
100.4773
 20
35.8963
  0
VERTEX
  8
1
 10
94.9255
 20
34.8404
  0
VERTEX
  8
1
 10
89.3640
 20
33.9170
  0
VERTEX
  8
1
 10
78.5852
 20
32.3235
  0
VERTEX
  8
1
 10
69.2554
 20
31.0814
  0
VERTEX
  8
1
 10
61.0974
 20
30.1214
  0
VERTEX
  8
1
 10
60.0000
 20
30.0000
  0
VERTEX
  8
1
 10
30.0000
 20
30.0000
  0
SEQEND
  0
POINT
  8
2
 10
30.0000
 20
30.0000
  0
TEXT
  8
2
 10
30.0000
 20
30.0000
 40
0.1000
 50
0.0000
  1
# 1
  0
POINT
  8
2
 10
30.0000
 20
446.2680
  0
TEXT
  8
2
 10
30.0000
 20
446.2680
 40
0.1000
 50
0.0000
  1
# 2
  0
POINT
  8
2
 10
60.0000
 20
446.2680
  0
TEXT
  8
2
 10
60.0000
 20
446.2680
 40
0.1000
 50
0.0000
  1
# 3
  0
POINT
  8
3
 10
68.9343
 20
446.9140
  0
POINT
  8
3
 10
78.6157
 20
447.5841
  0
POINT
  8
3
 10
88.3728
 20
448.2169
  0
POINT
  8
3
 10
98.1116
 20
448.7616
  0
POINT
  8
3
 10
107.9101
 20
449.1983
  0
POINT
  8
3
 10
117.6977
 20
449.5020
  0
POINT
  8
3
 10
127.5220
 20
449.6459
  0
POINT
  8
3
 10
137.3700
 20
449.6018
  0
POINT
  8
3
 10
147.2662
 20
449.3366
  0
POINT
  8
3
 10
157.2455
 20
448.8256
  0
POINT
  8
3
 10
167.1600
 20
448.0318
  0
POINT
  8
3
 10
177.0752
 20
446.9217
  0
POINT
  8
3
 10
187.0453
 20
445.4479
  0
POINT
  8
4
 10
191.4471
 20
444.6687
 38
5.0000
 50
259.4854
  0
TEXT
  8
4
 10
191.4471
 20
444.6687
 40
0.1000
 50
0.0000
  1
# 4
  0
POINT
  8
3
 10
191.4471
 20
444.6687
  0
POINT
  8
2
 10
196.9037
 20
443.5939
  0
TEXT
  8
2
 10
196.9037
 20
443.5939
 40
0.1000
 50
0.0000
  1
# 5
  0
POINT
  8
3
 10
205.1343
 20
441.7228
  0
POINT
  8
3
 10
213.2141
 20
439.5290
  0
POINT
  8
3
 10
221.2646
 20
436.9938
  0
POINT
  8
3
 10
229.1962
 20
434.1102
  0
POINT
  8
3
 10
236.9769
 20
430.8413
  0
POINT
  8
3
 10
244.6130
 20
427.2403
  0
POINT
  8
3
 10
252.0190
 20
423.3880
  0
POINT
  8
3
 10
259.2718
 20
419.2518
  0
POINT
  8
3
 10
266.4941
 20
414.8262
  0
POINT
  8
3
 10
273.5022
 20
410.0798
  0
POINT
  8
3
 10
280.2283
 20
404.8874
  0
POINT
  8
3
 10
286.7004
 20
399.3734
  0
POINT
  8
3
 10
292.9010
 20
393.6742
  0
POINT
  8
3
 10
298.8354
 20
387.7013
  0
POINT
  8
3
 10
304.5495
 20
381.3825
  0
POINT
  8
3
 10
309.9255
 20
374.7783
  0
POINT
  8
3
 10
314.9841
 20
367.8032
  0
POINT
  8
3
 10
319.6118
 20
360.5404
  0
POINT
  8
3
 10
323.7073
 20
352.9897
  0
POINT
  8
3
 10
327.3572
 20
345.2062
  0
POINT
  8
3
 10
330.5908
 20
337.3298
  0
POINT
  8
3
 10
333.4009
 20
329.2931
  0
POINT
  8
3
 10
335.8056
 20
321.0639
  0
POINT
  8
3
 10
337.7496
 20
312.7161
  0
POINT
  8
3
 10
339.1388
 20
304.3419
  0
POINT
  8
3
 10
340.1160
 20
295.9018
  0
POINT
  8
3
 10
340.7861
 20
287.5843
  0
POINT
  8
2
 10
341.1218
 20
279.2292
  0
TEXT
  8
2
 10
341.1218
 20
279.2292
 40
0.1000
 50
0.0000
  1
# 6
  0
POINT
  8
4
 10
341.3805
 20
269.6441
 38
5.0000
 50
181.4452
  0
TEXT
  8
4
 10
341.3805
 20
269.6441
 40
0.1000
 50
0.0000
  1
# 7
  0
POINT
  8
3
 10
341.3805
 20
269.6441
  0
POINT
  8
3
 10
341.8426
 20
249.2331
  0
POINT
  8
3
 10
342.2851
 20
219.2112
  0
POINT
  8
2
 10
342.2595
 20
89.7826
  0
TEXT
  8
2
 10
342.2595
 20
89.7826
 40
0.1000
 50
0.0000
  1
# 8
  0
POINT
  8
3
 10
332.6636
 20
89.4083
  0
POINT
  8
3
 10
321.4886
 20
88.8772
  0
POINT
  8
3
 10
310.3338
 20
88.0938
  0
POINT
  8
3
 10
299.2737
 20
87.0897
  0
POINT
  8
3
 10
288.2471
 20
85.7837
  0
POINT
  8
3
 10
277.1680
 20
84.0146
  0
POINT
  8
3
 10
266.1188
 20
82.0401
  0
POINT
  8
3
 10
255.0598
 20
80.1503
  0
POINT
  8
3
 10
244.0417
 20
78.0587
  0
POINT
  8
3
 10
233.2300
 20
75.5510
  0
POINT
  8
3
 10
222.4866
 20
72.7536
  0
POINT
  8
3
 10
211.7004
 20
69.7211
  0
POINT
  8
4
 10
200.9814
 20
66.4546
 38
5.0000
 50
107.4235
  0
TEXT
  8
4
 10
200.9814
 20
66.4546
 40
0.1000
 50
0.0000
  1
# 9
  0
POINT
  8
2
 10
200.9814
 20
66.4546
  0
TEXT
  8
2
 10
200.9814
 20
66.4546
 40
0.1000
 50
0.0000
  1
# 9
  0
POINT
  8
3
 10
194.5874
 20
64.3731
  0
POINT
  8
3
 10
159.3664
 20
52.4355
  0
POINT
  8
3
 10
152.0434
 20
50.0477
  0
POINT
  8
3
 10
144.7357
 20
47.7552
  0
POINT
  8
3
 10
134.1052
 20
44.5839
  0
POINT
  8
3
 10
123.3752
 20
41.4991
  0
POINT
  8
3
 10
112.0776
 20
38.5369
  0
POINT
  8
3
 10
106.2720
 20
37.1512
  0
POINT
  8
3
 10
100.4773
 20
35.8963
  0
POINT
  8
3
 10
94.9255
 20
34.8404
  0
POINT
  8
3
 10
89.3640
 20
33.9170
  0
POINT
  8
3
 10
78.5852
 20
32.3235
  0
POINT
  8
3
 10
69.2554
 20
31.0814
  0
POINT
  8
3
 10
61.0974
 20
30.1214
  0
POINT
  8
2
 10
60.0000
 20
30.0000
  0
TEXT
  8
2
 10
60.0000
 20
30.0000
 40
0.1000
 50
0.0000
  1
# 10
  0
POINT
  8
2
 10
30.0000
 20
30.0000
  0
POLYLINE
  8
14
 66
1
 70
1
  0
VERTEX
  8
14
 10
60.0000
 20
40.0609
  0
VERTEX
  8
14
 10
60.0000
 20
436.2409
  0
VERTEX
  8
14
 10
69.6435
 20
436.9391
  0
VERTEX
  8
14
 10
79.2901
 20
437.6069
  0
VERTEX
  8
14
 10
88.9392
 20
438.2328
  0
VERTEX
  8
14
 10
98.5931
 20
438.7732
  0
VERTEX
  8
14
 10
108.2525
 20
439.2041
  0
VERTEX
  8
14
 10
117.9169
 20
439.5044
  0
VERTEX
  8
14
 10
127.5854
 20
439.6460
  0
VERTEX
  8
14
 10
137.2540
 20
439.6024
  0
VERTEX
  8
14
 10
146.9195
 20
439.3424
  0
VERTEX
  8
14
 10
156.5759
 20
438.8480
  0
VERTEX
  8
14
 10
166.2134
 20
438.0765
  0
VERTEX
  8
14
 10
175.8227
 20
437.0005
  0
VERTEX
  8
14
 10
185.3869
 20
435.5863
  0
VERTEX
  8
14
 10
189.6216
 20
434.8367
  0
VERTEX
  8
14
 10
194.8889
 20
433.7989
  0
VERTEX
  8
14
 10
202.6947
 20
432.0234
  0
VERTEX
  8
14
 10
210.4077
 20
429.9308
  0
VERTEX
  8
14
 10
218.0371
 20
427.5295
  0
VERTEX
  8
14
 10
225.5530
 20
424.7971
  0
VERTEX
  8
14
 10
232.9254
 20
421.6997
  0
VERTEX
  8
14
 10
240.1593
 20
418.2868
  0
VERTEX
  8
14
 10
247.2534
 20
414.5940
  0
VERTEX
  8
14
 10
254.2023
 20
410.6321
  0
VERTEX
  8
14
 10
261.0266
 20
406.4537
  0
VERTEX
  8
14
 10
267.6483
 20
401.9715
  0
VERTEX
  8
14
 10
273.9758
 20
397.0845
  0
VERTEX
  8
14
 10
280.0629
 20
391.8940
  0
VERTEX
  8
14
 10
285.9509
 20
386.4812
  0
VERTEX
  8
14
 10
291.5881
 20
380.8109
  0
VERTEX
  8
14
 10
296.9543
 20
374.8763
  0
VERTEX
  8
14
 10
302.0044
 20
368.6744
  0
VERTEX
  8
14
 10
306.7004
 20
362.2036
  0
VERTEX
  8
14
 10
310.9949
 20
355.4645
  0
VERTEX
  8
14
 10
314.8047
 20
348.4355
  0
VERTEX
  8
14
 10
318.1988
 20
341.1898
  0
VERTEX
  8
14
 10
321.2353
 20
333.7908
  0
VERTEX
  8
14
 10
323.8775
 20
326.2426
  0
VERTEX
  8
14
 10
326.1249
 20
318.5654
  0
VERTEX
  8
14
 10
327.9388
 20
310.7772
  0
VERTEX
  8
14
 10
329.2444
 20
302.8908
  0
VERTEX
  8
14
 10
330.1623
 20
294.9425
  0
VERTEX
  8
14
 10
330.8020
 20
286.9756
  0
VERTEX
  8
14
 10
331.1255
 20
278.9771
  0
VERTEX
  8
14
 10
331.3849
 20
269.3918
  0
VERTEX
  8
14
 10
331.8451
 20
249.0532
  0
VERTEX
  8
14
 10
332.2858
 20
219.1263
  0
VERTEX
  8
14
 10
332.2742
 20
99.4008
  0
VERTEX
  8
14
 10
320.8905
 20
98.8604
  0
VERTEX
  8
14
 10
309.5276
 20
98.0613
  0
VERTEX
  8
14
 10
298.1781
 20
97.0282
  0
VERTEX
  8
14
 10
286.8634
 20
95.6878
  0
VERTEX
  8
14
 10
275.6164
 20
93.8942
  0
VERTEX
  8
14
 10
264.3994
 20
91.8912
  0
VERTEX
  8
14
 10
253.1677
 20
89.9704
  0
VERTEX
  8
14
 10
241.9787
 20
87.8438
  0
VERTEX
  8
14
 10
230.8801
 20
85.2695
  0
VERTEX
  8
14
 10
219.8511
 20
82.4003
  0
VERTEX
  8
14
 10
208.8849
 20
79.3178
  0
VERTEX
  8
14
 10
197.9834
 20
75.9948
  0
VERTEX
  8
14
 10
191.3818
 20
73.8453
  0
VERTEX
  8
14
 10
156.1816
 20
61.9146
  0
VERTEX
  8
14
 10
148.9966
 20
59.5719
  0
VERTEX
  8
14
 10
141.7810
 20
57.3087
  0
VERTEX
  8
14
 10
131.2866
 20
54.1787
  0
VERTEX
  8
14
 10
120.7068
 20
51.1367
  0
VERTEX
  8
14
 10
109.6338
 20
48.2334
  0
VERTEX
  8
14
 10
104.0759
 20
46.9071
  0
VERTEX
  8
14
 10
98.4900
 20
45.6968
  0
VERTEX
  8
14
 10
93.1738
 20
44.6859
  0
VERTEX
  8
14
 10
87.8345
 20
43.7993
  0
VERTEX
  8
14
 10
77.1667
 20
42.2226
  0
VERTEX
  8
14
 10
68.0237
 20
41.0053
  0
VERTEX
  8
14
 10
60.0000
 20
40.0609
  0
SEQEND
  0
POINT
  8
2
 10
60.0000
 20
40.0609
  0
TEXT
  8
2
 10
60.0000
 20
40.0609
 40
0.1000
 50
0.0000
  1
# 12
  0
POINT
  8
2
 10
60.0000
 20
436.2409
  0
TEXT
  8
2
 10
60.0000
 20
436.2409
 40
0.1000
 50
0.0000
  1
# 13
  0
POINT
  8
3
 10
69.6435
 20
436.9391
  0
POINT
  8
3
 10
79.2901
 20
437.6069
  0
POINT
  8
3
 10
88.9392
 20
438.2328
  0
POINT
  8
3
 10
98.5931
 20
438.7732
  0
POINT
  8
3
 10
108.2525
 20
439.2041
  0
POINT
  8
3
 10
117.9169
 20
439.5044
  0
POINT
  8
3
 10
127.5854
 20
439.6460
  0
POINT
  8
3
 10
137.2540
 20
439.6024
  0
POINT
  8
3
 10
146.9195
 20
439.3424
  0
POINT
  8
3
 10
156.5759
 20
438.8480
  0
POINT
  8
3
 10
166.2134
 20
438.0765
  0
POINT
  8
3
 10
175.8227
 20
437.0005
  0
POINT
  8
3
 10
185.3869
 20
435.5863
  0
POINT
  8
4
 10
189.6216
 20
434.8367
 38
9.9999
 50
259.4809
  0
TEXT
  8
4
 10
189.6216
 20
434.8367
 40
0.1000
 50
0.0000
  1
# 14
  0
POINT
  8
3
 10
189.6216
 20
434.8367
  0
POINT
  8
2
 10
194.8889
 20
433.7989
  0
TEXT
  8
2
 10
194.8889
 20
433.7989
 40
0.1000
 50
0.0000
  1
# 15
  0
POINT
  8
3
 10
202.6947
 20
432.0234
  0
POINT
  8
3
 10
210.4077
 20
429.9308
  0
POINT
  8
3
 10
218.0371
 20
427.5295
  0
POINT
  8
3
 10
225.5530
 20
424.7971
  0
POINT
  8
3
 10
232.9254
 20
421.6997
  0
POINT
  8
3
 10
240.1593
 20
418.2868
  0
POINT
  8
3
 10
247.2534
 20
414.5940
  0
POINT
  8
3
 10
254.2023
 20
410.6321
  0
POINT
  8
3
 10
261.0266
 20
406.4537
  0
POINT
  8
3
 10
267.6483
 20
401.9715
  0
POINT
  8
3
 10
273.9758
 20
397.0845
  0
POINT
  8
3
 10
280.0629
 20
391.8940
  0
POINT
  8
3
 10
285.9509
 20
386.4812
  0
POINT
  8
3
 10
291.5881
 20
380.8109
  0
POINT
  8
3
 10
296.9543
 20
374.8763
  0
POINT
  8
3
 10
302.0044
 20
368.6744
  0
POINT
  8
3
 10
306.7004
 20
362.2036
  0
POINT
  8
3
 10
310.9949
 20
355.4645
  0
POINT
  8
3
 10
314.8047
 20
348.4355
  0
POINT
  8
3
 10
318.1988
 20
341.1898
  0
POINT
  8
3
 10
321.2353
 20
333.7908
  0
POINT
  8
3
 10
323.8775
 20
326.2426
  0
POINT
  8
3
 10
326.1249
 20
318.5654
  0
POINT
  8
3
 10
327.9388
 20
310.7772
  0
POINT
  8
3
 10
329.2444
 20
302.8908
  0
POINT
  8
3
 10
330.1623
 20
294.9425
  0
POINT
  8
3
 10
330.8020
 20
286.9756
  0
POINT
  8
2
 10
331.1255
 20
278.9771
  0
TEXT
  8
2
 10
331.1255
 20
278.9771
 40
0.1000
 50
0.0000
  1
# 16
  0
POINT
  8
4
 10
331.3849
 20
269.3918
 38
10.0001
 50
181.4452
  0
TEXT
  8
4
 10
331.3849
 20
269.3918
 40
0.1000
 50
0.0000
  1
# 17
  0
POINT
  8
3
 10
331.3849
 20
269.3918
  0
POINT
  8
3
 10
331.8451
 20
249.0532
  0
POINT
  8
3
 10
332.2858
 20
219.1263
  0
POINT
  8
2
 10
332.2742
 20
99.4008
  0
TEXT
  8
2
 10
332.2742
 20
99.4008
 40
0.1000
 50
0.0000
  1
# 18
  0
POINT
  8
3
 10
320.8905
 20
98.8604
  0
POINT
  8
3
 10
309.5276
 20
98.0613
  0
POINT
  8
3
 10
298.1781
 20
97.0282
  0
POINT
  8
3
 10
286.8634
 20
95.6878
  0
POINT
  8
3
 10
275.6164
 20
93.8942
  0
POINT
  8
3
 10
264.3994
 20
91.8912
  0
POINT
  8
3
 10
253.1677
 20
89.9704
  0
POINT
  8
3
 10
241.9787
 20
87.8438
  0
POINT
  8
3
 10
230.8801
 20
85.2695
  0
POINT
  8
3
 10
219.8511
 20
82.4003
  0
POINT
  8
3
 10
208.8849
 20
79.3178
  0
POINT
  8
4
 10
197.9834
 20
75.9948
 38
10.0001
 50
107.4237
  0
TEXT
  8
4
 10
197.9834
 20
75.9948
 40
0.1000
 50
0.0000
  1
# 19
  0
POINT
  8
2
 10
197.9834
 20
75.9948
  0
TEXT
  8
2
 10
197.9834
 20
75.9948
 40
0.1000
 50
0.0000
  1
# 19
  0
POINT
  8
3
 10
191.3818
 20
73.8453
  0
POINT
  8
3
 10
156.1816
 20
61.9146
  0
POINT
  8
3
 10
148.9966
 20
59.5719
  0
POINT
  8
3
 10
141.7810
 20
57.3087
  0
POINT
  8
3
 10
131.2866
 20
54.1787
  0
POINT
  8
3
 10
120.7068
 20
51.1367
  0
POINT
  8
3
 10
109.6338
 20
48.2334
  0
POINT
  8
3
 10
104.0759
 20
46.9071
  0
POINT
  8
3
 10
98.4900
 20
45.6968
  0
POINT
  8
3
 10
93.1738
 20
44.6859
  0
POINT
  8
3
 10
87.8345
 20
43.7993
  0
POINT
  8
3
 10
77.1667
 20
42.2226
  0
POINT
  8
3
 10
68.0237
 20
41.0053
  0
POINT
  8
2
 10
60.0000
 20
40.0609
  0
LINE
  8
7
 10
195.6286
 20
149.8768
 11
195.5896
 21
329.8769
  0
POINT
  8
2
 10
195.6286
 20
149.8768
  0
TEXT
  8
2
 10
195.6286
 20
149.8768
 40
0.1000
 50
0.0000
  1
# 21
  0
POINT
  8
2
 10
195.5896
 20
329.8769
  0
TEXT
  8
2
 10
195.5896
 20
329.8769
 40
0.1000
 50
0.0000
  1
# 22
  0
LINE
  8
5
 10
195.6286
 20
149.8768
 11
195.5896
 21
329.8769
  0
LINE
  8
8
 10
90.0000
 20
436.2409
 11
90.0000
 21
44.5874
  0
POINT
  8
2
 10
90.0000
 20
436.2409
  0
TEXT
  8
2
 10
90.0000
 20
436.2409
 40
0.1000
 50
0.0000
  1
# 23
  0
POINT
  8
2
 10
90.0000
 20
44.5874
  0
TEXT
  8
2
 10
90.0000
 20
44.5874
 40
0.1000
 50
0.0000
  1
# 24
  0
LINE
  8
8
 10
81.5564
 20
87.3333
 11
68.4442
 21
87.3305
  0
POINT
  8
2
 10
81.5564
 20
87.3333
  0
TEXT
  8
2
 10
81.5564
 20
87.3333
 40
0.1000
 50
0.0000
  1
# 25
  0
POINT
  8
2
 10
68.4442
 20
87.3305
  0
TEXT
  8
2
 10
68.4442
 20
87.3305
 40
0.1000
 50
0.0000
  1
# 26
  0
LINE
  8
8
 10
74.9988
 20
93.8877
 11
75.0012
 21
80.7758
  0
POINT
  8
2
 10
74.9988
 20
93.8877
  0
TEXT
  8
2
 10
74.9988
 20
93.8877
 40
0.1000
 50
0.0000
  1
# 27
  0
POINT
  8
2
 10
75.0012
 20
80.7758
  0
TEXT
  8
2
 10
75.0012
 20
80.7758
 40
0.1000
 50
0.0000
  1
# 28
  0
POLYLINE
  8
8
 66
1
 70
1
  0
VERTEX
  8
8
 10
81.5564
 20
87.3319
  0
VERTEX
  8
8
 10
80.6781
 20
84.0537
  0
VERTEX
  8
8
 10
78.2782
 20
81.6539
  0
VERTEX
  8
8
 10
75.0000
 20
80.7755
  0
VERTEX
  8
8
 10
71.7218
 20
81.6539
  0
VERTEX
  8
8
 10
69.3219
 20
84.0537
  0
VERTEX
  8
8
 10
68.4436
 20
87.3319
  0
VERTEX
  8
8
 10
69.3219
 20
90.6101
  0
VERTEX
  8
8
 10
71.7218
 20
93.0099
  0
VERTEX
  8
8
 10
75.0000
 20
93.8883
  0
VERTEX
  8
8
 10
78.2782
 20
93.0099
  0
VERTEX
  8
8
 10
80.6781
 20
90.6101
  0
VERTEX
  8
8
 10
81.5564
 20
87.3319
  0
SEQEND
  0
POINT
  8
2
 10
81.5564
 20
87.3319
  0
TEXT
  8
2
 10
81.5564
 20
87.3319
 40
0.1000
 50
0.0000
  1
# 29
  0
POINT
  8
3
 10
80.6781
 20
84.0537
  0
POINT
  8
3
 10
78.2782
 20
81.6539
  0
POINT
  8
3
 10
75.0000
 20
80.7755
  0
POINT
  8
3
 10
71.7218
 20
81.6539
  0
POINT
  8
3
 10
69.3219
 20
84.0537
  0
POINT
  8
3
 10
68.4436
 20
87.3319
  0
POINT
  8
3
 10
69.3219
 20
90.6101
  0
POINT
  8
3
 10
71.7218
 20
93.0099
  0
POINT
  8
3
 10
75.0000
 20
93.8883
  0
POINT
  8
3
 10
78.2782
 20
93.0099
  0
POINT
  8
3
 10
80.6781
 20
90.6101
  0
POINT
  8
2
 10
81.5564
 20
87.3319
  0
ENDBLK
  0
BLOCK
  8
0
  2
BLK_6_1
 70
64
 10
0.0000
 20
0.0000
  0
TEXT
  8
1
 10
189.4397
 20
252.2635
 40
2.8000
 50
0.0000
  1
PIECE NAME: 6
  7
STANDARD
  0
TEXT
  8
1
 10
189.4397
 20
249.4635
 40
2.8000
 50
0.0000
  1
SIZE: F
  7
STANDARD
  0
TEXT
  8
1
 10
189.4397
 20
246.6635
 40
2.8000
 50
0.0000
  1
CATEGORY: 
  7
STANDARD
  0
TEXT
  8
1
 10
189.4397
 20
243.8635
 40
2.8000
 50
0.0000
  1
QUANTITY: 1
  7
STANDARD
  0
TEXT
  8
1
 10
189.4397
 20
241.0635
 40
2.8000
 50
0.0000
  1
ANNOTATION: 
  7
STANDARD
  0
POLYLINE
  8
1
 66
1
 70
1
  0
VERTEX
  8
1
 10
36.6217
 20
89.7885
  0
VERTEX
  8
1
 10
36.5937
 20
219.2117
  0
VERTEX
  8
1
 10
37.0362
 20
249.2337
  0
VERTEX
  8
1
 10
37.4989
 20
269.6448
  0
VERTEX
  8
1
 10
37.7576
 20
279.2261
  0
VERTEX
  8
1
 10
38.0933
 20
287.5848
  0
VERTEX
  8
1
 10
38.7635
 20
295.9024
  0
VERTEX
  8
1
 10
39.7406
 20
304.3425
  0
VERTEX
  8
1
 10
41.1298
 20
312.7167
  0
VERTEX
  8
1
 10
43.0738
 20
321.0644
  0
VERTEX
  8
1
 10
45.4785
 20
329.2937
  0
VERTEX
  8
1
 10
48.2886
 20
337.3303
  0
VERTEX
  8
1
 10
51.5222
 20
345.2068
  0
VERTEX
  8
1
 10
55.1722
 20
352.9901
  0
VERTEX
  8
1
 10
59.2676
 20
360.5409
  0
VERTEX
  8
1
 10
63.8953
 20
367.8038
  0
VERTEX
  8
1
 10
68.9539
 20
374.7789
  0
VERTEX
  8
1
 10
74.3299
 20
381.3831
  0
VERTEX
  8
1
 10
80.0440
 20
387.7019
  0
VERTEX
  8
1
 10
85.9784
 20
393.6746
  0
VERTEX
  8
1
 10
92.1790
 20
399.3738
  0
VERTEX
  8
1
 10
98.6512
 20
404.8878
  0
VERTEX
  8
1
 10
105.3772
 20
410.0803
  0
VERTEX
  8
1
 10
112.3853
 20
414.8267
  0
VERTEX
  8
1
 10
119.6076
 20
419.2522
  0
VERTEX
  8
1
 10
126.8604
 20
423.3884
  0
VERTEX
  8
1
 10
134.2664
 20
427.2407
  0
VERTEX
  8
1
 10
141.9025
 20
430.8417
  0
VERTEX
  8
1
 10
149.6833
 20
434.1106
  0
VERTEX
  8
1
 10
157.6148
 20
436.9943
  0
VERTEX
  8
1
 10
165.6653
 20
439.5294
  0
VERTEX
  8
1
 10
173.7451
 20
441.7232
  0
VERTEX
  8
1
 10
181.9770
 20
443.5942
  0
VERTEX
  8
1
 10
187.4323
 20
444.6690
  0
VERTEX
  8
1
 10
191.8341
 20
445.4481
  0
VERTEX
  8
1
 10
201.8042
 20
446.9220
  0
VERTEX
  8
1
 10
211.7194
 20
448.0321
  0
VERTEX
  8
1
 10
221.6346
 20
448.8258
  0
VERTEX
  8
1
 10
231.6138
 20
449.3368
  0
VERTEX
  8
1
 10
241.5100
 20
449.6020
  0
VERTEX
  8
1
 10
251.3575
 20
449.6460
  0
VERTEX
  8
1
 10
261.1823
 20
449.5021
  0
VERTEX
  8
1
 10
270.9693
 20
449.1985
  0
VERTEX
  8
1
 10
280.7685
 20
448.7617
  0
VERTEX
  8
1
 10
290.5066
 20
448.2170
  0
VERTEX
  8
1
 10
300.2637
 20
447.5842
  0
VERTEX
  8
1
 10
309.9451
 20
446.9141
  0
VERTEX
  8
1
 10
318.8794
 20
446.2682
  0
VERTEX
  8
1
 10
348.8794
 20
446.2680
  0
VERTEX
  8
1
 10
348.8788
 20
30.0000
  0
VERTEX
  8
1
 10
318.8752
 20
30.0005
  0
VERTEX
  8
1
 10
317.7808
 20
30.1213
  0
VERTEX
  8
1
 10
309.6228
 20
31.0815
  0
VERTEX
  8
1
 10
300.2942
 20
32.3236
  0
VERTEX
  8
1
 10
289.5154
 20
33.9171
  0
VERTEX
  8
1
 10
283.9539
 20
34.8405
  0
VERTEX
  8
1
 10
278.4009
 20
35.8965
  0
VERTEX
  8
1
 10
272.6068
 20
37.1513
  0
VERTEX
  8
1
 10
266.8006
 20
38.5370
  0
VERTEX
  8
1
 10
255.5042
 20
41.4993
  0
VERTEX
  8
1
 10
244.7736
 20
44.5842
  0
VERTEX
  8
1
 10
234.1431
 20
47.7554
  0
VERTEX
  8
1
 10
226.8347
 20
50.0479
  0
VERTEX
  8
1
 10
219.5118
 20
52.4358
  0
VERTEX
  8
1
 10
184.2908
 20
64.3733
  0
VERTEX
  8
1
 10
177.8968
 20
66.4554
  0
VERTEX
  8
1
 10
167.1790
 20
69.7215
  0
VERTEX
  8
1
 10
156.3929
 20
72.7541
  0
VERTEX
  8
1
 10
145.6494
 20
75.5514
  0
VERTEX
  8
1
 10
134.8371
 20
78.0591
  0
VERTEX
  8
1
 10
123.8196
 20
80.1507
  0
VERTEX
  8
1
 10
112.7600
 20
82.0406
  0
VERTEX
  8
1
 10
101.7102
 20
84.0150
  0
VERTEX
  8
1
 10
90.6317
 20
85.7841
  0
VERTEX
  8
1
 10
79.6057
 20
87.0903
  0
VERTEX
  8
1
 10
68.5450
 20
88.0943
  0
VERTEX
  8
1
 10
57.3908
 20
88.8778
  0
VERTEX
  8
1
 10
46.2159
 20
89.4089
  0
VERTEX
  8
1
 10
36.6217
 20
89.7885
  0
SEQEND
  0
POINT
  8
2
 10
36.6217
 20
89.7885
  0
TEXT
  8
2
 10
36.6217
 20
89.7885
 40
0.1000
 50
0.0000
  1
# 1
  0
POINT
  8
3
 10
36.5937
 20
219.2117
  0
POINT
  8
3
 10
37.0362
 20
249.2337
  0
POINT
  8
4
 10
37.4989
 20
269.6448
 38
5.0000
 50
358.5536
  0
TEXT
  8
4
 10
37.4989
 20
269.6448
 40
0.1000
 50
0.0000
  1
# 2
  0
POINT
  8
3
 10
37.4989
 20
269.6448
  0
POINT
  8
2
 10
37.7576
 20
279.2261
  0
TEXT
  8
2
 10
37.7576
 20
279.2261
 40
0.1000
 50
0.0000
  1
# 3
  0
POINT
  8
3
 10
38.0933
 20
287.5848
  0
POINT
  8
3
 10
38.7635
 20
295.9024
  0
POINT
  8
3
 10
39.7406
 20
304.3425
  0
POINT
  8
3
 10
41.1298
 20
312.7167
  0
POINT
  8
3
 10
43.0738
 20
321.0644
  0
POINT
  8
3
 10
45.4785
 20
329.2937
  0
POINT
  8
3
 10
48.2886
 20
337.3303
  0
POINT
  8
3
 10
51.5222
 20
345.2068
  0
POINT
  8
3
 10
55.1722
 20
352.9901
  0
POINT
  8
3
 10
59.2676
 20
360.5409
  0
POINT
  8
3
 10
63.8953
 20
367.8038
  0
POINT
  8
3
 10
68.9539
 20
374.7789
  0
POINT
  8
3
 10
74.3299
 20
381.3831
  0
POINT
  8
3
 10
80.0440
 20
387.7019
  0
POINT
  8
3
 10
85.9784
 20
393.6746
  0
POINT
  8
3
 10
92.1790
 20
399.3738
  0
POINT
  8
3
 10
98.6512
 20
404.8878
  0
POINT
  8
3
 10
105.3772
 20
410.0803
  0
POINT
  8
3
 10
112.3853
 20
414.8267
  0
POINT
  8
3
 10
119.6076
 20
419.2522
  0
POINT
  8
3
 10
126.8604
 20
423.3884
  0
POINT
  8
3
 10
134.2664
 20
427.2407
  0
POINT
  8
3
 10
141.9025
 20
430.8417
  0
POINT
  8
3
 10
149.6833
 20
434.1106
  0
POINT
  8
3
 10
157.6148
 20
436.9943
  0
POINT
  8
3
 10
165.6653
 20
439.5294
  0
POINT
  8
3
 10
173.7451
 20
441.7232
  0
POINT
  8
2
 10
181.9770
 20
443.5942
  0
TEXT
  8
2
 10
181.9770
 20
443.5942
 40
0.1000
 50
0.0000
  1
# 4
  0
POINT
  8
4
 10
187.4323
 20
444.6690
 38
5.0000
 50
280.5157
  0
TEXT
  8
4
 10
187.4323
 20
444.6690
 40
0.1000
 50
0.0000
  1
# 5
  0
POINT
  8
3
 10
187.4323
 20
444.6690
  0
POINT
  8
3
 10
191.8341
 20
445.4481
  0
POINT
  8
3
 10
201.8042
 20
446.9220
  0
POINT
  8
3
 10
211.7194
 20
448.0321
  0
POINT
  8
3
 10
221.6346
 20
448.8258
  0
POINT
  8
3
 10
231.6138
 20
449.3368
  0
POINT
  8
3
 10
241.5100
 20
449.6020
  0
POINT
  8
3
 10
251.3575
 20
449.6460
  0
POINT
  8
3
 10
261.1823
 20
449.5021
  0
POINT
  8
3
 10
270.9693
 20
449.1985
  0
POINT
  8
3
 10
280.7685
 20
448.7617
  0
POINT
  8
3
 10
290.5066
 20
448.2170
  0
POINT
  8
3
 10
300.2637
 20
447.5842
  0
POINT
  8
3
 10
309.9451
 20
446.9141
  0
POINT
  8
2
 10
318.8794
 20
446.2682
  0
TEXT
  8
2
 10
318.8794
 20
446.2682
 40
0.1000
 50
0.0000
  1
# 6
  0
POINT
  8
2
 10
348.8794
 20
446.2680
  0
TEXT
  8
2
 10
348.8794
 20
446.2680
 40
0.1000
 50
0.0000
  1
# 7
  0
POINT
  8
2
 10
348.8788
 20
30.0000
  0
TEXT
  8
2
 10
348.8788
 20
30.0000
 40
0.1000
 50
0.0000
  1
# 8
  0
POINT
  8
2
 10
318.8752
 20
30.0005
  0
TEXT
  8
2
 10
318.8752
 20
30.0005
 40
0.1000
 50
0.0000
  1
# 9
  0
POINT
  8
3
 10
317.7808
 20
30.1213
  0
POINT
  8
3
 10
309.6228
 20
31.0815
  0
POINT
  8
3
 10
300.2942
 20
32.3236
  0
POINT
  8
3
 10
289.5154
 20
33.9171
  0
POINT
  8
3
 10
283.9539
 20
34.8405
  0
POINT
  8
3
 10
278.4009
 20
35.8965
  0
POINT
  8
3
 10
272.6068
 20
37.1513
  0
POINT
  8
3
 10
266.8006
 20
38.5370
  0
POINT
  8
3
 10
255.5042
 20
41.4993
  0
POINT
  8
3
 10
244.7736
 20
44.5842
  0
POINT
  8
3
 10
234.1431
 20
47.7554
  0
POINT
  8
3
 10
226.8347
 20
50.0479
  0
POINT
  8
3
 10
219.5118
 20
52.4358
  0
POINT
  8
3
 10
184.2908
 20
64.3733
  0
POINT
  8
4
 10
177.8968
 20
66.4554
 38
5.0000
 50
72.5775
  0
TEXT
  8
4
 10
177.8968
 20
66.4554
 40
0.1000
 50
0.0000
  1
# 10
  0
POINT
  8
2
 10
177.8968
 20
66.4554
  0
TEXT
  8
2
 10
177.8968
 20
66.4554
 40
0.1000
 50
0.0000
  1
# 10
  0
POINT
  8
3
 10
167.1790
 20
69.7215
  0
POINT
  8
3
 10
156.3929
 20
72.7541
  0
POINT
  8
3
 10
145.6494
 20
75.5514
  0
POINT
  8
3
 10
134.8371
 20
78.0591
  0
POINT
  8
3
 10
123.8196
 20
80.1507
  0
POINT
  8
3
 10
112.7600
 20
82.0406
  0
POINT
  8
3
 10
101.7102
 20
84.0150
  0
POINT
  8
3
 10
90.6317
 20
85.7841
  0
POINT
  8
3
 10
79.6057
 20
87.0903
  0
POINT
  8
3
 10
68.5450
 20
88.0943
  0
POINT
  8
3
 10
57.3908
 20
88.8778
  0
POINT
  8
3
 10
46.2159
 20
89.4089
  0
POINT
  8
2
 10
36.6217
 20
89.7885
  0
POLYLINE
  8
14
 66
1
 70
1
  0
VERTEX
  8
14
 10
46.6046
 20
99.4014
  0
VERTEX
  8
14
 10
46.5931
 20
219.1269
  0
VERTEX
  8
14
 10
47.0337
 20
249.0537
  0
VERTEX
  8
14
 10
47.4945
 20
269.3924
  0
VERTEX
  8
14
 10
47.7539
 20
278.9777
  0
VERTEX
  8
14
 10
48.0774
 20
286.9762
  0
VERTEX
  8
14
 10
48.7171
 20
294.9431
  0
VERTEX
  8
14
 10
49.6350
 20
302.8914
  0
VERTEX
  8
14
 10
50.9406
 20
310.7777
  0
VERTEX
  8
14
 10
52.7545
 20
318.5660
  0
VERTEX
  8
14
 10
55.0019
 20
326.2431
  0
VERTEX
  8
14
 10
57.6441
 20
333.7913
  0
VERTEX
  8
14
 10
60.6806
 20
341.1903
  0
VERTEX
  8
14
 10
64.0747
 20
348.4360
  0
VERTEX
  8
14
 10
67.8846
 20
355.4651
  0
VERTEX
  8
14
 10
72.1790
 20
362.2043
  0
VERTEX
  8
14
 10
76.8750
 20
368.6749
  0
VERTEX
  8
14
 10
81.9251
 20
374.8770
  0
VERTEX
  8
14
 10
87.2913
 20
380.8115
  0
VERTEX
  8
14
 10
92.9285
 20
386.4816
  0
VERTEX
  8
14
 10
98.8166
 20
391.8944
  0
VERTEX
  8
14
 10
104.9036
 20
397.0850
  0
VERTEX
  8
14
 10
111.2311
 20
401.9719
  0
VERTEX
  8
14
 10
117.8528
 20
406.4542
  0
VERTEX
  8
14
 10
124.6772
 20
410.6325
  0
VERTEX
  8
14
 10
131.6260
 20
414.5944
  0
VERTEX
  8
14
 10
138.7201
 20
418.2872
  0
VERTEX
  8
14
 10
145.9540
 20
421.7001
  0
VERTEX
  8
14
 10
153.3264
 20
424.7975
  0
VERTEX
  8
14
 10
160.8423
 20
427.5299
  0
VERTEX
  8
14
 10
168.4723
 20
429.9312
  0
VERTEX
  8
14
 10
176.1853
 20
432.0238
  0
VERTEX
  8
14
 10
183.9905
 20
433.7991
  0
VERTEX
  8
14
 10
189.2578
 20
434.8369
  0
VERTEX
  8
14
 10
193.4925
 20
435.5865
  0
VERTEX
  8
14
 10
203.0573
 20
437.0007
  0
VERTEX
  8
14
 10
212.6660
 20
438.0768
  0
VERTEX
  8
14
 10
222.3041
 20
438.8483
  0
VERTEX
  8
14
 10
231.9599
 20
439.3426
  0
VERTEX
  8
14
 10
241.6254
 20
439.6027
  0
VERTEX
  8
14
 10
251.2946
 20
439.6461
  0
VERTEX
  8
14
 10
260.9632
 20
439.5045
  0
VERTEX
  8
14
 10
270.6275
 20
439.2043
  0
VERTEX
  8
14
 10
280.2869
 20
438.7733
  0
VERTEX
  8
14
 10
289.9408
 20
438.2329
  0
VERTEX
  8
14
 10
299.5899
 20
437.6070
  0
VERTEX
  8
14
 10
309.2359
 20
436.9392
  0
VERTEX
  8
14
 10
318.8794
 20
436.2410
  0
VERTEX
  8
14
 10
318.8788
 20
40.0610
  0
VERTEX
  8
14
 10
310.8557
 20
41.0052
  0
VERTEX
  8
14
 10
301.7115
 20
42.2227
  0
VERTEX
  8
14
 10
291.0437
 20
43.7994
  0
VERTEX
  8
14
 10
285.7044
 20
44.6860
  0
VERTEX
  8
14
 10
280.3894
 20
45.6969
  0
VERTEX
  8
14
 10
274.8035
 20
46.9072
  0
VERTEX
  8
14
 10
269.2456
 20
48.2335
  0
VERTEX
  8
14
 10
258.1720
 20
51.1368
  0
VERTEX
  8
14
 10
247.5916
 20
54.1788
  0
VERTEX
  8
14
 10
237.0984
 20
57.3088
  0
VERTEX
  8
14
 10
229.8828
 20
59.5721
  0
VERTEX
  8
14
 10
222.6978
 20
61.9148
  0
VERTEX
  8
14
 10
187.4970
 20
73.8455
  0
VERTEX
  8
14
 10
180.8960
 20
75.9950
  0
VERTEX
  8
14
 10
169.9945
 20
79.3182
  0
VERTEX
  8
14
 10
159.0277
 20
82.4007
  0
VERTEX
  8
14
 10
147.9987
 20
85.2699
  0
VERTEX
  8
14
 10
136.9001
 20
87.8442
  0
VERTEX
  8
14
 10
125.7111
 20
89.9709
  0
VERTEX
  8
14
 10
114.4800
 20
91.8916
  0
VERTEX
  8
14
 10
103.2630
 20
93.8946
  0
VERTEX
  8
14
 10
92.0154
 20
95.6882
  0
VERTEX
  8
14
 10
80.7007
 20
97.0287
  0
VERTEX
  8
14
 10
69.3518
 20
98.0618
  0
VERTEX
  8
14
 10
57.9889
 20
98.8609
  0
VERTEX
  8
14
 10
46.6046
 20
99.4014
  0
SEQEND
  0
POINT
  8
2
 10
46.6046
 20
99.4014
  0
TEXT
  8
2
 10
46.6046
 20
99.4014
 40
0.1000
 50
0.0000
  1
# 12
  0
POINT
  8
3
 10
46.5931
 20
219.1269
  0
POINT
  8
3
 10
47.0337
 20
249.0537
  0
POINT
  8
4
 10
47.4945
 20
269.3924
 38
10.0001
 50
358.5548
  0
TEXT
  8
4
 10
47.4945
 20
269.3924
 40
0.1000
 50
0.0000
  1
# 13
  0
POINT
  8
3
 10
47.4945
 20
269.3924
  0
POINT
  8
2
 10
47.7539
 20
278.9777
  0
TEXT
  8
2
 10
47.7539
 20
278.9777
 40
0.1000
 50
0.0000
  1
# 14
  0
POINT
  8
3
 10
48.0774
 20
286.9762
  0
POINT
  8
3
 10
48.7171
 20
294.9431
  0
POINT
  8
3
 10
49.6350
 20
302.8914
  0
POINT
  8
3
 10
50.9406
 20
310.7777
  0
POINT
  8
3
 10
52.7545
 20
318.5660
  0
POINT
  8
3
 10
55.0019
 20
326.2431
  0
POINT
  8
3
 10
57.6441
 20
333.7913
  0
POINT
  8
3
 10
60.6806
 20
341.1903
  0
POINT
  8
3
 10
64.0747
 20
348.4360
  0
POINT
  8
3
 10
67.8846
 20
355.4651
  0
POINT
  8
3
 10
72.1790
 20
362.2043
  0
POINT
  8
3
 10
76.8750
 20
368.6749
  0
POINT
  8
3
 10
81.9251
 20
374.8770
  0
POINT
  8
3
 10
87.2913
 20
380.8115
  0
POINT
  8
3
 10
92.9285
 20
386.4816
  0
POINT
  8
3
 10
98.8166
 20
391.8944
  0
POINT
  8
3
 10
104.9036
 20
397.0850
  0
POINT
  8
3
 10
111.2311
 20
401.9719
  0
POINT
  8
3
 10
117.8528
 20
406.4542
  0
POINT
  8
3
 10
124.6772
 20
410.6325
  0
POINT
  8
3
 10
131.6260
 20
414.5944
  0
POINT
  8
3
 10
138.7201
 20
418.2872
  0
POINT
  8
3
 10
145.9540
 20
421.7001
  0
POINT
  8
3
 10
153.3264
 20
424.7975
  0
POINT
  8
3
 10
160.8423
 20
427.5299
  0
POINT
  8
3
 10
168.4723
 20
429.9312
  0
POINT
  8
3
 10
176.1853
 20
432.0238
  0
POINT
  8
2
 10
183.9905
 20
433.7991
  0
TEXT
  8
2
 10
183.9905
 20
433.7991
 40
0.1000
 50
0.0000
  1
# 15
  0
POINT
  8
4
 10
189.2578
 20
434.8369
 38
10.0000
 50
280.5190
  0
TEXT
  8
4
 10
189.2578
 20
434.8369
 40
0.1000
 50
0.0000
  1
# 16
  0
POINT
  8
3
 10
189.2578
 20
434.8369
  0
POINT
  8
3
 10
193.4925
 20
435.5865
  0
POINT
  8
3
 10
203.0573
 20
437.0007
  0
POINT
  8
3
 10
212.6660
 20
438.0768
  0
POINT
  8
3
 10
222.3041
 20
438.8483
  0
POINT
  8
3
 10
231.9599
 20
439.3426
  0
POINT
  8
3
 10
241.6254
 20
439.6027
  0
POINT
  8
3
 10
251.2946
 20
439.6461
  0
POINT
  8
3
 10
260.9632
 20
439.5045
  0
POINT
  8
3
 10
270.6275
 20
439.2043
  0
POINT
  8
3
 10
280.2869
 20
438.7733
  0
POINT
  8
3
 10
289.9408
 20
438.2329
  0
POINT
  8
3
 10
299.5899
 20
437.6070
  0
POINT
  8
3
 10
309.2359
 20
436.9392
  0
POINT
  8
2
 10
318.8794
 20
436.2410
  0
TEXT
  8
2
 10
318.8794
 20
436.2410
 40
0.1000
 50
0.0000
  1
# 17
  0
POINT
  8
2
 10
318.8788
 20
40.0610
  0
TEXT
  8
2
 10
318.8788
 20
40.0610
 40
0.1000
 50
0.0000
  1
# 18
  0
POINT
  8
3
 10
310.8557
 20
41.0052
  0
POINT
  8
3
 10
301.7115
 20
42.2227
  0
POINT
  8
3
 10
291.0437
 20
43.7994
  0
POINT
  8
3
 10
285.7044
 20
44.6860
  0
POINT
  8
3
 10
280.3894
 20
45.6969
  0
POINT
  8
3
 10
274.8035
 20
46.9072
  0
POINT
  8
3
 10
269.2456
 20
48.2335
  0
POINT
  8
3
 10
258.1720
 20
51.1368
  0
POINT
  8
3
 10
247.5916
 20
54.1788
  0
POINT
  8
3
 10
237.0984
 20
57.3088
  0
POINT
  8
3
 10
229.8828
 20
59.5721
  0
POINT
  8
3
 10
222.6978
 20
61.9148
  0
POINT
  8
3
 10
187.4970
 20
73.8455
  0
POINT
  8
4
 10
180.8960
 20
75.9950
 38
10.0000
 50
72.5796
  0
TEXT
  8
4
 10
180.8960
 20
75.9950
 40
0.1000
 50
0.0000
  1
# 19
  0
POINT
  8
2
 10
180.8960
 20
75.9950
  0
TEXT
  8
2
 10
180.8960
 20
75.9950
 40
0.1000
 50
0.0000
  1
# 19
  0
POINT
  8
3
 10
169.9945
 20
79.3182
  0
POINT
  8
3
 10
159.0277
 20
82.4007
  0
POINT
  8
3
 10
147.9987
 20
85.2699
  0
POINT
  8
3
 10
136.9001
 20
87.8442
  0
POINT
  8
3
 10
125.7111
 20
89.9709
  0
POINT
  8
3
 10
114.4800
 20
91.8916
  0
POINT
  8
3
 10
103.2630
 20
93.8946
  0
POINT
  8
3
 10
92.0154
 20
95.6882
  0
POINT
  8
3
 10
80.7007
 20
97.0287
  0
POINT
  8
3
 10
69.3518
 20
98.0618
  0
POINT
  8
3
 10
57.9889
 20
98.8609
  0
POINT
  8
2
 10
46.6046
 20
99.4014
  0
LINE
  8
7
 10
183.2508
 20
149.8772
 11
183.2898
 21
329.8772
  0
POINT
  8
2
 10
183.2508
 20
149.8772
  0
TEXT
  8
2
 10
183.2508
 20
149.8772
 40
0.1000
 50
0.0000
  1
# 21
  0
POINT
  8
2
 10
183.2898
 20
329.8772
  0
TEXT
  8
2
 10
183.2898
 20
329.8772
 40
0.1000
 50
0.0000
  1
# 22
  0
LINE
  8
5
 10
183.2508
 20
149.8772
 11
183.2898
 21
329.8772
  0
LINE
  8
8
 10
288.8794
 20
436.2410
 11
288.8788
 21
44.5876
  0
POINT
  8
2
 10
288.8794
 20
436.2410
  0
TEXT
  8
2
 10
288.8794
 20
436.2410
 40
0.1000
 50
0.0000
  1
# 23
  0
POINT
  8
2
 10
288.8788
 20
44.5876
  0
TEXT
  8
2
 10
288.8788
 20
44.5876
 40
0.1000
 50
0.0000
  1
# 24
  0
LINE
  8
8
 10
297.3224
 20
87.3334
 11
310.4346
 21
87.3306
  0
POINT
  8
2
 10
297.3224
 20
87.3334
  0
TEXT
  8
2
 10
297.3224
 20
87.3334
 40
0.1000
 50
0.0000
  1
# 25
  0
POINT
  8
2
 10
310.4346
 20
87.3306
  0
TEXT
  8
2
 10
310.4346
 20
87.3306
 40
0.1000
 50
0.0000
  1
# 26
  0
LINE
  8
8
 10
303.8800
 20
93.8878
 11
303.8770
 21
80.7759
  0
POINT
  8
2
 10
303.8800
 20
93.8878
  0
TEXT
  8
2
 10
303.8800
 20
93.8878
 40
0.1000
 50
0.0000
  1
# 27
  0
POINT
  8
2
 10
303.8770
 20
80.7759
  0
TEXT
  8
2
 10
303.8770
 20
80.7759
 40
0.1000
 50
0.0000
  1
# 28
  0
POLYLINE
  8
8
 66
1
 70
1
  0
VERTEX
  8
8
 10
310.4346
 20
87.3320
  0
VERTEX
  8
8
 10
309.5563
 20
84.0538
  0
VERTEX
  8
8
 10
307.1564
 20
81.6540
  0
VERTEX
  8
8
 10
303.8782
 20
80.7756
  0
VERTEX
  8
8
 10
300.6000
 20
81.6540
  0
VERTEX
  8
8
 10
298.2001
 20
84.0538
  0
VERTEX
  8
8
 10
297.3218
 20
87.3320
  0
VERTEX
  8
8
 10
298.2001
 20
90.6102
  0
VERTEX
  8
8
 10
300.6000
 20
93.0100
  0
VERTEX
  8
8
 10
303.8782
 20
93.8884
  0
VERTEX
  8
8
 10
307.1564
 20
93.0100
  0
VERTEX
  8
8
 10
309.5563
 20
90.6102
  0
VERTEX
  8
8
 10
310.4346
 20
87.3320
  0
SEQEND
  0
POINT
  8
2
 10
310.4346
 20
87.3320
  0
TEXT
  8
2
 10
310.4346
 20
87.3320
 40
0.1000
 50
0.0000
  1
# 29
  0
POINT
  8
3
 10
309.5563
 20
84.0538
  0
POINT
  8
3
 10
307.1564
 20
81.6540
  0
POINT
  8
3
 10
303.8782
 20
80.7756
  0
POINT
  8
3
 10
300.6000
 20
81.6540
  0
POINT
  8
3
 10
298.2001
 20
84.0538
  0
POINT
  8
3
 10
297.3218
 20
87.3320
  0
POINT
  8
3
 10
298.2001
 20
90.6102
  0
POINT
  8
3
 10
300.6000
 20
93.0100
  0
POINT
  8
3
 10
303.8782
 20
93.8884
  0
POINT
  8
3
 10
307.1564
 20
93.0100
  0
POINT
  8
3
 10
309.5563
 20
90.6102
  0
POINT
  8
2
 10
310.4346
 20
87.3320
  0
ENDBLK
  0
BLOCK
  8
0
  2
BLK_7_1
 70
64
 10
0.0000
 20
0.0000
  0
TEXT
  8
1
 10
231.3059
 20
164.9869
 40
2.8000
 50
0.0000
  1
PIECE NAME: 7
  7
STANDARD
  0
TEXT
  8
1
 10
231.3059
 20
162.1869
 40
2.8000
 50
0.0000
  1
SIZE: F
  7
STANDARD
  0
TEXT
  8
1
 10
231.3059
 20
159.3869
 40
2.8000
 50
0.0000
  1
CATEGORY: 
  7
STANDARD
  0
TEXT
  8
1
 10
231.3059
 20
156.5869
 40
2.8000
 50
0.0000
  1
QUANTITY: 1
  7
STANDARD
  0
TEXT
  8
1
 10
231.3059
 20
153.7869
 40
2.8000
 50
0.0000
  1
ANNOTATION: 
  7
STANDARD
  0
POLYLINE
  8
1
 66
1
 70
1
  0
VERTEX
  8
1
 10
68.8324
 20
39.4819
  0
VERTEX
  8
1
 10
53.6447
 20
121.1226
  0
VERTEX
  8
1
 10
30.0000
 20
127.1559
  0
VERTEX
  8
1
 10
48.9490
 20
144.1166
  0
VERTEX
  8
1
 10
51.8460
 20
146.8236
  0
VERTEX
  8
1
 10
54.5755
 20
149.6815
  0
VERTEX
  8
1
 10
57.1134
 20
152.6670
  0
VERTEX
  8
1
 10
59.4815
 20
155.7895
  0
VERTEX
  8
1
 10
61.6733
 20
159.0127
  0
VERTEX
  8
1
 10
63.6804
 20
162.3531
  0
VERTEX
  8
1
 10
65.5191
 20
165.8860
  0
VERTEX
  8
1
 10
67.1744
 20
169.5111
  0
VERTEX
  8
1
 10
70.2005
 20
177.4141
  0
VERTEX
  8
1
 10
72.7826
 20
185.7850
  0
VERTEX
  8
1
 10
74.9622
 20
194.5752
  0
VERTEX
  8
1
 10
76.6907
 20
203.5245
  0
VERTEX
  8
1
 10
78.0792
 20
212.7459
  0
VERTEX
  8
1
 10
79.1562
 20
221.9694
  0
VERTEX
  8
1
 10
80.1090
 20
231.8324
  0
VERTEX
  8
1
 10
80.8634
 20
241.3185
  0
VERTEX
  8
1
 10
81.4972
 20
251.2357
  0
VERTEX
  8
1
 10
82.0453
 20
261.1074
  0
VERTEX
  8
1
 10
82.6215
 20
272.2072
  0
VERTEX
  8
1
 10
102.5522
 20
270.0713
  0
VERTEX
  8
1
 10
231.3016
 20
270.0739
  0
VERTEX
  8
1
 10
360.0522
 20
270.0713
  0
VERTEX
  8
1
 10
379.9826
 20
272.2021
  0
VERTEX
  8
1
 10
380.5588
 20
261.1025
  0
VERTEX
  8
1
 10
381.1069
 20
251.2261
  0
VERTEX
  8
1
 10
381.7087
 20
241.7538
  0
VERTEX
  8
1
 10
382.4875
 20
231.9085
  0
VERTEX
  8
1
 10
383.4378
 20
222.0578
  0
VERTEX
  8
1
 10
384.5139
 20
212.8188
  0
VERTEX
  8
1
 10
385.9110
 20
203.5324
  0
VERTEX
  8
1
 10
387.6468
 20
194.5481
  0
VERTEX
  8
1
 10
389.7879
 20
185.9028
  0
VERTEX
  8
1
 10
392.3837
 20
177.4693
  0
VERTEX
  8
1
 10
395.4379
 20
169.4899
  0
VERTEX
  8
1
 10
397.0920
 20
165.8701
  0
VERTEX
  8
1
 10
398.9285
 20
162.3429
  0
VERTEX
  8
1
 10
400.9354
 20
159.0037
  0
VERTEX
  8
1
 10
403.1271
 20
155.7818
  0
VERTEX
  8
1
 10
405.5002
 20
152.6550
  0
VERTEX
  8
1
 10
408.0423
 20
149.6653
  0
VERTEX
  8
1
 10
410.0693
 20
147.5126
  0
VERTEX
  8
1
 10
413.6563
 20
144.1150
  0
VERTEX
  8
1
 10
432.6114
 20
127.1531
  0
VERTEX
  8
1
 10
408.9591
 20
121.1214
  0
VERTEX
  8
1
 10
393.7711
 20
39.4817
  0
VERTEX
  8
1
 10
385.7327
 20
39.2224
  0
VERTEX
  8
1
 10
359.9814
 20
38.5033
  0
VERTEX
  8
1
 10
334.1660
 20
38.0381
  0
VERTEX
  8
1
 10
308.4280
 20
37.8116
  0
VERTEX
  8
1
 10
231.3309
 20
37.4999
  0
VERTEX
  8
1
 10
154.1760
 20
37.8117
  0
VERTEX
  8
1
 10
128.3893
 20
38.0387
  0
VERTEX
  8
1
 10
102.6599
 20
38.5024
  0
VERTEX
  8
1
 10
76.8701
 20
39.2224
  0
VERTEX
  8
1
 10
68.8324
 20
39.4819
  0
SEQEND
  0
POINT
  8
2
 10
68.8324
 20
39.4819
  0
TEXT
  8
2
 10
68.8324
 20
39.4819
 40
0.1000
 50
0.0000
  1
# 1
  0
POINT
  8
2
 10
53.6447
 20
121.1226
  0
TEXT
  8
2
 10
53.6447
 20
121.1226
 40
0.1000
 50
0.0000
  1
# 2
  0
POINT
  8
2
 10
30.0000
 20
127.1559
  0
TEXT
  8
2
 10
30.0000
 20
127.1559
 40
0.1000
 50
0.0000
  1
# 3
  0
POINT
  8
3
 10
48.9490
 20
144.1166
  0
POINT
  8
3
 10
51.8460
 20
146.8236
  0
POINT
  8
3
 10
54.5755
 20
149.6815
  0
POINT
  8
3
 10
57.1134
 20
152.6670
  0
POINT
  8
3
 10
59.4815
 20
155.7895
  0
POINT
  8
3
 10
61.6733
 20
159.0127
  0
POINT
  8
3
 10
63.6804
 20
162.3531
  0
POINT
  8
3
 10
65.5191
 20
165.8860
  0
POINT
  8
3
 10
67.1744
 20
169.5111
  0
POINT
  8
3
 10
70.2005
 20
177.4141
  0
POINT
  8
3
 10
72.7826
 20
185.7850
  0
POINT
  8
3
 10
74.9622
 20
194.5752
  0
POINT
  8
3
 10
76.6907
 20
203.5245
  0
POINT
  8
3
 10
78.0792
 20
212.7459
  0
POINT
  8
3
 10
79.1562
 20
221.9694
  0
POINT
  8
3
 10
80.1090
 20
231.8324
  0
POINT
  8
3
 10
80.8634
 20
241.3185
  0
POINT
  8
3
 10
81.4972
 20
251.2357
  0
POINT
  8
3
 10
82.0453
 20
261.1074
  0
POINT
  8
2
 10
82.6215
 20
272.2072
  0
TEXT
  8
2
 10
82.6215
 20
272.2072
 40
0.1000
 50
0.0000
  1
# 4
  0
POINT
  8
2
 10
102.5522
 20
270.0713
  0
TEXT
  8
2
 10
102.5522
 20
270.0713
 40
0.1000
 50
0.0000
  1
# 5
  0
POINT
  8
4
 10
231.3016
 20
270.0739
 38
5.0000
 50
270.0000
  0
TEXT
  8
4
 10
231.3016
 20
270.0739
 40
0.1000
 50
0.0000
  1
# 6
  0
POINT
  8
2
 10
231.3016
 20
270.0739
  0
TEXT
  8
2
 10
231.3016
 20
270.0739
 40
0.1000
 50
0.0000
  1
# 6
  0
POINT
  8
2
 10
360.0522
 20
270.0713
  0
TEXT
  8
2
 10
360.0522
 20
270.0713
 40
0.1000
 50
0.0000
  1
# 7
  0
POINT
  8
2
 10
379.9826
 20
272.2021
  0
TEXT
  8
2
 10
379.9826
 20
272.2021
 40
0.1000
 50
0.0000
  1
# 8
  0
POINT
  8
3
 10
380.5588
 20
261.1025
  0
POINT
  8
3
 10
381.1069
 20
251.2261
  0
POINT
  8
3
 10
381.7087
 20
241.7538
  0
POINT
  8
3
 10
382.4875
 20
231.9085
  0
POINT
  8
3
 10
383.4378
 20
222.0578
  0
POINT
  8
3
 10
384.5139
 20
212.8188
  0
POINT
  8
3
 10
385.9110
 20
203.5324
  0
POINT
  8
3
 10
387.6468
 20
194.5481
  0
POINT
  8
3
 10
389.7879
 20
185.9028
  0
POINT
  8
3
 10
392.3837
 20
177.4693
  0
POINT
  8
3
 10
395.4379
 20
169.4899
  0
POINT
  8
3
 10
397.0920
 20
165.8701
  0
POINT
  8
3
 10
398.9285
 20
162.3429
  0
POINT
  8
3
 10
400.9354
 20
159.0037
  0
POINT
  8
3
 10
403.1271
 20
155.7818
  0
POINT
  8
3
 10
405.5002
 20
152.6550
  0
POINT
  8
3
 10
408.0423
 20
149.6653
  0
POINT
  8
3
 10
410.0693
 20
147.5126
  0
POINT
  8
3
 10
413.6563
 20
144.1150
  0
POINT
  8
2
 10
432.6114
 20
127.1531
  0
TEXT
  8
2
 10
432.6114
 20
127.1531
 40
0.1000
 50
0.0000
  1
# 9
  0
POINT
  8
2
 10
408.9591
 20
121.1214
  0
TEXT
  8
2
 10
408.9591
 20
121.1214
 40
0.1000
 50
0.0000
  1
# 10
  0
POINT
  8
2
 10
393.7711
 20
39.4817
  0
TEXT
  8
2
 10
393.7711
 20
39.4817
 40
0.1000
 50
0.0000
  1
# 11
  0
POINT
  8
3
 10
385.7327
 20
39.2224
  0
POINT
  8
3
 10
359.9814
 20
38.5033
  0
POINT
  8
3
 10
334.1660
 20
38.0381
  0
POINT
  8
3
 10
308.4280
 20
37.8116
  0
POINT
  8
4
 10
231.3309
 20
37.4999
 38
5.0000
 50
90.0000
  0
TEXT
  8
4
 10
231.3309
 20
37.4999
 40
0.1000
 50
0.0000
  1
# 12
  0
POINT
  8
2
 10
231.3309
 20
37.4999
  0
TEXT
  8
2
 10
231.3309
 20
37.4999
 40
0.1000
 50
0.0000
  1
# 12
  0
POINT
  8
3
 10
154.1760
 20
37.8117
  0
POINT
  8
3
 10
128.3893
 20
38.0387
  0
POINT
  8
3
 10
102.6599
 20
38.5024
  0
POINT
  8
3
 10
76.8701
 20
39.2224
  0
POINT
  8
2
 10
68.8324
 20
39.4819
  0
POLYLINE
  8
14
 66
1
 70
1
  0
VERTEX
  8
14
 10
77.1927
 20
49.2172
  0
VERTEX
  8
14
 10
62.3074
 20
129.2325
  0
VERTEX
  8
14
 10
65.9772
 20
132.6687
  0
VERTEX
  8
14
 10
69.4357
 20
136.2951
  0
VERTEX
  8
14
 10
72.6865
 20
140.1178
  0
VERTEX
  8
14
 10
75.7211
 20
144.1151
  0
VERTEX
  8
14
 10
78.5400
 20
148.2669
  0
VERTEX
  8
14
 10
81.1240
 20
152.5681
  0
VERTEX
  8
14
 10
83.4430
 20
157.0169
  0
VERTEX
  8
14
 10
85.5350
 20
161.5802
  0
VERTEX
  8
14
 10
89.1275
 20
170.9511
  0
VERTEX
  8
14
 10
92.0834
 20
180.5419
  0
VERTEX
  8
14
 10
94.4968
 20
190.2844
  0
VERTEX
  8
14
 10
96.4023
 20
200.1390
  0
VERTEX
  8
14
 10
97.8989
 20
210.0639
  0
VERTEX
  8
14
 10
99.0628
 20
220.0339
  0
VERTEX
  8
14
 10
100.0272
 20
230.0252
  0
VERTEX
  8
14
 10
100.8225
 20
240.0314
  0
VERTEX
  8
14
 10
101.4621
 20
250.0488
  0
VERTEX
  8
14
 10
102.0181
 20
260.0713
  0
VERTEX
  8
14
 10
231.3016
 20
260.0739
  0
VERTEX
  8
14
 10
360.5850
 20
260.0713
  0
VERTEX
  8
14
 10
361.1411
 20
250.0488
  0
VERTEX
  8
14
 10
361.7807
 20
240.0314
  0
VERTEX
  8
14
 10
362.5760
 20
230.0252
  0
VERTEX
  8
14
 10
363.5404
 20
220.0339
  0
VERTEX
  8
14
 10
364.7043
 20
210.0639
  0
VERTEX
  8
14
 10
366.2009
 20
200.1390
  0
VERTEX
  8
14
 10
368.1064
 20
190.2844
  0
VERTEX
  8
14
 10
370.5197
 20
180.5419
  0
VERTEX
  8
14
 10
373.4757
 20
170.9511
  0
VERTEX
  8
14
 10
377.0682
 20
161.5802
  0
VERTEX
  8
14
 10
379.1599
 20
157.0169
  0
VERTEX
  8
14
 10
381.4792
 20
152.5681
  0
VERTEX
  8
14
 10
384.0634
 20
148.2669
  0
VERTEX
  8
14
 10
386.8820
 20
144.1151
  0
VERTEX
  8
14
 10
389.9167
 20
140.1178
  0
VERTEX
  8
14
 10
393.1674
 20
136.2951
  0
VERTEX
  8
14
 10
396.6263
 20
132.6687
  0
VERTEX
  8
14
 10
400.2957
 20
129.2325
  0
VERTEX
  8
14
 10
385.4105
 20
49.2172
  0
VERTEX
  8
14
 10
359.7330
 20
48.5002
  0
VERTEX
  8
14
 10
334.0500
 20
48.0374
  0
VERTEX
  8
14
 10
308.3634
 20
47.8114
  0
VERTEX
  8
14
 10
231.3016
 20
47.5000
  0
VERTEX
  8
14
 10
154.2398
 20
47.8114
  0
VERTEX
  8
14
 10
128.5532
 20
48.0374
  0
VERTEX
  8
14
 10
102.8702
 20
48.5002
  0
VERTEX
  8
14
 10
77.1927
 20
49.2172
  0
SEQEND
  0
POINT
  8
2
 10
77.1927
 20
49.2172
  0
TEXT
  8
2
 10
77.1927
 20
49.2172
 40
0.1000
 50
0.0000
  1
# 14
  0
POINT
  8
2
 10
62.3074
 20
129.2325
  0
TEXT
  8
2
 10
62.3074
 20
129.2325
 40
0.1000
 50
0.0000
  1
# 15
  0
POINT
  8
3
 10
65.9772
 20
132.6687
  0
POINT
  8
3
 10
69.4357
 20
136.2951
  0
POINT
  8
3
 10
72.6865
 20
140.1178
  0
POINT
  8
3
 10
75.7211
 20
144.1151
  0
POINT
  8
3
 10
78.5400
 20
148.2669
  0
POINT
  8
3
 10
81.1240
 20
152.5681
  0
POINT
  8
3
 10
83.4430
 20
157.0169
  0
POINT
  8
3
 10
85.5350
 20
161.5802
  0
POINT
  8
3
 10
89.1275
 20
170.9511
  0
POINT
  8
3
 10
92.0834
 20
180.5419
  0
POINT
  8
3
 10
94.4968
 20
190.2844
  0
POINT
  8
3
 10
96.4023
 20
200.1390
  0
POINT
  8
3
 10
97.8989
 20
210.0639
  0
POINT
  8
3
 10
99.0628
 20
220.0339
  0
POINT
  8
3
 10
100.0272
 20
230.0252
  0
POINT
  8
3
 10
100.8225
 20
240.0314
  0
POINT
  8
3
 10
101.4621
 20
250.0488
  0
POINT
  8
2
 10
102.0181
 20
260.0713
  0
TEXT
  8
2
 10
102.0181
 20
260.0713
 40
0.1000
 50
0.0000
  1
# 16
  0
POINT
  8
2
 10
231.3016
 20
260.0739
  0
TEXT
  8
2
 10
231.3016
 20
260.0739
 40
0.1000
 50
0.0000
  1
# 17
  0
POINT
  8
2
 10
360.5850
 20
260.0713
  0
TEXT
  8
2
 10
360.5850
 20
260.0713
 40
0.1000
 50
0.0000
  1
# 18
  0
POINT
  8
3
 10
361.1411
 20
250.0488
  0
POINT
  8
3
 10
361.7807
 20
240.0314
  0
POINT
  8
3
 10
362.5760
 20
230.0252
  0
POINT
  8
3
 10
363.5404
 20
220.0339
  0
POINT
  8
3
 10
364.7043
 20
210.0639
  0
POINT
  8
3
 10
366.2009
 20
200.1390
  0
POINT
  8
3
 10
368.1064
 20
190.2844
  0
POINT
  8
3
 10
370.5197
 20
180.5419
  0
POINT
  8
3
 10
373.4757
 20
170.9511
  0
POINT
  8
3
 10
377.0682
 20
161.5802
  0
POINT
  8
3
 10
379.1599
 20
157.0169
  0
POINT
  8
3
 10
381.4792
 20
152.5681
  0
POINT
  8
3
 10
384.0634
 20
148.2669
  0
POINT
  8
3
 10
386.8820
 20
144.1151
  0
POINT
  8
3
 10
389.9167
 20
140.1178
  0
POINT
  8
3
 10
393.1674
 20
136.2951
  0
POINT
  8
3
 10
396.6263
 20
132.6687
  0
POINT
  8
2
 10
400.2957
 20
129.2325
  0
TEXT
  8
2
 10
400.2957
 20
129.2325
 40
0.1000
 50
0.0000
  1
# 19
  0
POINT
  8
2
 10
385.4105
 20
49.2172
  0
TEXT
  8
2
 10
385.4105
 20
49.2172
 40
0.1000
 50
0.0000
  1
# 20
  0
POINT
  8
3
 10
359.7330
 20
48.5002
  0
POINT
  8
3
 10
334.0500
 20
48.0374
  0
POINT
  8
3
 10
308.3634
 20
47.8114
  0
POINT
  8
2
 10
231.3016
 20
47.5000
  0
TEXT
  8
2
 10
231.3016
 20
47.5000
 40
0.1000
 50
0.0000
  1
# 21
  0
POINT
  8
3
 10
154.2398
 20
47.8114
  0
POINT
  8
3
 10
128.5532
 20
48.0374
  0
POINT
  8
3
 10
102.8702
 20
48.5002
  0
POINT
  8
2
 10
77.1927
 20
49.2172
  0
LINE
  8
7
 10
231.3016
 20
236.1583
 11
231.3016
 21
64.5993
  0
POINT
  8
2
 10
231.3016
 20
236.1583
  0
TEXT
  8
2
 10
231.3016
 20
236.1583
 40
0.1000
 50
0.0000
  1
# 23
  0
POINT
  8
2
 10
231.3016
 20
64.5993
  0
TEXT
  8
2
 10
231.3016
 20
64.5993
 40
0.1000
 50
0.0000
  1
# 24
  0
LINE
  8
5
 10
231.3016
 20
236.1583
 11
231.3016
 21
64.5993
  0
LINE
  8
8
 10
231.3016
 20
47.5005
 11
231.3016
 21
260.0744
  0
POINT
  8
2
 10
231.3016
 20
47.5005
  0
TEXT
  8
2
 10
231.3016
 20
47.5005
 40
0.1000
 50
0.0000
  1
# 25
  0
POINT
  8
2
 10
231.3016
 20
260.0744
  0
TEXT
  8
2
 10
231.3016
 20
260.0744
 40
0.1000
 50
0.0000
  1
# 26
  0
POLYLINE
  8
8
 66
1
 70
0
  0
VERTEX
  8
8
 10
397.0816
 20
111.9549
  0
VERTEX
  8
8
 10
390.2750
 20
118.0705
  0
VERTEX
  8
8
 10
386.0312
 20
122.0477
  0
VERTEX
  8
8
 10
382.0316
 20
126.2447
  0
VERTEX
  8
8
 10
378.2443
 20
130.6964
  0
VERTEX
  8
8
 10
374.7080
 20
135.3510
  0
VERTEX
  8
8
 10
371.4182
 20
140.1986
  0
VERTEX
  8
8
 10
368.4018
 20
145.2200
  0
VERTEX
  8
8
 10
365.7193
 20
150.3603
  0
VERTEX
  8
8
 10
363.2974
 20
155.6323
  0
VERTEX
  8
8
 10
361.1948
 20
160.8034
  0
VERTEX
  8
8
 10
359.2966
 20
166.0562
  0
VERTEX
  8
8
 10
356.0538
 20
176.5742
  0
VERTEX
  8
8
 10
353.4604
 20
187.0445
  0
VERTEX
  8
8
 10
351.3864
 20
197.7812
  0
VERTEX
  8
8
 10
349.8135
 20
208.2509
  0
VERTEX
  8
8
 10
348.6002
 20
218.6749
  0
VERTEX
  8
8
 10
347.6358
 20
228.6848
  0
VERTEX
  8
8
 10
346.8057
 20
239.1448
  0
VERTEX
  8
8
 10
346.1679
 20
249.1587
  0
VERTEX
  8
8
 10
345.5649
 20
260.0753
  0
SEQEND
  0
POINT
  8
2
 10
397.0816
 20
111.9549
  0
TEXT
  8
2
 10
397.0816
 20
111.9549
 40
0.1000
 50
0.0000
  1
# 27
  0
POINT
  8
3
 10
390.2750
 20
118.0705
  0
POINT
  8
3
 10
386.0312
 20
122.0477
  0
POINT
  8
3
 10
382.0316
 20
126.2447
  0
POINT
  8
3
 10
378.2443
 20
130.6964
  0
POINT
  8
3
 10
374.7080
 20
135.3510
  0
POINT
  8
3
 10
371.4182
 20
140.1986
  0
POINT
  8
3
 10
368.4018
 20
145.2200
  0
POINT
  8
3
 10
365.7193
 20
150.3603
  0
POINT
  8
3
 10
363.2974
 20
155.6323
  0
POINT
  8
3
 10
361.1948
 20
160.8034
  0
POINT
  8
3
 10
359.2966
 20
166.0562
  0
POINT
  8
3
 10
356.0538
 20
176.5742
  0
POINT
  8
3
 10
353.4604
 20
187.0445
  0
POINT
  8
3
 10
351.3864
 20
197.7812
  0
POINT
  8
3
 10
349.8135
 20
208.2509
  0
POINT
  8
3
 10
348.6002
 20
218.6749
  0
POINT
  8
3
 10
347.6358
 20
228.6848
  0
POINT
  8
3
 10
346.8057
 20
239.1448
  0
POINT
  8
3
 10
346.1679
 20
249.1587
  0
POINT
  8
2
 10
345.5649
 20
260.0753
  0
TEXT
  8
2
 10
345.5649
 20
260.0753
 40
0.1000
 50
0.0000
  1
# 28
  0
POLYLINE
  8
8
 66
1
 70
0
  0
VERTEX
  8
8
 10
396.0104
 20
106.1952
  0
VERTEX
  8
8
 10
386.9351
 20
114.3498
  0
VERTEX
  8
8
 10
382.4985
 20
118.5092
  0
VERTEX
  8
8
 10
378.3170
 20
122.8981
  0
VERTEX
  8
8
 10
374.3503
 20
127.5598
  0
VERTEX
  8
8
 10
370.6473
 20
132.4337
  0
VERTEX
  8
8
 10
367.2006
 20
137.5146
  0
VERTEX
  8
8
 10
364.0390
 20
142.7773
  0
VERTEX
  8
8
 10
361.2363
 20
148.1463
  0
VERTEX
  8
8
 10
358.7058
 20
153.6528
  0
VERTEX
  8
8
 10
356.5292
 20
159.0023
  0
VERTEX
  8
8
 10
354.5664
 20
164.4366
  0
VERTEX
  8
8
 10
351.2344
 20
175.2426
  0
VERTEX
  8
8
 10
348.5764
 20
185.9731
  0
VERTEX
  8
8
 10
346.4578
 20
196.9397
  0
VERTEX
  8
8
 10
344.8563
 20
207.5978
  0
VERTEX
  8
8
 10
343.6276
 20
218.1520
  0
VERTEX
  8
8
 10
342.6547
 20
228.2494
  0
VERTEX
  8
8
 10
341.8186
 20
238.7908
  0
VERTEX
  8
8
 10
341.1765
 20
248.8620
  0
VERTEX
  8
8
 10
340.5582
 20
260.0754
  0
SEQEND
  0
POINT
  8
2
 10
396.0104
 20
106.1952
  0
TEXT
  8
2
 10
396.0104
 20
106.1952
 40
0.1000
 50
0.0000
  1
# 29
  0
POINT
  8
3
 10
386.9351
 20
114.3498
  0
POINT
  8
3
 10
382.4985
 20
118.5092
  0
POINT
  8
3
 10
378.3170
 20
122.8981
  0
POINT
  8
3
 10
374.3503
 20
127.5598
  0
POINT
  8
3
 10
370.6473
 20
132.4337
  0
POINT
  8
3
 10
367.2006
 20
137.5146
  0
POINT
  8
3
 10
364.0390
 20
142.7773
  0
POINT
  8
3
 10
361.2363
 20
148.1463
  0
POINT
  8
3
 10
358.7058
 20
153.6528
  0
POINT
  8
3
 10
356.5292
 20
159.0023
  0
POINT
  8
3
 10
354.5664
 20
164.4366
  0
POINT
  8
3
 10
351.2344
 20
175.2426
  0
POINT
  8
3
 10
348.5764
 20
185.9731
  0
POINT
  8
3
 10
346.4578
 20
196.9397
  0
POINT
  8
3
 10
344.8563
 20
207.5978
  0
POINT
  8
3
 10
343.6276
 20
218.1520
  0
POINT
  8
3
 10
342.6547
 20
228.2494
  0
POINT
  8
3
 10
341.8186
 20
238.7908
  0
POINT
  8
3
 10
341.1765
 20
248.8620
  0
POINT
  8
2
 10
340.5582
 20
260.0754
  0
TEXT
  8
2
 10
340.5582
 20
260.0754
 40
0.1000
 50
0.0000
  1
# 30
  0
POLYLINE
  8
8
 66
1
 70
0
  0
VERTEX
  8
8
 10
65.5206
 20
111.9558
  0
VERTEX
  8
8
 10
72.3282
 20
118.0705
  0
VERTEX
  8
8
 10
76.5717
 20
122.0477
  0
VERTEX
  8
8
 10
80.5716
 20
126.2447
  0
VERTEX
  8
8
 10
84.3588
 20
130.6964
  0
VERTEX
  8
8
 10
87.8952
 20
135.3510
  0
VERTEX
  8
8
 10
91.1850
 20
140.1986
  0
VERTEX
  8
8
 10
94.2014
 20
145.2200
  0
VERTEX
  8
8
 10
96.8839
 20
150.3603
  0
VERTEX
  8
8
 10
99.3057
 20
155.6323
  0
VERTEX
  8
8
 10
101.4090
 20
160.8034
  0
VERTEX
  8
8
 10
103.3066
 20
166.0562
  0
VERTEX
  8
8
 10
106.5494
 20
176.5742
  0
VERTEX
  8
8
 10
109.1428
 20
187.0445
  0
VERTEX
  8
8
 10
111.2167
 20
197.7812
  0
VERTEX
  8
8
 10
112.7896
 20
208.2509
  0
VERTEX
  8
8
 10
114.0030
 20
218.6749
  0
VERTEX
  8
8
 10
114.9674
 20
228.6848
  0
VERTEX
  8
8
 10
115.7974
 20
239.1448
  0
VERTEX
  8
8
 10
116.4353
 20
249.1587
  0
VERTEX
  8
8
 10
117.0383
 20
260.0753
  0
SEQEND
  0
POINT
  8
2
 10
65.5206
 20
111.9558
  0
TEXT
  8
2
 10
65.5206
 20
111.9558
 40
0.1000
 50
0.0000
  1
# 31
  0
POINT
  8
3
 10
72.3282
 20
118.0705
  0
POINT
  8
3
 10
76.5717
 20
122.0477
  0
POINT
  8
3
 10
80.5716
 20
126.2447
  0
POINT
  8
3
 10
84.3588
 20
130.6964
  0
POINT
  8
3
 10
87.8952
 20
135.3510
  0
POINT
  8
3
 10
91.1850
 20
140.1986
  0
POINT
  8
3
 10
94.2014
 20
145.2200
  0
POINT
  8
3
 10
96.8839
 20
150.3603
  0
POINT
  8
3
 10
99.3057
 20
155.6323
  0
POINT
  8
3
 10
101.4090
 20
160.8034
  0
POINT
  8
3
 10
103.3066
 20
166.0562
  0
POINT
  8
3
 10
106.5494
 20
176.5742
  0
POINT
  8
3
 10
109.1428
 20
187.0445
  0
POINT
  8
3
 10
111.2167
 20
197.7812
  0
POINT
  8
3
 10
112.7896
 20
208.2509
  0
POINT
  8
3
 10
114.0030
 20
218.6749
  0
POINT
  8
3
 10
114.9674
 20
228.6848
  0
POINT
  8
3
 10
115.7974
 20
239.1448
  0
POINT
  8
3
 10
116.4353
 20
249.1587
  0
POINT
  8
2
 10
117.0383
 20
260.0753
  0
TEXT
  8
2
 10
117.0383
 20
260.0753
 40
0.1000
 50
0.0000
  1
# 32
  0
POLYLINE
  8
8
 66
1
 70
0
  0
VERTEX
  8
8
 10
66.5930
 20
106.1950
  0
VERTEX
  8
8
 10
75.6680
 20
114.3498
  0
VERTEX
  8
8
 10
80.1044
 20
118.5092
  0
VERTEX
  8
8
 10
84.2862
 20
122.8981
  0
VERTEX
  8
8
 10
88.2526
 20
127.5598
  0
VERTEX
  8
8
 10
91.9559
 20
132.4337
  0
VERTEX
  8
8
 10
95.4028
 20
137.5146
  0
VERTEX
  8
8
 10
98.5642
 20
142.7773
  0
VERTEX
  8
8
 10
101.3669
 20
148.1463
  0
VERTEX
  8
8
 10
103.8974
 20
153.6528
  0
VERTEX
  8
8
 10
106.0739
 20
159.0023
  0
VERTEX
  8
8
 10
108.0368
 20
164.4366
  0
VERTEX
  8
8
 10
111.3687
 20
175.2426
  0
VERTEX
  8
8
 10
114.0268
 20
185.9731
  0
VERTEX
  8
8
 10
116.1453
 20
196.9397
  0
VERTEX
  8
8
 10
117.7469
 20
207.5978
  0
VERTEX
  8
8
 10
118.9755
 20
218.1520
  0
VERTEX
  8
8
 10
119.9484
 20
228.2494
  0
VERTEX
  8
8
 10
120.7846
 20
238.7908
  0
VERTEX
  8
8
 10
121.4267
 20
248.8620
  0
VERTEX
  8
8
 10
122.0450
 20
260.0754
  0
SEQEND
  0
POINT
  8
2
 10
66.5930
 20
106.1950
  0
TEXT
  8
2
 10
66.5930
 20
106.1950
 40
0.1000
 50
0.0000
  1
# 33
  0
POINT
  8
3
 10
75.6680
 20
114.3498
  0
POINT
  8
3
 10
80.1044
 20
118.5092
  0
POINT
  8
3
 10
84.2862
 20
122.8981
  0
POINT
  8
3
 10
88.2526
 20
127.5598
  0
POINT
  8
3
 10
91.9559
 20
132.4337
  0
POINT
  8
3
 10
95.4028
 20
137.5146
  0
POINT
  8
3
 10
98.5642
 20
142.7773
  0
POINT
  8
3
 10
101.3669
 20
148.1463
  0
POINT
  8
3
 10
103.8974
 20
153.6528
  0
POINT
  8
3
 10
106.0739
 20
159.0023
  0
POINT
  8
3
 10
108.0368
 20
164.4366
  0
POINT
  8
3
 10
111.3687
 20
175.2426
  0
POINT
  8
3
 10
114.0268
 20
185.9731
  0
POINT
  8
3
 10
116.1453
 20
196.9397
  0
POINT
  8
3
 10
117.7469
 20
207.5978
  0
POINT
  8
3
 10
118.9755
 20
218.1520
  0
POINT
  8
3
 10
119.9484
 20
228.2494
  0
POINT
  8
3
 10
120.7846
 20
238.7908
  0
POINT
  8
3
 10
121.4267
 20
248.8620
  0
POINT
  8
2
 10
122.0450
 20
260.0754
  0
TEXT
  8
2
 10
122.0450
 20
260.0754
 40
0.1000
 50
0.0000
  1
# 34
  0
ENDBLK
  0
ENDSEC
  0
SECTION
  2
ENTITIES
  0
TEXT
  8
1
 10
0.0000
 20
0.0000
 40
2.8000
 50
0.0000
  1
STYLE NAME: Male_Top_Hooded-T-shirts_0030_pattern
  7
STANDARD
  0
TEXT
  8
1
 10
0.0000
 20
3.0000
 40
2.8000
 50
0.0000
  1
CREATION DATE: 2023-09-18
  7
STANDARD
  0
TEXT
  8
1
 10
0.0000
 20
6.0000
 40
2.8000
 50
0.0000
  1
CREATION TIME: 11:24
  7
STANDARD
  0
TEXT
  8
1
 10
0.0000
 20
9.0000
 40
2.8000
 50
0.0000
  1
AUTHOR: Yuka And Alpha Co., Ltd.
  7
STANDARD
  0
TEXT
  8
1
 10
0.0000
 20
12.0000
 40
2.8000
 50
0.0000
  1
PRODUCT: SuperALPHA_Plus
  7
STANDARD
  0
TEXT
  8
1
 10
0.0000
 20
15.0000
 40
2.8000
 50
0.0000
  1
VERSION: 2.90
  7
STANDARD
  0
TEXT
  8
1
 10
0.0000
 20
18.0000
 40
2.8000
 50
0.0000
  1
SAMPLE SIZE: F
  7
STANDARD
  0
TEXT
  8
1
 10
0.0000
 20
21.0000
 40
2.8000
 50
0.0000
  1
GRADE RULE TABLE:
  7
STANDARD
  0
TEXT
  8
1
 10
0.0000
 20
24.0000
 40
2.8000
 50
0.0000
  1
UNITS: METRIC
  7
STANDARD
  0
TEXT
  8
1
 10
0.0000
 20
27.0000
 40
2.8000
 50
0.0000
  1
TOLERANCE: 0.001
  7
STANDARD
  0
INSERT
  8
1
  2
BLK_1_1
 50
0.0000
 10
0.0000
 20
0.0000
  0
INSERT
  8
1
  2
BLK_2_1
 50
0.0000
 10
740.5066
 20
0.0000
  0
INSERT
  8
1
  2
BLK_3_1
 50
0.0000
 10
1481.0889
 20
0.0000
  0
INSERT
  8
1
  2
BLK_4_1
 50
0.0000
 10
2107.1375
 20
0.0000
  0
INSERT
  8
1
  2
BLK_5_1
 50
0.0000
 10
2733.1854
 20
0.0000
  0
INSERT
  8
1
  2
BLK_6_1
 50
0.0000
 10
0.0000
 20
815.8066
  0
INSERT
  8
1
  2
BLK_7_1
 50
0.0000
 10
418.8794
 20
815.8066
  0
ENDSEC
  0
EOF
